<svg width="100%" height="100%" viewBox="0 0 135 38" version="1.1" xmlns="http://www.w3.org/2000/svg" xmlns:xlink="http://www.w3.org/1999/xlink" xml:space="preserve" xmlns:serif="http://www.serif.com/" style="fill-rule:evenodd;clip-rule:evenodd;stroke-linejoin:round;stroke-miterlimit:2;"> <g id="g96" transform="matrix(0.458377,-1.1126e-32,1.1126e-32,-0.458377,13.5868,4.60125)"> <path id="path98" d="M0,0C-0.06,-0.03 -0.092,-0.153 -0.168,-0.184C-0.244,-0.214 -0.289,-0.046 -0.335,0.045C-0.383,0.136 -0.564,0.366 -0.701,0.471C-0.838,0.579 -1.004,0.714 -1.004,0.714C-1.004,0.714 -0.534,0.791 -0.426,0.778C-0.32,0.761 -0.273,0.73 -0.273,0.73C-0.273,0.73 -0.154,0.653 -0.122,0.595C-0.092,0.532 0.075,0.396 0.152,0.245C0.229,0.092 0.062,0.031 0,0M-1.219,-0.534C-1.295,-0.534 -1.34,-0.442 -1.4,-0.397C-1.463,-0.351 -1.371,-0.136 -1.371,-0.136C-1.371,-0.136 -1.203,-0.321 -1.158,-0.366C-1.111,-0.411 -1.066,-0.534 -1.066,-0.534L-1.219,-0.534ZM-1.648,-1.604C-1.718,-1.694 -1.957,-1.901 -2.062,-2.141C-2.163,-2.38 -2.197,-2.906 -2.197,-2.906C-2.197,-2.906 -2.449,-3.041 -2.585,-3.327C-2.725,-3.614 -2.849,-3.795 -2.953,-3.853C-3.054,-3.91 -3.067,-4.151 -2.928,-4.38C-2.792,-4.606 -2.585,-4.744 -2.62,-4.915C-2.654,-5.087 -2.734,-5.294 -2.62,-5.407C-2.506,-5.521 -2.438,-5.521 -2.438,-5.681C-2.438,-5.841 -2.426,-5.933 -2.332,-5.966L-2.244,-6.003C-2.244,-6.003 -2.438,-6.172 -2.357,-6.379C-2.277,-6.584 -2.232,-6.561 -2.232,-6.653C-2.232,-6.745 -2.254,-6.847 -2.254,-6.847C-2.254,-6.847 -2.38,-6.619 -2.461,-6.436C-2.541,-6.254 -2.664,-6.172 -2.712,-5.955C-2.758,-5.738 -2.849,-5.476 -3.09,-5.316C-3.329,-5.156 -3.191,-4.972 -3.42,-4.871C-3.646,-4.768 -3.567,-4.572 -3.796,-4.38C-4.025,-4.184 -3.922,-4.036 -4.15,-3.958C-4.38,-3.876 -4.516,-3.786 -4.516,-3.647C-4.516,-3.51 -4.55,-3.374 -4.629,-3.316C-4.711,-3.259 -5.042,-3.237 -5.248,-3.031C-5.454,-2.825 -5.556,-2.815 -5.864,-2.769C-6.172,-2.723 -6.311,-2.747 -6.389,-2.699L-6.469,-2.654C-6.469,-2.654 -6.07,-2.449 -6,-2.174C-5.934,-1.901 -5.864,-1.854 -5.944,-1.74C-6.023,-1.625 -6.08,-1.568 -6.036,-1.523C-5.988,-1.478 -5.956,-1.478 -5.956,-1.478C-5.956,-1.478 -5.201,-1.42 -5.078,-1.42C-4.949,-1.42 -4.949,-1.454 -4.721,-1.431C-4.492,-1.409 -3.646,-1.33 -3.521,-1.306C-3.397,-1.283 -3.182,-1.112 -3.054,-0.781C-2.928,-0.449 -2.939,-0.175 -2.939,-0.175C-2.939,-0.175 -2.805,-0.188 -2.734,-0.199C-2.664,-0.21 -2.633,-0.21 -2.633,-0.21C-2.633,-0.21 -2.529,-0.598 -2.563,-0.644C-2.598,-0.688 -2.633,-0.815 -2.688,-0.815C-2.747,-0.815 -2.792,-0.838 -2.792,-0.838L-2.792,-0.987L-1.969,-0.987C-1.969,-0.987 -1.879,-1.136 -1.832,-1.169C-1.787,-1.203 -1.89,-1.341 -1.832,-1.363C-1.775,-1.387 -1.695,-1.397 -1.695,-1.397C-1.695,-1.397 -1.581,-1.512 -1.648,-1.604M-3.135,0.784L-3.077,0.465L-2.998,0.475L-2.928,0.224L-2.861,0.191L-2.871,0.087C-2.883,-0.015 -2.928,-0.048 -2.928,-0.048L-2.939,-0.015C-2.953,0.02 -3.031,0.155 -3.111,0.224C-3.191,0.293 -3.182,0.419 -3.182,0.499C-3.182,0.579 -3.191,0.784 -3.191,0.784L-3.135,0.784ZM-15.939,0.555C-16.189,0.532 -16.352,0.281 -16.466,0.122C-16.58,-0.039 -16.672,-0.039 -16.969,-0.015C-17.265,0.008 -17.858,0.008 -18.134,-0.015C-18.407,-0.039 -18.704,-0.039 -18.704,-0.039L-18.91,0.532C-18.818,0.625 -18.43,1.081 -18.02,1.469C-17.609,1.857 -16.945,2.065 -16.625,2.11C-16.305,2.157 -16.283,2.041 -16.305,1.903C-16.329,1.766 -16.512,1.447 -16.396,1.378C-16.283,1.31 -16.189,1.241 -16.189,1.241C-16.189,1.241 -16.237,1.325 -16.211,1.389C-16.201,1.412 -16.184,1.435 -16.145,1.447C-16.141,1.448 -16.139,1.447 -16.133,1.447C-16.104,1.473 -16.086,1.492 -16.086,1.492C-16.086,1.492 -16.084,1.484 -16.076,1.427C-16.009,1.359 -16.004,1.13 -15.984,1.059C-15.979,1.042 -15.969,1.023 -15.957,1.006C-15.906,0.921 -15.803,0.828 -15.803,0.828C-15.803,0.828 -15.689,0.579 -15.939,0.555M4.721,4.722C4.66,4.722 4.479,4.782 4.479,4.782C4.479,4.782 4.341,4.919 4.219,4.934C4.098,4.949 3.898,4.844 3.898,4.844L3.564,4.844C3.396,4.844 3.259,4.736 3.259,4.736C3.259,4.736 2.514,4.751 2.422,4.751C2.33,4.751 2.086,4.555 2.086,4.555L2.024,4.538C1.964,4.523 1.995,4.448 1.995,4.448L1.904,4.432C1.904,4.432 1.872,4.523 1.646,4.508C1.416,4.494 1.248,4.432 1.248,4.432C1.248,4.432 1.127,4.387 1.036,4.326C0.943,4.265 0.838,4.281 0.64,4.326C0.441,4.372 -0.076,4.326 -0.154,4.326C-0.229,4.326 -0.289,4.219 -0.289,4.219C-0.289,4.219 -0.412,4.281 -0.503,4.249C-0.594,4.219 -0.564,4.173 -0.564,4.173C-0.564,4.173 -1.188,4.202 -1.295,4.173C-1.4,4.143 -1.477,4.097 -1.477,4.097C-1.477,4.097 -1.859,4.112 -1.967,4.097C-2.07,4.081 -2.24,3.943 -2.389,3.943C-2.543,3.943 -2.787,4.112 -3.016,4.02C-3.245,3.93 -3.412,3.67 -3.412,3.67L-3.58,3.655L-3.58,4.173C-3.58,4.173 -3.535,4.188 -3.488,4.202C-3.443,4.219 -3.488,4.494 -3.535,4.722C-3.58,4.949 -3.717,4.919 -3.914,5.01C-4.113,5.102 -4.159,5.316 -4.448,5.347C-4.736,5.376 -5.621,5.285 -5.684,5.285C-5.742,5.285 -5.728,5.148 -5.728,5.148L-5.91,5.132C-6.092,5.118 -6.396,5.132 -6.396,5.132L-6.412,5.209C-6.429,5.285 -6.627,5.239 -6.701,5.194C-6.778,5.148 -6.854,4.934 -6.854,4.934C-6.854,4.934 -6.793,5.057 -7.067,5.393C-7.343,5.726 -7.403,6.093 -7.403,6.093L-7.251,6.246C-7.098,6.396 -6.945,6.701 -7.098,6.976C-7.251,7.25 -7.219,7.677 -7.371,7.769C-7.524,7.859 -7.463,8.134 -7.584,8.377C-7.707,8.62 -8.408,8.834 -8.805,9.018C-9.2,9.198 -10.143,9.9 -11.18,10.022C-12.216,10.144 -13.162,9.535 -13.525,9.505C-13.891,9.473 -14.684,9.078 -15.079,8.59C-15.475,8.104 -16.054,7.036 -16.086,6.824C-16.116,6.61 -16.633,5.971 -16.725,5.758C-16.816,5.544 -16.845,4.722 -16.938,4.508C-17.028,4.295 -16.906,3.502 -16.633,3.077C-16.477,2.833 -16.374,2.623 -16.311,2.451C-17.232,2.682 -18.168,2.243 -18.612,1.798C-19.07,1.34 -19.375,1.097 -19.647,1.036C-19.924,0.974 -20.195,0.214 -20.319,0.183C-20.441,0.152 -20.715,0.275 -20.958,0.275C-21.203,0.275 -21.809,0.487 -22.085,0.579C-22.36,0.668 -22.42,0.487 -22.42,0.487L-22.544,0.519C-22.664,0.548 -23.031,0.427 -23.303,0.579C-23.578,0.73 -23.699,0.396 -24.217,0.487C-24.736,0.579 -25.07,-0.731 -25.191,-0.731C-25.314,-0.731 -25.772,-1.005 -25.984,-1.005C-26.197,-1.005 -26.716,-1.31 -26.867,-1.767C-27.02,-2.223 -27.356,-3.259 -27.447,-3.503C-27.539,-3.746 -27.447,-4.143 -27.539,-4.447C-27.63,-4.752 -27.75,-5.423 -27.66,-5.513C-27.568,-5.604 -27.174,-5.391 -27.174,-5.391C-27.174,-5.391 -27.143,-5.635 -27.203,-5.879C-27.266,-6.124 -27.507,-6.215 -27.449,-6.457C-27.387,-6.703 -26.959,-6.975 -26.686,-7.008C-26.412,-7.038 -26.594,-7.129 -26.594,-7.28C-26.594,-7.434 -26.747,-7.646 -27.02,-8.013C-27.295,-8.376 -27.295,-8.651 -27.416,-8.774C-27.539,-8.896 -28.299,-9.108 -28.453,-9.2C-28.604,-9.291 -28.696,-9.719 -28.878,-10.51C-29.063,-11.302 -29.397,-11.729 -29.55,-11.729C-29.701,-11.729 -29.58,-11.82 -29.365,-12.063C-29.152,-12.307 -28.787,-12.338 -28.787,-12.338L-28.816,-12.428C-28.848,-12.521 -28.908,-12.946 -28.848,-13.13C-28.787,-13.312 -28.756,-13.738 -28.848,-13.86C-28.94,-13.983 -29.212,-14.289 -29.123,-14.378C-29.03,-14.47 -28.878,-14.684 -28.878,-14.835C-28.878,-14.988 -28.908,-15.11 -29.184,-15.476C-29.457,-15.84 -29.428,-16.572 -29.365,-16.877C-29.304,-17.181 -29.244,-18.308 -29.244,-18.308C-29.244,-18.308 -29.55,-18.308 -29.55,-18.4C-29.55,-18.491 -29.03,-19.405 -29.03,-19.8C-29.03,-20.198 -29.03,-21.05 -29,-21.325C-28.971,-21.598 -29.641,-22.085 -29.641,-22.268C-29.641,-22.449 -28.787,-22.816 -28.787,-22.816L-28.787,-23.091C-28.787,-23.366 -28.543,-24.644 -28.483,-25.194C-28.421,-25.742 -28.543,-25.742 -28.665,-26.046C-28.787,-26.35 -28.665,-26.35 -28.453,-26.38C-28.24,-26.411 -28.148,-26.594 -28.088,-27.081C-28.025,-27.569 -27.295,-27.995 -26.929,-28.178C-26.564,-28.36 -25.711,-28.634 -25.711,-28.634C-25.711,-28.634 -25.863,-29.152 -26.045,-29.549C-26.229,-29.944 -26.807,-30.708 -26.807,-31.01C-26.807,-31.315 -26.412,-31.954 -26.351,-32.138C-26.289,-32.321 -26.229,-32.352 -26.017,-32.321C-25.801,-32.291 -25.831,-32.625 -25.711,-32.625C-25.588,-32.625 -25.558,-32.776 -25.467,-33.021C-25.375,-33.264 -25.162,-33.327 -24.948,-33.388C-24.736,-33.448 -24.645,-33.721 -24.645,-33.721C-24.645,-33.721 -24.676,-33.965 -24.676,-34.147C-24.676,-34.332 -24.492,-34.879 -24.187,-35.519C-23.882,-36.158 -23.822,-36.647 -23.699,-36.736C-23.578,-36.829 -23.486,-36.252 -23.486,-36.129C-23.486,-36.006 -23.944,-35.153 -24.036,-34.879C-24.128,-34.605 -24.157,-33.905 -24.157,-33.905C-24.157,-33.905 -23.822,-34.271 -23.639,-34.424C-23.457,-34.576 -23.549,-35.337 -23.274,-35.551C-23,-35.763 -22.664,-37.103 -22.452,-38.078C-22.238,-39.053 -22.177,-40.547 -21.963,-41.764C-21.751,-42.982 -21.842,-44.872 -21.719,-44.872C-21.598,-44.872 -21.172,-43.989 -21.143,-43.866C-21.11,-43.745 -21.143,-43.196 -21.233,-42.74C-21.326,-42.282 -21.566,-40.271 -21.779,-38.779C-21.994,-37.287 -22.206,-36.098 -22.328,-35.854C-22.452,-35.611 -22.785,-35.063 -22.848,-34.666C-22.91,-34.271 -23.274,-33.936 -23.274,-33.936C-23.274,-33.936 -22.269,-34.637 -21.386,-34.849C-20.66,-35.025 -19.902,-35.339 -19.584,-35.448C-19.613,-35.652 -19.652,-35.849 -19.706,-35.997C-19.805,-36.13 -19.914,-36.272 -20.014,-36.403C-20.319,-36.799 -21.233,-38.262 -21.326,-38.352C-21.416,-38.442 -21.203,-38.476 -21.02,-38.476C-20.836,-38.476 -20.593,-38.109 -20.258,-37.561C-20.17,-37.415 -20.04,-37.215 -19.896,-37C-19.932,-37.368 -19.937,-37.73 -19.924,-37.958C-19.892,-38.415 -20.045,-40.667 -19.893,-41.917C-19.74,-43.165 -19.436,-44.08 -19.436,-44.08C-19.436,-44.08 -19.557,-44.477 -19.71,-44.994C-19.862,-45.512 -20.319,-46.547 -20.562,-47.156C-20.807,-47.766 -20.715,-48.496 -20.623,-48.741C-20.533,-48.984 -20.501,-49.167 -20.776,-49.563C-21.049,-49.958 -21.203,-51.025 -21.233,-51.786C-21.264,-52.548 -21.598,-53.949 -21.566,-54.588C-21.537,-55.229 -21.779,-56.265 -21.779,-57.087C-21.779,-57.91 -21.902,-60.773 -22.085,-61.17C-22.269,-61.564 -22.206,-62.996 -22.085,-64.032C-21.963,-65.067 -22.147,-65.889 -22.115,-66.073C-22.085,-66.256 -22.055,-66.744 -22.055,-66.896C-22.055,-67.048 -21.871,-67.108 -21.871,-67.108L-21.963,-67.262C-22.055,-67.414 -21.902,-67.597 -21.963,-67.72C-22.023,-67.84 -21.963,-68.296 -21.934,-68.572C-21.902,-68.844 -21.751,-68.968 -21.233,-69.15C-20.715,-69.333 -19.253,-69.424 -18.766,-69.362C-18.278,-69.302 -17.699,-68.633 -17.699,-68.419C-17.699,-68.207 -17.578,-68.022 -17.395,-67.961C-17.212,-67.901 -16.785,-67.901 -16.449,-67.782C-16.116,-67.657 -15.689,-67.534 -15.14,-67.262C-14.592,-66.988 -14.379,-66.53 -14.318,-66.348C-14.257,-66.166 -14.227,-65.86 -14.227,-65.465C-14.227,-65.067 -14.5,-64.977 -14.5,-64.977C-14.5,-64.977 -14.529,-64.886 -14.713,-64.611C-14.896,-64.337 -15.109,-64.427 -15.109,-64.427C-15.109,-64.427 -15.049,-64.245 -15.02,-63.972C-14.988,-63.698 -14.988,-63.3 -15.109,-63.059C-15.23,-62.813 -14.988,-62.54 -14.836,-62.021C-14.684,-61.504 -14.744,-61.229 -14.713,-60.773C-14.684,-60.315 -14.408,-59.219 -14.47,-58.152C-14.531,-57.087 -14.867,-56.173 -14.896,-56.051C-14.928,-55.928 -14.805,-54.254 -14.562,-53.767C-14.318,-53.279 -14.137,-51.421 -14.227,-51.117C-14.318,-50.812 -14.104,-50.233 -14.165,-49.897C-14.227,-49.563 -13.861,-48.891 -13.83,-48.406C-13.799,-47.918 -13.525,-47.368 -13.525,-47.218C-13.525,-47.065 -13.313,-46.425 -13.129,-46.06C-12.947,-45.694 -12.977,-45.207 -12.824,-44.658C-12.673,-44.11 -12.641,-43.288 -12.49,-42.464C-12.338,-41.643 -11.698,-40.09 -11.698,-40.09C-11.698,-40.09 -11.545,-40.302 -11.606,-40.514C-11.666,-40.73 -11.516,-41.125 -11.393,-41.521C-11.271,-41.918 -11.455,-42.647 -11.424,-43.135C-11.393,-43.622 -11.148,-44.931 -10.935,-45.512C-10.722,-46.09 -10.997,-46.731 -11.148,-47.005C-11.301,-47.278 -11.211,-47.796 -11.273,-48.13C-11.332,-48.465 -10.662,-50.569 -10.543,-51.055C-10.418,-51.542 -10.754,-52.548 -10.602,-52.945C-10.447,-53.338 -10.48,-53.858 -10.631,-54.315C-10.784,-54.771 -10.691,-55.594 -10.662,-55.99C-10.631,-56.387 -10.844,-56.568 -10.876,-56.843C-10.905,-57.118 -10.754,-57.026 -10.722,-57.269C-10.691,-57.513 -11.148,-59.767 -11.211,-60.072C-11.271,-60.377 -10.997,-62.356 -10.935,-62.571C-10.876,-62.782 -11.027,-63.179 -11.18,-64.093C-11.332,-65.006 -11.273,-65.708 -11.24,-66.073C-11.211,-66.439 -10.997,-67.078 -10.997,-67.414C-10.997,-67.749 -10.905,-68.235 -10.816,-68.601C-10.722,-68.968 -10.997,-69.181 -10.905,-69.365C-10.816,-69.546 -10.876,-69.699 -10.967,-70.003C-11.059,-70.308 -10.844,-70.43 -10.844,-70.43C-10.844,-70.43 -10.905,-70.583 -10.967,-70.917C-11.027,-71.252 -10.997,-71.678 -10.905,-71.953C-10.816,-72.226 -10.174,-72.44 -8.957,-72.714C-7.736,-72.988 -6.429,-72.806 -6.245,-72.776C-6.063,-72.746 -6.183,-72.44 -5.545,-72.317C-4.902,-72.196 -3.717,-72.411 -3.625,-72.501C-3.535,-72.593 -3.26,-72.593 -1.219,-72.349C0.822,-72.104 1.829,-71.405 2.07,-71.101C2.314,-70.795 2.314,-70.398 2.225,-69.972C2.133,-69.546 1.767,-69.516 1.767,-69.516C1.767,-69.516 1.705,-69.333 1.31,-68.998C0.912,-68.663 0.121,-68.878 -0.854,-68.754C-1.83,-68.633 -2.742,-68.054 -2.742,-68.054C-2.742,-68.054 -3.139,-67.611 -3.183,-67.521C-3.229,-67.429 -3.154,-67.292 -3.063,-67.184C-2.971,-67.078 -2.894,-66.942 -2.894,-66.606C-2.894,-66.272 -2.635,-64.703 -2.559,-64.215C-2.481,-63.727 -2.635,-62.86 -2.529,-62.326C-2.422,-61.793 -2.3,-61.2 -2.361,-60.499C-2.422,-59.798 -2.422,-58.701 -2.361,-58.291C-2.3,-57.879 -2.193,-57.177 -2.3,-56.768C-2.408,-56.356 -2.346,-55.305 -2.772,-53.782C-3.199,-52.259 -3.808,-51.252 -3.885,-51.025C-3.961,-50.797 -3.822,-49.883 -3.762,-49.624C-3.701,-49.364 -3.473,-48.846 -3.488,-48.345C-3.504,-47.842 -3.746,-46.09 -3.838,-45.313C-3.93,-44.538 -3.609,-43.318 -3.609,-42.725C-3.609,-42.131 -3.368,-41.201 -3.397,-40.819C-3.426,-40.439 -3.368,-38.459 -3.352,-37.667C-3.336,-36.875 -3.58,-35.977 -3.548,-35.704C-3.518,-35.428 -3.609,-34.971 -3.701,-34.834C-3.794,-34.697 -3.838,-34.483 -3.73,-34.316C-3.625,-34.147 -3.885,-33.951 -3.794,-33.814C-3.701,-33.676 -3.687,-33.478 -3.746,-33.235C-3.808,-32.992 -3.564,-32.519 -3.426,-31.954C-3.289,-31.393 -3.32,-30.615 -3.443,-30.174C-3.564,-29.73 -3.762,-29.138 -3.838,-28.481C-3.914,-27.828 -4.129,-27.553 -4.326,-27.203C-4.447,-26.988 -4.596,-26.906 -4.73,-26.817C-4.686,-26.708 -4.633,-26.585 -4.569,-26.442C-4.326,-25.893 -4.326,-25.436 -4.387,-25.314C-4.448,-25.194 -4.811,-25.222 -4.811,-25.222L-4.811,-24.675C-4.811,-24.675 -4.661,-24.675 -4.539,-24.554C-4.418,-24.431 -4.478,-23.882 -4.602,-23.669C-4.721,-23.457 -4.721,-22.999 -4.629,-22.544C-4.59,-22.334 -4.664,-22.082 -4.763,-21.849C-4.736,-21.693 -4.717,-21.556 -4.721,-21.493C-4.736,-21.309 -4.859,-21.127 -4.92,-21.02C-4.981,-20.912 -4.859,-20.987 -4.707,-20.837C-4.553,-20.683 -4.707,-20.532 -4.89,-20.35C-5.071,-20.166 -5.012,-19.572 -5.193,-19.328C-5.377,-19.085 -5.406,-18.719 -5.545,-18.339C-5.684,-17.958 -5.713,-17.531 -5.684,-17.241C-5.65,-16.952 -5.638,-16.009 -5.728,-15.688C-5.818,-15.368 -5.592,-15.201 -5.621,-15.049C-5.65,-14.896 -5.467,-14.638 -5.332,-13.845C-5.193,-13.054 -5.163,-12.078 -5.163,-12.078C-5.163,-12.078 -5.104,-12.398 -4.981,-12.626C-4.859,-12.854 -4.661,-13.16 -4.266,-13.358C-3.868,-13.557 -3.701,-13.8 -3.518,-13.89C-3.336,-13.983 -2.939,-14.135 -2.712,-14.362C-2.481,-14.592 -1.949,-14.807 -0.975,-15.14C0,-15.476 0.486,-15.597 1.05,-15.643C1.615,-15.688 2.27,-15.294 2.573,-15.079C2.879,-14.866 2.771,-14.532 2.938,-14.333C3.107,-14.135 3.305,-13.587 3.259,-13.16C3.214,-12.733 3.457,-11.773 3.396,-11.529C3.336,-11.287 3.336,-11.013 3.336,-10.782C3.336,-10.556 3.319,-9.657 3.259,-9.382C3.199,-9.108 2.894,-8.545 2.817,-8.301C2.742,-8.058 2.649,-7.921 2.543,-7.751C2.436,-7.586 2.451,-7.372 2.422,-7.205C2.391,-7.038 2.284,-6.322 2.147,-5.985C2.012,-5.651 1.795,-5.589 1.705,-5.513C1.615,-5.438 1.736,-5.255 1.767,-4.95C1.795,-4.646 1.705,-4.417 1.523,-4.28C1.342,-4.143 1.355,-3.746 1.173,-3.671C0.991,-3.594 0.991,-2.925 1.05,-2.606C1.111,-2.286 1.066,-2.223 1.066,-2.223C1.066,-2.223 1.721,-1.615 1.98,-1.326C2.239,-1.036 2.345,-0.838 2.314,-0.655C2.284,-0.472 2.254,0.197 2.254,0.411C2.254,0.625 2.086,0.959 2.086,0.959C2.086,0.959 2.178,0.974 2.254,0.974C2.33,0.974 2.514,0.807 2.605,0.807C2.695,0.807 2.879,0.882 2.984,0.882C3.092,0.882 3.185,0.959 3.185,0.959L3.443,1.006C3.701,1.05 4.006,1.006 4.006,1.006L4.311,1.006C4.509,1.006 4.629,1.158 4.676,1.187C4.721,1.218 4.904,1.34 4.98,1.37C5.059,1.401 5.392,1.874 5.422,2.863C5.453,3.853 4.781,4.722 4.721,4.722" style="fill-rule:nonzero;"></path> </g> <g transform="matrix(0.466655,0,0,0.466655,-135.376,-364.582)"> <g transform="matrix(32.2067,0,0,32.2067,327.75,842.404)"> <path d="M0.354,-0.701C0.396,-0.701 0.433,-0.692 0.465,-0.675C0.497,-0.658 0.522,-0.633 0.54,-0.602C0.557,-0.57 0.566,-0.533 0.566,-0.492C0.566,-0.451 0.557,-0.415 0.539,-0.384C0.521,-0.353 0.496,-0.329 0.463,-0.312C0.43,-0.295 0.391,-0.286 0.348,-0.286L0.188,-0.286C0.185,-0.286 0.183,-0.284 0.183,-0.281L0.183,-0.012C0.183,-0.009 0.182,-0.006 0.18,-0.004C0.177,-0.001 0.174,0 0.171,0L0.079,0C0.076,0 0.073,-0.001 0.071,-0.004C0.068,-0.006 0.067,-0.009 0.067,-0.012L0.067,-0.689C0.067,-0.692 0.068,-0.695 0.071,-0.698C0.073,-0.7 0.076,-0.701 0.079,-0.701L0.354,-0.701ZM0.337,-0.38C0.371,-0.38 0.398,-0.39 0.419,-0.41C0.44,-0.43 0.45,-0.456 0.45,-0.489C0.45,-0.522 0.44,-0.549 0.419,-0.57C0.398,-0.591 0.371,-0.601 0.337,-0.601L0.188,-0.601C0.185,-0.601 0.183,-0.599 0.183,-0.596L0.183,-0.385C0.183,-0.382 0.185,-0.38 0.188,-0.38L0.337,-0.38Z" style="fill-rule:nonzero;"></path> </g> <g transform="matrix(32.2067,0,0,32.2067,346.108,842.404)"> <path d="M0.493,-0.313C0.496,-0.296 0.497,-0.278 0.497,-0.257L0.496,-0.226C0.496,-0.218 0.492,-0.214 0.484,-0.214L0.171,-0.214C0.168,-0.214 0.166,-0.212 0.166,-0.209C0.168,-0.187 0.171,-0.172 0.175,-0.164C0.191,-0.116 0.23,-0.092 0.292,-0.091C0.337,-0.091 0.373,-0.11 0.4,-0.147C0.403,-0.151 0.406,-0.153 0.41,-0.153C0.413,-0.153 0.415,-0.152 0.417,-0.15L0.479,-0.099C0.485,-0.094 0.486,-0.089 0.482,-0.083C0.461,-0.054 0.434,-0.031 0.4,-0.015C0.365,0.001 0.327,0.009 0.285,0.009C0.233,0.009 0.189,-0.003 0.153,-0.026C0.116,-0.049 0.09,-0.082 0.073,-0.124C0.058,-0.16 0.05,-0.21 0.05,-0.274C0.05,-0.313 0.054,-0.344 0.062,-0.368C0.075,-0.415 0.1,-0.452 0.138,-0.479C0.175,-0.506 0.219,-0.519 0.271,-0.519C0.402,-0.519 0.476,-0.45 0.493,-0.313ZM0.271,-0.419C0.246,-0.419 0.226,-0.413 0.21,-0.401C0.193,-0.388 0.182,-0.371 0.175,-0.349C0.171,-0.338 0.168,-0.323 0.167,-0.305C0.166,-0.302 0.167,-0.3 0.171,-0.3L0.374,-0.3C0.377,-0.3 0.379,-0.302 0.379,-0.305C0.378,-0.322 0.376,-0.334 0.373,-0.343C0.367,-0.367 0.355,-0.386 0.338,-0.399C0.32,-0.412 0.298,-0.419 0.271,-0.419Z" style="fill-rule:nonzero;"></path> </g> <g transform="matrix(32.2067,0,0,32.2067,362.726,842.404)"> <path d="M0.3,-0.517C0.321,-0.517 0.34,-0.513 0.356,-0.504C0.361,-0.501 0.363,-0.496 0.362,-0.489L0.345,-0.399C0.344,-0.391 0.34,-0.389 0.331,-0.392C0.321,-0.395 0.309,-0.397 0.296,-0.397C0.287,-0.397 0.281,-0.397 0.276,-0.396C0.248,-0.395 0.225,-0.385 0.206,-0.367C0.187,-0.348 0.178,-0.324 0.178,-0.295L0.178,-0.012C0.178,-0.009 0.177,-0.006 0.175,-0.004C0.172,-0.001 0.169,0 0.166,0L0.074,0C0.071,0 0.068,-0.001 0.066,-0.004C0.063,-0.006 0.062,-0.009 0.062,-0.012L0.062,-0.499C0.062,-0.502 0.063,-0.505 0.066,-0.508C0.068,-0.51 0.071,-0.511 0.074,-0.511L0.166,-0.511C0.169,-0.511 0.172,-0.51 0.175,-0.508C0.177,-0.505 0.178,-0.502 0.178,-0.499L0.178,-0.454C0.178,-0.451 0.179,-0.45 0.18,-0.45C0.181,-0.449 0.182,-0.45 0.183,-0.452C0.211,-0.495 0.25,-0.517 0.3,-0.517Z" style="fill-rule:nonzero;"></path> </g> <g transform="matrix(32.2067,0,0,32.2067,374.031,842.404)"> <path d="M0.609,-0.519C0.66,-0.519 0.701,-0.503 0.73,-0.473C0.759,-0.442 0.773,-0.398 0.773,-0.343L0.773,-0.012C0.773,-0.009 0.772,-0.006 0.77,-0.004C0.767,-0.001 0.764,0 0.761,0L0.67,0C0.667,0 0.664,-0.001 0.662,-0.004C0.659,-0.006 0.658,-0.009 0.658,-0.012L0.658,-0.319C0.658,-0.35 0.65,-0.374 0.634,-0.392C0.617,-0.41 0.595,-0.419 0.568,-0.419C0.541,-0.419 0.518,-0.41 0.501,-0.392C0.484,-0.374 0.475,-0.35 0.475,-0.32L0.475,-0.012C0.475,-0.009 0.474,-0.006 0.472,-0.004C0.469,-0.001 0.466,0 0.463,0L0.372,0C0.369,0 0.366,-0.001 0.364,-0.004C0.361,-0.006 0.36,-0.009 0.36,-0.012L0.36,-0.319C0.36,-0.35 0.352,-0.374 0.335,-0.392C0.318,-0.41 0.296,-0.419 0.269,-0.419C0.244,-0.419 0.223,-0.412 0.207,-0.397C0.19,-0.382 0.181,-0.362 0.178,-0.337L0.178,-0.012C0.178,-0.009 0.177,-0.006 0.175,-0.004C0.172,-0.001 0.169,0 0.166,0L0.074,0C0.071,0 0.068,-0.001 0.066,-0.004C0.063,-0.006 0.062,-0.009 0.062,-0.012L0.062,-0.499C0.062,-0.502 0.063,-0.505 0.066,-0.508C0.068,-0.51 0.071,-0.511 0.074,-0.511L0.166,-0.511C0.169,-0.511 0.172,-0.51 0.175,-0.508C0.177,-0.505 0.178,-0.502 0.178,-0.499L0.178,-0.466C0.178,-0.464 0.179,-0.463 0.18,-0.462C0.181,-0.461 0.183,-0.462 0.184,-0.464C0.199,-0.483 0.217,-0.497 0.239,-0.506C0.26,-0.515 0.284,-0.519 0.311,-0.519C0.344,-0.519 0.372,-0.512 0.397,-0.499C0.422,-0.486 0.441,-0.466 0.454,-0.441C0.456,-0.438 0.458,-0.438 0.461,-0.441C0.476,-0.468 0.496,-0.487 0.522,-0.5C0.548,-0.513 0.577,-0.519 0.609,-0.519Z" style="fill-rule:nonzero;"></path> </g> <g transform="matrix(32.2067,0,0,32.2067,399.925,842.404)"> <path d="M0.257,-0.519C0.299,-0.519 0.336,-0.512 0.368,-0.497C0.4,-0.482 0.425,-0.462 0.442,-0.437C0.459,-0.411 0.468,-0.382 0.468,-0.349L0.468,-0.012C0.468,-0.009 0.467,-0.006 0.465,-0.004C0.462,-0.001 0.459,0 0.456,0L0.364,0C0.361,0 0.358,-0.001 0.356,-0.004C0.353,-0.006 0.352,-0.009 0.352,-0.012L0.352,-0.044C0.352,-0.046 0.351,-0.047 0.35,-0.048C0.349,-0.048 0.347,-0.047 0.346,-0.046C0.313,-0.01 0.266,0.008 0.204,0.008C0.154,0.008 0.113,-0.005 0.081,-0.03C0.048,-0.055 0.032,-0.093 0.032,-0.143C0.032,-0.195 0.05,-0.236 0.087,-0.265C0.123,-0.294 0.174,-0.308 0.24,-0.308L0.347,-0.308C0.35,-0.308 0.352,-0.31 0.352,-0.313L0.352,-0.337C0.352,-0.363 0.344,-0.383 0.329,-0.398C0.314,-0.412 0.291,-0.419 0.26,-0.419C0.235,-0.419 0.214,-0.415 0.199,-0.406C0.183,-0.397 0.173,-0.384 0.169,-0.368C0.167,-0.36 0.162,-0.357 0.155,-0.358L0.058,-0.37C0.055,-0.371 0.052,-0.372 0.05,-0.374C0.047,-0.375 0.046,-0.377 0.047,-0.38C0.052,-0.421 0.074,-0.454 0.113,-0.48C0.151,-0.506 0.199,-0.519 0.257,-0.519ZM0.233,-0.084C0.266,-0.084 0.294,-0.093 0.317,-0.11C0.34,-0.127 0.352,-0.149 0.352,-0.176L0.352,-0.223C0.352,-0.226 0.35,-0.228 0.347,-0.228L0.263,-0.228C0.228,-0.228 0.2,-0.221 0.18,-0.208C0.159,-0.195 0.149,-0.176 0.149,-0.151C0.149,-0.13 0.157,-0.113 0.173,-0.102C0.188,-0.09 0.208,-0.084 0.233,-0.084Z" style="fill-rule:nonzero;"></path> </g> <g transform="matrix(32.2067,0,0,32.2067,415.932,842.404)"> <path d="M0.307,-0.519C0.361,-0.519 0.404,-0.503 0.437,-0.471C0.469,-0.439 0.485,-0.395 0.485,-0.34L0.485,-0.012C0.485,-0.009 0.484,-0.006 0.482,-0.004C0.479,-0.001 0.476,0 0.473,0L0.381,0C0.378,0 0.375,-0.001 0.373,-0.004C0.37,-0.006 0.369,-0.009 0.369,-0.012L0.369,-0.316C0.369,-0.347 0.36,-0.372 0.343,-0.391C0.326,-0.409 0.303,-0.419 0.274,-0.419C0.245,-0.419 0.222,-0.41 0.205,-0.391C0.187,-0.372 0.178,-0.348 0.178,-0.317L0.178,-0.012C0.178,-0.009 0.177,-0.006 0.175,-0.004C0.172,-0.001 0.169,0 0.166,0L0.074,0C0.071,0 0.068,-0.001 0.066,-0.004C0.063,-0.006 0.062,-0.009 0.062,-0.012L0.062,-0.499C0.062,-0.502 0.063,-0.505 0.066,-0.508C0.068,-0.51 0.071,-0.511 0.074,-0.511L0.166,-0.511C0.169,-0.511 0.172,-0.51 0.175,-0.508C0.177,-0.505 0.178,-0.502 0.178,-0.499L0.178,-0.467C0.178,-0.465 0.179,-0.464 0.18,-0.463C0.181,-0.462 0.182,-0.463 0.183,-0.465C0.21,-0.501 0.252,-0.519 0.307,-0.519Z" style="fill-rule:nonzero;"></path> </g> <g transform="matrix(32.2067,0,0,32.2067,432.647,842.404)"> <path d="M0.493,-0.313C0.496,-0.296 0.497,-0.278 0.497,-0.257L0.496,-0.226C0.496,-0.218 0.492,-0.214 0.484,-0.214L0.171,-0.214C0.168,-0.214 0.166,-0.212 0.166,-0.209C0.168,-0.187 0.171,-0.172 0.175,-0.164C0.191,-0.116 0.23,-0.092 0.292,-0.091C0.337,-0.091 0.373,-0.11 0.4,-0.147C0.403,-0.151 0.406,-0.153 0.41,-0.153C0.413,-0.153 0.415,-0.152 0.417,-0.15L0.479,-0.099C0.485,-0.094 0.486,-0.089 0.482,-0.083C0.461,-0.054 0.434,-0.031 0.4,-0.015C0.365,0.001 0.327,0.009 0.285,0.009C0.233,0.009 0.189,-0.003 0.153,-0.026C0.116,-0.049 0.09,-0.082 0.073,-0.124C0.058,-0.16 0.05,-0.21 0.05,-0.274C0.05,-0.313 0.054,-0.344 0.062,-0.368C0.075,-0.415 0.1,-0.452 0.138,-0.479C0.175,-0.506 0.219,-0.519 0.271,-0.519C0.402,-0.519 0.476,-0.45 0.493,-0.313ZM0.271,-0.419C0.246,-0.419 0.226,-0.413 0.21,-0.401C0.193,-0.388 0.182,-0.371 0.175,-0.349C0.171,-0.338 0.168,-0.323 0.167,-0.305C0.166,-0.302 0.167,-0.3 0.171,-0.3L0.374,-0.3C0.377,-0.3 0.379,-0.302 0.379,-0.305C0.378,-0.322 0.376,-0.334 0.373,-0.343C0.367,-0.367 0.355,-0.386 0.338,-0.399C0.32,-0.412 0.298,-0.419 0.271,-0.419Z" style="fill-rule:nonzero;"></path> </g> <g transform="matrix(32.2067,0,0,32.2067,449.265,842.404)"> <path d="M0.307,-0.519C0.361,-0.519 0.404,-0.503 0.437,-0.471C0.469,-0.439 0.485,-0.395 0.485,-0.34L0.485,-0.012C0.485,-0.009 0.484,-0.006 0.482,-0.004C0.479,-0.001 0.476,0 0.473,0L0.381,0C0.378,0 0.375,-0.001 0.373,-0.004C0.37,-0.006 0.369,-0.009 0.369,-0.012L0.369,-0.316C0.369,-0.347 0.36,-0.372 0.343,-0.391C0.326,-0.409 0.303,-0.419 0.274,-0.419C0.245,-0.419 0.222,-0.41 0.205,-0.391C0.187,-0.372 0.178,-0.348 0.178,-0.317L0.178,-0.012C0.178,-0.009 0.177,-0.006 0.175,-0.004C0.172,-0.001 0.169,0 0.166,0L0.074,0C0.071,0 0.068,-0.001 0.066,-0.004C0.063,-0.006 0.062,-0.009 0.062,-0.012L0.062,-0.499C0.062,-0.502 0.063,-0.505 0.066,-0.508C0.068,-0.51 0.071,-0.511 0.074,-0.511L0.166,-0.511C0.169,-0.511 0.172,-0.51 0.175,-0.508C0.177,-0.505 0.178,-0.502 0.178,-0.499L0.178,-0.467C0.178,-0.465 0.179,-0.464 0.18,-0.463C0.181,-0.462 0.182,-0.463 0.183,-0.465C0.21,-0.501 0.252,-0.519 0.307,-0.519Z" style="fill-rule:nonzero;"></path> </g> <g transform="matrix(32.2067,0,0,32.2067,465.981,842.404)"> <path d="M0.333,-0.429C0.333,-0.426 0.332,-0.423 0.33,-0.421C0.327,-0.418 0.324,-0.417 0.321,-0.417L0.219,-0.417C0.216,-0.417 0.214,-0.415 0.214,-0.412L0.214,-0.171C0.214,-0.146 0.22,-0.127 0.231,-0.116C0.242,-0.105 0.259,-0.099 0.283,-0.099L0.313,-0.099C0.316,-0.099 0.319,-0.098 0.322,-0.096C0.324,-0.093 0.325,-0.09 0.325,-0.087L0.325,-0.012C0.325,-0.005 0.321,0 0.313,0.001L0.261,0.002C0.208,0.002 0.169,-0.007 0.143,-0.025C0.117,-0.043 0.104,-0.077 0.103,-0.127L0.103,-0.412C0.103,-0.415 0.101,-0.417 0.098,-0.417L0.041,-0.417C0.038,-0.417 0.035,-0.418 0.033,-0.421C0.03,-0.423 0.029,-0.426 0.029,-0.429L0.029,-0.499C0.029,-0.502 0.03,-0.505 0.033,-0.508C0.035,-0.51 0.038,-0.511 0.041,-0.511L0.098,-0.511C0.101,-0.511 0.103,-0.513 0.103,-0.516L0.103,-0.633C0.103,-0.636 0.104,-0.639 0.107,-0.642C0.109,-0.644 0.112,-0.645 0.115,-0.645L0.202,-0.645C0.205,-0.645 0.208,-0.644 0.211,-0.642C0.213,-0.639 0.214,-0.636 0.214,-0.633L0.214,-0.516C0.214,-0.513 0.216,-0.511 0.219,-0.511L0.321,-0.511C0.324,-0.511 0.327,-0.51 0.33,-0.508C0.332,-0.505 0.333,-0.502 0.333,-0.499L0.333,-0.429Z" style="fill-rule:nonzero;"></path> </g> <g transform="matrix(32.2067,0,0,32.2067,482.857,842.404)"> <path d="M0.533,-0.7C0.536,-0.7 0.539,-0.699 0.542,-0.697C0.544,-0.694 0.545,-0.691 0.545,-0.688L0.545,-0.611C0.545,-0.608 0.544,-0.605 0.542,-0.603C0.539,-0.6 0.536,-0.599 0.533,-0.599L0.349,-0.599C0.346,-0.599 0.344,-0.597 0.344,-0.594L0.344,-0.012C0.344,-0.009 0.343,-0.006 0.341,-0.004C0.338,-0.001 0.335,0 0.332,0L0.24,0C0.237,0 0.234,-0.001 0.232,-0.004C0.229,-0.006 0.228,-0.009 0.228,-0.012L0.228,-0.594C0.228,-0.597 0.226,-0.599 0.223,-0.599L0.046,-0.599C0.043,-0.599 0.04,-0.6 0.038,-0.603C0.035,-0.605 0.034,-0.608 0.034,-0.611L0.034,-0.688C0.034,-0.691 0.035,-0.694 0.038,-0.697C0.04,-0.699 0.043,-0.7 0.046,-0.7L0.533,-0.7Z" style="fill-rule:nonzero;"></path> </g> <g transform="matrix(32.2067,0,0,32.2067,500.7,842.404)"> <path d="M0.279,0.008C0.226,0.008 0.181,-0.005 0.144,-0.032C0.106,-0.059 0.079,-0.096 0.064,-0.143C0.053,-0.179 0.047,-0.217 0.047,-0.257C0.047,-0.3 0.052,-0.338 0.063,-0.371C0.078,-0.418 0.105,-0.454 0.143,-0.48C0.181,-0.506 0.227,-0.519 0.28,-0.519C0.331,-0.519 0.375,-0.506 0.412,-0.48C0.449,-0.454 0.475,-0.418 0.49,-0.372C0.502,-0.34 0.508,-0.302 0.508,-0.258C0.508,-0.216 0.502,-0.178 0.491,-0.144C0.476,-0.097 0.449,-0.059 0.412,-0.033C0.375,-0.006 0.33,0.008 0.279,0.008ZM0.279,-0.092C0.304,-0.092 0.325,-0.099 0.343,-0.113C0.36,-0.127 0.373,-0.147 0.381,-0.172C0.388,-0.194 0.391,-0.222 0.391,-0.256C0.391,-0.292 0.388,-0.32 0.381,-0.34C0.374,-0.365 0.361,-0.385 0.343,-0.399C0.325,-0.412 0.303,-0.419 0.277,-0.419C0.252,-0.419 0.231,-0.412 0.213,-0.399C0.195,-0.385 0.182,-0.365 0.174,-0.34C0.167,-0.317 0.164,-0.289 0.164,-0.256C0.164,-0.223 0.167,-0.195 0.174,-0.172C0.181,-0.147 0.194,-0.127 0.213,-0.113C0.231,-0.099 0.253,-0.092 0.279,-0.092Z" style="fill-rule:nonzero;"></path> </g> <g transform="matrix(32.2067,0,0,32.2067,517.801,842.404)"> <path d="M0.364,-0.499C0.364,-0.502 0.365,-0.505 0.368,-0.508C0.37,-0.51 0.373,-0.511 0.376,-0.511L0.467,-0.511C0.47,-0.511 0.473,-0.51 0.476,-0.508C0.478,-0.505 0.479,-0.502 0.479,-0.499L0.479,-0.012C0.479,-0.009 0.478,-0.006 0.476,-0.004C0.473,-0.001 0.47,0 0.467,0L0.376,0C0.373,0 0.37,-0.001 0.368,-0.004C0.365,-0.006 0.364,-0.009 0.364,-0.012L0.364,-0.044C0.364,-0.046 0.363,-0.047 0.362,-0.048C0.361,-0.049 0.359,-0.048 0.358,-0.046C0.331,-0.011 0.29,0.007 0.235,0.007C0.184,0.007 0.142,-0.008 0.108,-0.037C0.073,-0.066 0.056,-0.108 0.056,-0.162L0.056,-0.499C0.056,-0.502 0.057,-0.505 0.06,-0.508C0.062,-0.51 0.065,-0.511 0.068,-0.511L0.16,-0.511C0.163,-0.511 0.166,-0.51 0.169,-0.508C0.171,-0.505 0.172,-0.502 0.172,-0.499L0.172,-0.195C0.172,-0.164 0.18,-0.139 0.197,-0.12C0.213,-0.101 0.236,-0.092 0.265,-0.092C0.295,-0.092 0.319,-0.101 0.337,-0.12C0.355,-0.139 0.364,-0.164 0.364,-0.195L0.364,-0.499Z" style="fill-rule:nonzero;"></path> </g> <g transform="matrix(32.2067,0,0,32.2067,534.42,842.404)"> <path d="M0.3,-0.517C0.321,-0.517 0.34,-0.513 0.356,-0.504C0.361,-0.501 0.363,-0.496 0.362,-0.489L0.345,-0.399C0.344,-0.391 0.34,-0.389 0.331,-0.392C0.321,-0.395 0.309,-0.397 0.296,-0.397C0.287,-0.397 0.281,-0.397 0.276,-0.396C0.248,-0.395 0.225,-0.385 0.206,-0.367C0.187,-0.348 0.178,-0.324 0.178,-0.295L0.178,-0.012C0.178,-0.009 0.177,-0.006 0.175,-0.004C0.172,-0.001 0.169,0 0.166,0L0.074,0C0.071,0 0.068,-0.001 0.066,-0.004C0.063,-0.006 0.062,-0.009 0.062,-0.012L0.062,-0.499C0.062,-0.502 0.063,-0.505 0.066,-0.508C0.068,-0.51 0.071,-0.511 0.074,-0.511L0.166,-0.511C0.169,-0.511 0.172,-0.51 0.175,-0.508C0.177,-0.505 0.178,-0.502 0.178,-0.499L0.178,-0.454C0.178,-0.451 0.179,-0.45 0.18,-0.45C0.181,-0.449 0.182,-0.45 0.183,-0.452C0.211,-0.495 0.25,-0.517 0.3,-0.517Z" style="fill-rule:nonzero;"></path> </g> <g transform="matrix(32.2067,0,0,32.2067,545.724,842.404)"> <path d="M0.128,-0.581C0.107,-0.581 0.09,-0.588 0.077,-0.601C0.064,-0.614 0.057,-0.631 0.057,-0.652C0.057,-0.673 0.064,-0.69 0.077,-0.703C0.09,-0.716 0.107,-0.723 0.128,-0.723C0.149,-0.723 0.166,-0.716 0.179,-0.703C0.192,-0.69 0.199,-0.673 0.199,-0.652C0.199,-0.631 0.192,-0.614 0.179,-0.601C0.166,-0.588 0.149,-0.581 0.128,-0.581ZM0.08,0C0.077,0 0.074,-0.001 0.072,-0.004C0.069,-0.006 0.068,-0.009 0.068,-0.012L0.068,-0.5C0.068,-0.503 0.069,-0.506 0.072,-0.509C0.074,-0.511 0.077,-0.512 0.08,-0.512L0.172,-0.512C0.175,-0.512 0.178,-0.511 0.181,-0.509C0.183,-0.506 0.184,-0.503 0.184,-0.5L0.184,-0.012C0.184,-0.009 0.183,-0.006 0.181,-0.004C0.178,-0.001 0.175,0 0.172,0L0.08,0Z" style="fill-rule:nonzero;"></path> </g> <g transform="matrix(32.2067,0,0,32.2067,553.132,842.404)"> <path d="M0.252,0.006C0.21,0.006 0.173,0 0.142,-0.013C0.11,-0.025 0.085,-0.042 0.068,-0.064C0.051,-0.085 0.042,-0.109 0.042,-0.136L0.042,-0.145C0.042,-0.148 0.043,-0.151 0.046,-0.154C0.048,-0.156 0.051,-0.157 0.054,-0.157L0.142,-0.157C0.145,-0.157 0.148,-0.156 0.151,-0.154C0.153,-0.151 0.154,-0.148 0.154,-0.145L0.154,-0.143C0.154,-0.126 0.163,-0.112 0.182,-0.1C0.2,-0.087 0.223,-0.081 0.251,-0.081C0.278,-0.081 0.299,-0.087 0.316,-0.098C0.333,-0.109 0.341,-0.122 0.341,-0.139C0.341,-0.154 0.334,-0.166 0.321,-0.174C0.307,-0.181 0.285,-0.189 0.254,-0.198L0.216,-0.21C0.182,-0.22 0.153,-0.231 0.13,-0.242C0.107,-0.253 0.087,-0.269 0.071,-0.289C0.055,-0.308 0.047,-0.333 0.047,-0.364C0.047,-0.411 0.065,-0.448 0.102,-0.476C0.139,-0.503 0.187,-0.517 0.247,-0.517C0.288,-0.517 0.323,-0.511 0.354,-0.498C0.385,-0.485 0.408,-0.467 0.425,-0.444C0.442,-0.421 0.45,-0.394 0.45,-0.365C0.45,-0.362 0.449,-0.359 0.447,-0.357C0.444,-0.354 0.441,-0.353 0.438,-0.353L0.353,-0.353C0.35,-0.353 0.347,-0.354 0.345,-0.357C0.342,-0.359 0.341,-0.362 0.341,-0.365C0.341,-0.382 0.333,-0.397 0.316,-0.409C0.299,-0.42 0.275,-0.426 0.246,-0.426C0.22,-0.426 0.199,-0.421 0.183,-0.412C0.166,-0.402 0.158,-0.388 0.158,-0.371C0.158,-0.355 0.166,-0.343 0.182,-0.335C0.197,-0.326 0.223,-0.317 0.26,-0.307L0.282,-0.301C0.317,-0.29 0.347,-0.28 0.371,-0.269C0.395,-0.258 0.415,-0.242 0.432,-0.223C0.449,-0.203 0.457,-0.177 0.457,-0.146C0.457,-0.099 0.438,-0.062 0.401,-0.035C0.364,-0.008 0.314,0.006 0.252,0.006Z" style="fill-rule:nonzero;"></path> </g> <g transform="matrix(32.2067,0,0,32.2067,568.205,842.404)"> <path d="M0.333,-0.429C0.333,-0.426 0.332,-0.423 0.33,-0.421C0.327,-0.418 0.324,-0.417 0.321,-0.417L0.219,-0.417C0.216,-0.417 0.214,-0.415 0.214,-0.412L0.214,-0.171C0.214,-0.146 0.22,-0.127 0.231,-0.116C0.242,-0.105 0.259,-0.099 0.283,-0.099L0.313,-0.099C0.316,-0.099 0.319,-0.098 0.322,-0.096C0.324,-0.093 0.325,-0.09 0.325,-0.087L0.325,-0.012C0.325,-0.005 0.321,0 0.313,0.001L0.261,0.002C0.208,0.002 0.169,-0.007 0.143,-0.025C0.117,-0.043 0.104,-0.077 0.103,-0.127L0.103,-0.412C0.103,-0.415 0.101,-0.417 0.098,-0.417L0.041,-0.417C0.038,-0.417 0.035,-0.418 0.033,-0.421C0.03,-0.423 0.029,-0.426 0.029,-0.429L0.029,-0.499C0.029,-0.502 0.03,-0.505 0.033,-0.508C0.035,-0.51 0.038,-0.511 0.041,-0.511L0.098,-0.511C0.101,-0.511 0.103,-0.513 0.103,-0.516L0.103,-0.633C0.103,-0.636 0.104,-0.639 0.107,-0.642C0.109,-0.644 0.112,-0.645 0.115,-0.645L0.202,-0.645C0.205,-0.645 0.208,-0.644 0.211,-0.642C0.213,-0.639 0.214,-0.636 0.214,-0.633L0.214,-0.516C0.214,-0.513 0.216,-0.511 0.219,-0.511L0.321,-0.511C0.324,-0.511 0.327,-0.51 0.33,-0.508C0.332,-0.505 0.333,-0.502 0.333,-0.499L0.333,-0.429Z" style="fill-rule:nonzero;"></path> </g> </g> </svg>
