<svg viewBox="0 0 135 38" xmlns="http://www.w3.org/2000/svg" fill-rule="evenodd" clip-rule="evenodd" stroke-linejoin="round" stroke-miterlimit="2"><path d="M13.587 4.601c-.028.014-.042.07-.077.085-.035.013-.056-.064-.077-.105a.824.824 0 00-.168-.196l-.138-.111s.215-.035.265-.03c.048.008.07.023.07.023s.054.035.069.062c.014.028.09.09.125.16.036.07-.04.098-.07.112m-.558.245c-.035 0-.055-.042-.083-.063-.029-.02.013-.12.013-.12s.077.085.098.106c.022.02.042.077.042.077h-.07zm-.197.49c-.032.042-.141.137-.19.247-.046.11-.061.35-.061.35s-.116.062-.178.193c-.064.132-.121.215-.169.241-.046.027-.052.137.012.242.062.104.157.167.14.245-.015.079-.051.174 0 .226.053.052.084.052.084.125 0 .074.006.116.049.13l.04.018s-.089.077-.052.172c.037.094.058.084.058.126 0 .042-.01.089-.01.089s-.058-.105-.095-.189c-.037-.083-.093-.12-.115-.22-.021-.1-.063-.22-.174-.293-.11-.073-.046-.158-.15-.204-.104-.047-.068-.137-.173-.225-.105-.09-.058-.158-.162-.193-.106-.038-.168-.08-.168-.143 0-.063-.016-.125-.052-.152-.038-.026-.19-.036-.284-.13-.094-.095-.14-.1-.282-.12-.141-.022-.205-.01-.24-.033l-.037-.02s.182-.094.215-.22c.03-.125.062-.147.025-.2-.036-.052-.062-.078-.042-.099.022-.02.037-.02.037-.02s.346-.027.402-.027c.06 0 .06.016.164.005.105-.01.493-.046.55-.057.057-.01.155-.089.214-.24.058-.153.053-.279.053-.279s.061.006.094.011c.032.006.046.006.046.006s.048.177.032.198c-.016.02-.032.079-.057.079-.027 0-.048.01-.048.01v.069h.377s.042.068.063.083c.02.016-.027.079 0 .089.026.011.063.016.063.016s.052.052.021.094m-.681-1.094l.026.146.037-.004.032.115.03.015-.004.047c-.006.047-.026.062-.026.062l-.005-.015a.385.385 0 00-.08-.11c-.036-.031-.032-.089-.032-.125 0-.037-.004-.131-.004-.131h.026zm-5.87.105c-.114.01-.189.125-.24.198-.053.074-.095.074-.231.063a4.511 4.511 0 00-.534 0c-.126.011-.262.011-.262.011l-.094-.262c.042-.042.22-.251.408-.43.188-.177.493-.272.64-.293.146-.021.156.032.146.095-.011.063-.095.209-.042.24a1.4 1.4 0 01.095.063s-.022-.038-.01-.067a.045.045 0 01.03-.027h.006l.021-.02.005.03c.03.03.033.135.042.168a.087.087 0 00.012.024.45.45 0 00.071.082s.052.114-.062.125m9.47-1.91c-.028 0-.111-.028-.111-.028s-.063-.063-.12-.07c-.055-.006-.146.042-.146.042h-.154c-.077 0-.14.05-.14.05l-.383-.007c-.042 0-.154.09-.154.09l-.028.007c-.028.007-.014.041-.014.041l-.041.008s-.015-.042-.119-.035a.704.704 0 00-.182.035s-.056.02-.097.048c-.043.028-.091.02-.182 0s-.328 0-.364 0c-.034 0-.062.05-.062.05s-.056-.03-.098-.014c-.041.013-.028.034-.028.034s-.286-.013-.335 0c-.048.014-.083.035-.083.035s-.175-.007-.225 0c-.047.008-.125.07-.193.07-.07 0-.183-.077-.288-.034-.105.04-.181.16-.181.16l-.077.007v-.238l.042-.013c.02-.008 0-.134-.022-.238-.02-.104-.083-.09-.173-.132-.092-.042-.113-.14-.245-.155-.132-.013-.538.029-.567.029-.026 0-.02.063-.02.063l-.083.007c-.084.006-.223 0-.223 0l-.007-.035c-.008-.035-.099-.014-.133.006-.035.022-.07.12-.07.12s.028-.057-.098-.21-.154-.322-.154-.322l.07-.07c.07-.069.14-.208.07-.334-.07-.126-.055-.322-.125-.364-.07-.041-.042-.167-.098-.279-.056-.111-.377-.21-.56-.293-.18-.083-.613-.405-1.088-.46-.475-.057-.908.223-1.075.236-.168.015-.531.196-.712.42-.182.223-.447.712-.462.81-.013.097-.25.39-.293.488-.041.098-.055.475-.097.573-.041.098.014.461.14.656.071.112.118.208.147.287-.422-.106-.851.095-1.055.3-.21.209-.35.32-.474.348-.127.029-.251.377-.308.391-.056.015-.181-.042-.293-.042-.112 0-.39-.097-.516-.14-.127-.04-.154.043-.154.043l-.057-.015c-.055-.013-.223.043-.348-.027-.126-.07-.181.084-.419.042s-.39.558-.446.558c-.057 0-.266.126-.364.126-.097 0-.335.14-.404.35-.07.208-.225.683-.266.795-.042.111 0 .293-.042.433s-.097.447-.056.488c.042.042.223-.056.223-.056s.014.112-.013.224c-.03.112-.14.154-.113.265.028.113.224.237.35.253.125.013.042.055.042.124 0 .07-.07.168-.196.336-.126.167-.126.293-.181.349-.056.056-.405.153-.475.195-.07.042-.112.238-.195.6-.085.364-.238.56-.308.56s-.014.041.085.153a.441.441 0 00.265.126l-.014.041c-.014.043-.042.237-.014.322.028.083.042.278 0 .334-.043.057-.167.197-.127.238.043.042.113.14.113.21 0 .07-.014.125-.14.293-.126.167-.112.502-.083.642.028.14.055.656.055.656s-.14 0-.14.042.238.461.238.642c0 .183 0 .573.014.7.013.124-.294.348-.294.431 0 .083.392.252.392.252v.126c0 .126.111.711.139.964.028.25-.028.25-.084.39-.055.14 0 .14.098.153.097.014.14.098.167.322.029.223.363.419.531.502.167.084.558.21.558.21s-.07.237-.153.419c-.084.18-.349.531-.349.67 0 .14.181.432.21.517.028.083.055.098.152.083.1-.013.085.14.14.14.057 0 .07.069.112.181.042.112.14.14.238.169.097.027.14.152.14.152s-.015.112-.015.195c0 .085.084.336.224.63.14.292.167.516.224.557.055.043.097-.222.097-.278 0-.056-.21-.447-.252-.573-.042-.126-.055-.446-.055-.446s.153.167.237.237c.084.07.041.419.168.517.125.097.28.711.376 1.158.098.447.126 1.132.224 1.69s.056 1.425.112 1.425.251-.405.264-.462c.015-.055 0-.307-.04-.516-.044-.21-.154-1.131-.251-1.815-.099-.684-.196-1.23-.252-1.341-.057-.111-.21-.363-.238-.545-.029-.18-.195-.334-.195-.334s.46.321.865.418c.333.08.68.225.826.275a1.32 1.32 0 01-.056.251l-.141.187c-.14.181-.559.852-.602.893-.04.041.057.057.14.057.085 0 .196-.168.35-.42.04-.067.1-.158.166-.257a3.092 3.092 0 00-.013.44c.015.209-.055 1.241.014 1.814.07.572.21.992.21.992s-.056.181-.126.418c-.07.238-.279.712-.39.991-.113.28-.07.615-.028.727.04.111.056.195-.07.377-.126.18-.196.67-.21 1.019-.014.349-.167.991-.153 1.284.014.294-.097.769-.097 1.146 0 .377-.057 1.69-.14 1.871-.085.18-.056.837 0 1.312.055.474-.029.851-.014.936.014.083.027.307.027.377s.085.097.085.097l-.043.07c-.042.07.028.154 0 .21-.027.056 0 .265.014.391.014.125.084.182.321.265.238.084.908.126 1.13.097.225-.027.49-.334.49-.432 0-.097.055-.182.14-.21.083-.027.279-.027.433-.082.153-.057.348-.114.6-.238a.753.753 0 00.377-.42c.028-.083.041-.223.041-.404 0-.183-.125-.224-.125-.224s-.013-.041-.097-.168c-.084-.125-.182-.084-.182-.084s.028-.083.041-.208c.015-.126.015-.308-.04-.419-.056-.113.055-.238.124-.476.07-.237.042-.363.057-.572.013-.21.14-.712.111-1.201-.028-.488-.182-.907-.195-.963-.015-.057.042-.824.153-1.047.112-.224.195-1.076.153-1.215-.041-.14.057-.405.029-.56-.029-.152.14-.46.153-.683.015-.223.14-.475.14-.544 0-.07.097-.364.182-.53.083-.169.07-.392.14-.644.069-.25.083-.628.153-1.005.07-.377.363-1.088.363-1.088s.07.097.042.194c-.028.099.041.28.098.462.055.181-.029.516-.015.74.015.223.127.823.224 1.089.098.265-.028.559-.097.684-.07.125-.03.363-.057.516-.028.153.28 1.118.334 1.34.057.224-.097.685-.027.867.071.18.056.419-.013.628-.07.209-.028.586-.014.768.014.182-.084.265-.099.39-.013.127.056.085.071.196.014.112-.195 1.145-.224 1.285-.028.14.098 1.047.126 1.145.027.097-.042.28-.112.698-.07.419-.042.74-.027.908.013.167.111.46.111.614 0 .154.042.377.083.544.043.169-.083.266-.04.35.04.084.012.154-.03.293-.041.14.057.196.057.196s-.028.07-.056.223c-.028.154-.014.349.028.475.041.125.335.223.893.349.56.125 1.159.042 1.243.028.084-.014.029-.154.321-.21.295-.056.838.043.88.084.041.042.167.042 1.103-.07.936-.112 1.397-.432 1.508-.572.111-.14.111-.322.07-.517-.041-.195-.21-.21-.21-.21s-.028-.083-.209-.237c-.182-.153-.545-.055-.992-.111-.447-.056-.865-.321-.865-.321s-.182-.203-.202-.245c-.021-.042.013-.105.055-.154s.077-.111.077-.265c0-.153.119-.872.154-1.096.036-.224-.035-.621.014-.866.049-.244.105-.516.077-.837-.028-.322-.028-.825 0-1.012.028-.19.077-.511.028-.699-.05-.188-.022-.67-.217-1.368-.196-.698-.475-1.16-.51-1.264-.035-.105.029-.524.056-.642.028-.12.133-.357.126-.587-.007-.23-.118-1.033-.16-1.39-.043-.355.105-.914.105-1.186 0-.272.11-.698.097-.873-.014-.174.013-1.082.02-1.445.008-.363-.104-.775-.09-.9.014-.126-.027-.336-.07-.399-.042-.062-.062-.16-.013-.237.048-.078-.071-.167-.03-.23.043-.063.05-.154.023-.266-.029-.111.083-.328.146-.587a1.872 1.872 0 00-.007-.816c-.056-.203-.147-.475-.181-.776-.035-.299-.134-.425-.224-.586-.056-.098-.124-.136-.185-.176a5.1 5.1 0 01.073-.172c.112-.252.112-.461.084-.517-.028-.055-.194-.043-.194-.043v-.25s.068 0 .124-.056c.056-.056.028-.308-.029-.405-.054-.098-.054-.308-.012-.516.018-.096-.016-.212-.061-.319a.95.95 0 00.019-.163c-.007-.084-.063-.168-.091-.217-.028-.05.028-.015.097-.084.07-.07 0-.14-.084-.223-.083-.084-.056-.356-.139-.468-.084-.112-.097-.28-.16-.454a1.212 1.212 0 01-.065-.503c.016-.132.021-.565-.02-.712-.041-.146.063-.223.05-.293-.014-.07.07-.188.132-.552.063-.362.077-.81.077-.81s.027.147.084.252a.748.748 0 00.327.335c.183.091.26.203.343.244.084.043.266.112.37.216.106.106.35.204.796.357.447.154.67.21.928.23.26.021.56-.16.698-.258.14-.098.091-.25.168-.342a.859.859 0 00.147-.538c-.021-.195.09-.635.062-.747-.027-.111-.027-.237-.027-.343 0-.103-.008-.515-.035-.641-.028-.126-.168-.384-.203-.496-.034-.111-.077-.174-.126-.252-.049-.076-.042-.174-.055-.25-.014-.077-.063-.405-.126-.56-.062-.152-.161-.18-.203-.216-.04-.034.015-.118.029-.258.013-.14-.029-.244-.112-.307s-.077-.245-.16-.279c-.084-.035-.084-.342-.057-.488.028-.147.007-.176.007-.176s.3-.278.42-.41c.118-.134.167-.225.152-.309a5.496 5.496 0 01-.027-.488c0-.098-.077-.251-.077-.251s.042-.007.077-.007c.035 0 .12.076.16.076.042 0 .126-.034.175-.034.05 0 .092-.035.092-.035l.118-.022c.118-.02.258 0 .258 0h.14c.09 0 .146-.07.167-.083.02-.014.105-.07.14-.084.036-.014.188-.23.202-.684.014-.454-.294-.852-.321-.852M22.89 17.994c.632 0 1.188.136 1.669.391.48.256.857.631 1.127 1.097.256.481.39 1.037.39 1.654 0 .616-.134 1.157-.405 1.623-.27.466-.646.826-1.142 1.082-.496.255-1.082.39-1.729.39h-2.404c-.045 0-.075.03-.075.076v4.043a.17.17 0 01-.046.12.184.184 0 01-.135.06h-1.382a.137.137 0 01-.12-.06.137.137 0 01-.06-.12V18.175c0-.045.014-.09.06-.135a.17.17 0 01.12-.046h4.133zm-.255 4.825c.511 0 .917-.15 1.233-.451.315-.3.465-.691.465-1.187 0-.496-.15-.902-.465-1.218-.316-.315-.722-.466-1.233-.466h-2.24c-.044 0-.074.03-.074.076v3.17c0 .046.03.076.075.076h2.24zM33.547 23.826c.045.255.06.526.06.841l-.015.466c0 .12-.06.18-.18.18h-4.705c-.045 0-.075.03-.075.076.03.33.075.556.135.676.24.722.827 1.082 1.759 1.097.676 0 1.217-.285 1.623-.841.045-.06.09-.09.15-.09.045 0 .075.015.105.045l.932.766c.09.075.105.15.045.24a3.157 3.157 0 01-1.232 1.023c-.526.24-1.097.36-1.729.36-.781 0-1.442-.18-1.983-.526-.557-.345-.947-.841-1.203-1.473-.225-.54-.346-1.292-.346-2.254 0-.586.06-1.052.18-1.413.196-.706.572-1.262 1.143-1.668.556-.406 1.217-.601 1.999-.601 1.969 0 3.081 1.037 3.337 3.096zm-3.337-1.593c-.376 0-.676.09-.917.27-.255.196-.42.451-.526.782-.06.165-.105.39-.12.661-.015.045 0 .075.06.075h3.051c.045 0 .075-.03.075-.075a2.26 2.26 0 00-.09-.571c-.09-.36-.27-.646-.526-.842-.27-.195-.601-.3-1.007-.3zM38.4 20.76c.316 0 .602.06.842.195.076.045.106.12.09.226l-.255 1.352c-.015.12-.075.15-.21.106a1.85 1.85 0 00-.526-.076c-.136 0-.226 0-.301.015-.42.015-.766.166-1.052.436-.286.286-.42.647-.42 1.082v4.254a.17.17 0 01-.046.12.184.184 0 01-.135.06h-1.383a.137.137 0 01-.12-.06.137.137 0 01-.06-.12v-7.32c0-.045.015-.09.06-.135a.17.17 0 01.12-.045h1.383c.045 0 .09.015.135.045.03.045.045.09.045.135v.677c0 .045.015.06.03.06.015.015.03 0 .045-.03.421-.647 1.007-.977 1.759-.977zM48.32 20.73c.767 0 1.383.24 1.819.691.436.466.646 1.127.646 1.954v4.975a.17.17 0 01-.045.12.184.184 0 01-.135.06h-1.368a.137.137 0 01-.12-.06.137.137 0 01-.06-.12v-4.614c0-.466-.12-.827-.36-1.097-.256-.271-.587-.406-.993-.406s-.751.135-1.007.406c-.255.27-.39.63-.39 1.082v4.629a.17.17 0 01-.046.12.184.184 0 01-.135.06h-1.368a.137.137 0 01-.12-.06.137.137 0 01-.06-.12v-4.614c0-.466-.12-.827-.376-1.097-.255-.271-.586-.406-.992-.406-.375 0-.691.105-.931.33-.256.226-.391.526-.436.902v4.885a.17.17 0 01-.045.12.184.184 0 01-.136.06H40.28a.137.137 0 01-.12-.06.137.137 0 01-.06-.12v-7.32c0-.045.014-.09.06-.135a.17.17 0 01.12-.045h1.382c.045 0 .09.015.136.045.03.045.045.09.045.135v.496c0 .03.015.045.03.06s.045 0 .06-.03c.225-.285.496-.496.826-.63.316-.136.677-.196 1.083-.196.496 0 .916.105 1.292.3a2 2 0 01.857.872c.03.045.06.045.105 0 .225-.406.526-.691.917-.887a2.88 2.88 0 011.307-.285zM55.114 20.73c.63 0 1.187.105 1.668.33.48.226.857.526 1.112.902.256.39.39.827.39 1.323v5.065a.17.17 0 01-.044.12.184.184 0 01-.136.06h-1.382a.137.137 0 01-.12-.06.137.137 0 01-.06-.12v-.481c0-.03-.016-.045-.03-.06a.114.114 0 00-.06.03c-.497.54-1.203.811-2.135.811-.751 0-1.368-.195-1.849-.57-.496-.377-.736-.948-.736-1.7 0-.78.27-1.397.827-1.833.54-.436 1.307-.646 2.3-.646h1.607c.045 0 .075-.03.075-.075v-.36c0-.392-.12-.692-.345-.918-.226-.21-.571-.315-1.037-.315-.376 0-.692.06-.917.195a.892.892 0 00-.451.571c-.03.12-.105.166-.21.15l-1.458-.18c-.045-.015-.09-.03-.12-.06-.046-.015-.06-.045-.046-.09.076-.616.406-1.112.992-1.503.571-.39 1.293-.586 2.165-.586zm-.361 6.538c.496 0 .917-.136 1.262-.391.346-.256.526-.586.526-.992v-.707c0-.045-.03-.075-.075-.075h-1.262c-.526 0-.947.106-1.248.3-.315.196-.466.482-.466.858 0 .315.12.57.361.736.226.18.526.27.902.27zM63.335 20.73c.811 0 1.458.24 1.954.721.48.481.721 1.142.721 1.969v4.93a.17.17 0 01-.045.12.184.184 0 01-.135.06h-1.383a.137.137 0 01-.12-.06.137.137 0 01-.06-.12v-4.57c0-.465-.136-.84-.391-1.126-.256-.271-.601-.421-1.037-.421-.436 0-.782.135-1.037.42-.27.286-.406.647-.406 1.113v4.584a.17.17 0 01-.045.12.184.184 0 01-.135.06h-1.383a.137.137 0 01-.12-.06.137.137 0 01-.06-.12v-7.32c0-.045.015-.09.06-.135a.17.17 0 01.12-.045h1.383c.045 0 .09.015.135.045.03.045.045.09.045.135v.481c0 .03.015.045.03.06s.03 0 .045-.03c.406-.54 1.037-.811 1.864-.811zM73.93 23.826c.045.255.06.526.06.841l-.015.466c0 .12-.06.18-.18.18h-4.704c-.045 0-.075.03-.075.076.03.33.075.556.135.676.24.722.827 1.082 1.758 1.097.677 0 1.218-.285 1.624-.841.045-.06.09-.09.15-.09.045 0 .075.015.105.045l.932.766c.09.075.105.15.045.24a3.157 3.157 0 01-1.232 1.023c-.526.24-1.097.36-1.729.36-.781 0-1.443-.18-1.984-.526-.556-.345-.946-.841-1.202-1.473-.225-.54-.346-1.292-.346-2.254 0-.586.06-1.052.18-1.413.196-.706.572-1.262 1.143-1.668.556-.406 1.217-.601 1.999-.601 1.969 0 3.08 1.037 3.336 3.096zm-3.336-1.593c-.376 0-.676.09-.917.27-.255.196-.42.451-.526.782-.06.165-.105.39-.12.661-.015.045 0 .075.06.075h3.05c.046 0 .076-.03.076-.075a2.26 2.26 0 00-.09-.571c-.09-.36-.27-.646-.526-.842-.27-.195-.601-.3-1.007-.3zM78.89 20.73c.811 0 1.458.24 1.954.721.48.481.721 1.142.721 1.969v4.93a.17.17 0 01-.045.12.184.184 0 01-.135.06h-1.383a.137.137 0 01-.12-.06.137.137 0 01-.06-.12v-4.57c0-.465-.136-.84-.391-1.126-.256-.271-.601-.421-1.037-.421-.436 0-.782.135-1.037.42-.27.286-.406.647-.406 1.113v4.584a.17.17 0 01-.045.12.184.184 0 01-.135.06h-1.383a.137.137 0 01-.12-.06.137.137 0 01-.06-.12v-7.32c0-.045.015-.09.06-.135a.17.17 0 01.12-.045h1.383c.045 0 .09.015.135.045.03.045.045.09.045.135v.481c0 .03.015.045.03.06s.03 0 .045-.03c.406-.54 1.037-.811 1.864-.811zM87.081 22.082a.17.17 0 01-.045.12.184.184 0 01-.135.06h-1.533c-.045 0-.075.03-.075.076v3.622c0 .376.09.661.255.827.165.165.421.255.782.255h.45c.046 0 .09.015.136.045.03.045.045.09.045.135v1.128c0 .105-.06.18-.18.195l-.782.015c-.797 0-1.383-.135-1.773-.406-.391-.27-.587-.781-.602-1.533v-4.283c0-.045-.03-.075-.075-.075h-.856a.137.137 0 01-.12-.06.137.137 0 01-.06-.12V21.03c0-.045.014-.09.06-.135a.17.17 0 01.12-.045h.856c.045 0 .075-.03.075-.075v-1.759c0-.045.015-.09.06-.135a.17.17 0 01.12-.045h1.308c.045 0 .09.015.136.045.03.045.045.09.045.135v1.759c0 .045.03.075.075.075H86.9c.045 0 .09.015.135.045.03.045.045.09.045.135v1.052zM97.962 18.01c.045 0 .09.014.136.045.03.045.045.09.045.135v1.157a.17.17 0 01-.045.12.184.184 0 01-.136.06h-2.765c-.045 0-.075.03-.075.076v8.747a.17.17 0 01-.045.12.184.184 0 01-.136.06H93.56a.137.137 0 01-.12-.06.137.137 0 01-.06-.12v-8.747c0-.046-.03-.076-.076-.076h-2.66a.137.137 0 01-.12-.06.137.137 0 01-.06-.12V18.19c0-.045.015-.09.06-.135a.17.17 0 01.12-.046h7.32zM102.471 28.65c-.796 0-1.473-.195-2.029-.6a3.175 3.175 0 01-1.202-1.67 5.834 5.834 0 01-.255-1.713c0-.646.075-1.217.24-1.713a3.044 3.044 0 011.202-1.638c.571-.39 1.263-.586 2.06-.586.766 0 1.427.195 1.983.586.556.39.947.932 1.173 1.623.18.481.27 1.052.27 1.713 0 .632-.09 1.203-.255 1.714-.226.706-.632 1.277-1.188 1.668-.556.406-1.232.616-1.999.616zm0-1.503c.376 0 .692-.105.962-.315.256-.21.451-.511.571-.887.106-.33.15-.751.15-1.262 0-.542-.044-.962-.15-1.263a1.664 1.664 0 00-.57-.887c-.271-.195-.602-.3-.993-.3-.375 0-.691.105-.962.3-.27.21-.465.511-.586.887-.105.346-.15.767-.15 1.263 0 .495.045.916.15 1.262.105.376.3.676.586.887.271.21.602.315.992.315zM111.73 21.03c0-.045.014-.09.06-.135a.17.17 0 01.12-.045h1.367c.045 0 .09.015.135.045.03.045.046.09.046.135v7.32a.17.17 0 01-.046.12.184.184 0 01-.135.06h-1.368a.137.137 0 01-.12-.06.137.137 0 01-.06-.12v-.481c0-.03-.015-.045-.03-.06s-.045 0-.06.03c-.406.526-1.022.796-1.849.796-.766 0-1.397-.225-1.908-.661-.526-.436-.782-1.067-.782-1.879V21.03c0-.045.015-.09.06-.135a.17.17 0 01.12-.045h1.383c.045 0 .09.015.135.045.03.045.045.09.045.135v4.57c0 .465.12.84.376 1.127.24.285.586.42 1.022.42.451 0 .812-.135 1.082-.42.27-.286.406-.662.406-1.128V21.03zM118.523 20.76c.315 0 .6.06.841.195.075.045.105.12.09.226l-.255 1.352c-.015.12-.075.15-.21.106a1.85 1.85 0 00-.527-.076c-.135 0-.225 0-.3.015-.42.015-.767.166-1.052.436-.286.286-.421.647-.421 1.082v4.254a.17.17 0 01-.045.12.184.184 0 01-.135.06h-1.383a.137.137 0 01-.12-.06.137.137 0 01-.06-.12v-7.32c0-.045.015-.09.06-.135a.17.17 0 01.12-.045h1.383c.045 0 .09.015.135.045.03.045.045.09.045.135v.677c0 .045.015.06.03.06.015.015.03 0 .045-.03.421-.647 1.007-.977 1.759-.977zM121.213 19.798c-.316 0-.572-.105-.767-.3-.195-.196-.3-.452-.3-.767 0-.316.105-.571.3-.767.195-.195.451-.3.767-.3.315 0 .57.105.766.3.195.196.3.451.3.767 0 .315-.105.571-.3.766-.195.196-.45.3-.766.3zm-.722 8.732a.137.137 0 01-.12-.06.137.137 0 01-.06-.12v-7.335c0-.045.015-.09.06-.135a.17.17 0 01.12-.045h1.383c.045 0 .09.015.135.045.03.045.045.09.045.135v7.335a.17.17 0 01-.045.12.184.184 0 01-.135.06h-1.383zM126.533 28.62c-.631 0-1.187-.09-1.653-.285-.481-.18-.857-.436-1.112-.767a1.68 1.68 0 01-.391-1.082v-.135c0-.045.015-.09.06-.135a.17.17 0 01.12-.046h1.323c.045 0 .09.015.135.046.03.045.045.09.045.135v.03c0 .255.136.466.421.646.27.195.616.286 1.037.286.406 0 .722-.09.977-.256.256-.165.376-.36.376-.616a.593.593 0 00-.3-.526c-.211-.105-.542-.226-1.008-.36l-.57-.181a8.792 8.792 0 01-1.293-.481 2.532 2.532 0 01-.887-.706c-.24-.286-.36-.662-.36-1.128 0-.706.27-1.262.826-1.683.556-.406 1.277-.616 2.18-.616.615 0 1.141.09 1.607.285.466.196.812.466 1.067.812.256.346.376.751.376 1.187a.17.17 0 01-.045.12.184.184 0 01-.135.06h-1.278a.137.137 0 01-.12-.06.137.137 0 01-.06-.12c0-.255-.12-.48-.376-.661-.255-.165-.616-.255-1.052-.255-.39 0-.706.075-.947.21-.255.15-.376.36-.376.616 0 .24.12.42.361.541.226.135.616.27 1.172.421l.331.09c.526.166.977.316 1.338.481.36.165.661.406.917.691.255.301.375.692.375 1.158 0 .706-.285 1.262-.841 1.668-.556.406-1.308.616-2.24.616zM134.785 22.082a.17.17 0 01-.046.12.184.184 0 01-.135.06h-1.533c-.045 0-.075.03-.075.076v3.622c0 .376.09.661.255.827.166.165.421.255.782.255h.45c.046 0 .091.015.136.045.03.045.045.09.045.135v1.128c0 .105-.06.18-.18.195l-.782.015c-.796 0-1.382-.135-1.773-.406-.39-.27-.586-.781-.601-1.533v-4.283c0-.045-.03-.075-.075-.075h-.857a.137.137 0 01-.12-.06.137.137 0 01-.06-.12V21.03c0-.045.015-.09.06-.135a.17.17 0 01.12-.045h.857c.045 0 .075-.03.075-.075v-1.759c0-.045.015-.09.06-.135a.17.17 0 01.12-.045h1.308c.045 0 .09.015.135.045.03.045.045.09.045.135v1.759c0 .045.03.075.075.075h1.533c.045 0 .09.015.135.045.03.045.046.09.046.135v1.052z" fill-rule="nonzero"/></svg>