<svg viewBox="0 0 135 38" xmlns="http://www.w3.org/2000/svg" xml:space="preserve" style="fill-rule:evenodd;clip-rule:evenodd;stroke-linejoin:round;stroke-miterlimit:2"><path d="M0 0c-.06-.03-.092-.153-.168-.184-.076-.03-.121.138-.167.229a1.797 1.797 0 0 1-.366.426c-.137.108-.303.243-.303.243s.47.077.578.064C-.32.761-.273.73-.273.73s.119-.077.151-.135c.03-.063.197-.199.274-.35C.229.092.062.031 0 0m-1.219-.534c-.076 0-.121.092-.181.137-.063.046.029.261.029.261s.168-.185.213-.23a.591.591 0 0 0 .092-.168h-.153Zm-.429-1.07c-.07-.09-.309-.297-.414-.537-.101-.239-.135-.765-.135-.765s-.252-.135-.388-.421c-.14-.287-.264-.468-.368-.526-.101-.057-.114-.298.025-.527.136-.226.343-.364.308-.535-.034-.172-.114-.379 0-.492.114-.114.182-.114.182-.274 0-.16.012-.252.106-.285l.088-.037s-.194-.169-.113-.376c.08-.205.125-.182.125-.274 0-.092-.022-.194-.022-.194s-.126.228-.207.411c-.08.182-.203.264-.251.481-.046.217-.137.479-.378.639-.239.16-.101.344-.33.445-.226.103-.147.299-.376.491-.229.196-.126.344-.354.422-.23.082-.366.172-.366.311 0 .137-.034.273-.113.331-.082.057-.413.079-.619.285-.206.206-.308.216-.616.262-.308.046-.447.022-.525.07l-.08.045s.399.205.469.48c.066.273.136.32.056.434-.079.115-.136.172-.092.217.048.045.08.045.08.045s.755.058.878.058c.129 0 .129-.034.357-.011.229.022 1.075.101 1.2.125.124.023.339.194.467.525.126.332.115.606.115.606s.134-.013.205-.024c.07-.011.101-.011.101-.011s.104-.388.07-.434c-.035-.044-.07-.171-.125-.171-.059 0-.104-.023-.104-.023v-.149h.823s.09-.149.137-.182c.045-.034-.058-.172 0-.194.057-.024.137-.034.137-.034s.114-.115.047-.207M-3.135.784l.058-.319.079.01.07-.251.067-.033-.01-.104c-.012-.102-.057-.135-.057-.135l-.011.033a.84.84 0 0 1-.172.239c-.08.069-.071.195-.071.275 0 .08-.009.285-.009.285h.056ZM-15.939.555c-.25-.023-.413-.274-.527-.433-.114-.161-.206-.161-.503-.137a9.842 9.842 0 0 1-1.165 0c-.273-.024-.57-.024-.57-.024l-.206.571c.092.093.48.549.89.937.411.388 1.075.596 1.395.641.32.047.342-.069.32-.207-.024-.137-.207-.456-.091-.525.113-.068.207-.137.207-.137s-.048.084-.022.148c.01.023.027.046.066.058h.012a.884.884 0 0 1 .047.045l.01-.065c.067-.068.072-.297.092-.368a.19.19 0 0 1 .027-.053c.051-.085.154-.178.154-.178s.114-.249-.136-.273m20.66 4.167c-.061 0-.242.06-.242.06s-.138.137-.26.152c-.121.015-.321-.09-.321-.09h-.334a.552.552 0 0 1-.305-.108s-.745.015-.837.015c-.092 0-.336-.196-.336-.196l-.062-.017c-.06-.015-.029-.09-.029-.09l-.091-.016s-.032.091-.258.076c-.23-.014-.398-.076-.398-.076s-.121-.045-.212-.106c-.093-.061-.198-.045-.396 0-.199.046-.716 0-.794 0-.075 0-.135-.107-.135-.107s-.123.062-.214.03c-.091-.03-.061-.076-.061-.076s-.624.029-.731 0c-.105-.03-.182-.076-.182-.076s-.382.015-.49 0c-.103-.016-.273-.154-.422-.154-.154 0-.398.169-.627.077-.229-.09-.396-.35-.396-.35l-.168-.015v.518l.092.029c.045.017 0 .292-.047.52-.045.227-.182.197-.379.288-.199.092-.245.306-.534.337-.288.029-1.173-.062-1.236-.062-.058 0-.044-.137-.044-.137l-.182-.016c-.182-.014-.486 0-.486 0l-.016.077c-.017.076-.215.03-.289-.015-.077-.046-.153-.26-.153-.26s.061.123-.213.459c-.276.333-.336.7-.336.7l.152.153c.153.15.306.455.153.73-.153.274-.121.701-.273.793-.153.09-.092.365-.213.608-.123.243-.824.457-1.221.641-.395.18-1.338.882-2.375 1.004-1.036.122-1.982-.487-2.345-.517-.366-.032-1.159-.427-1.554-.915-.396-.486-.975-1.554-1.007-1.766-.03-.214-.547-.853-.639-1.066-.091-.214-.12-1.036-.213-1.25-.09-.213.032-1.006.305-1.431.156-.244.259-.454.322-.626-.921.231-1.857-.208-2.301-.653-.458-.458-.763-.701-1.035-.762-.277-.062-.548-.822-.672-.853-.122-.031-.396.092-.639.092-.245 0-.851.212-1.127.304-.275.089-.335-.092-.335-.092l-.124.032c-.12.029-.487-.092-.759.06-.275.151-.396-.183-.914-.092-.519.092-.853-1.218-.974-1.218-.123 0-.581-.274-.793-.274-.213 0-.732-.305-.883-.762-.153-.456-.489-1.492-.58-1.736-.092-.243 0-.64-.092-.944-.091-.305-.211-.976-.121-1.066.092-.091.486.122.486.122s.031-.244-.029-.488c-.063-.245-.304-.336-.246-.578.062-.246.49-.518.763-.551.274-.03.092-.121.092-.272 0-.154-.153-.366-.426-.733-.275-.363-.275-.638-.396-.761-.123-.122-.883-.334-1.037-.426-.151-.091-.243-.519-.425-1.31-.185-.792-.519-1.219-.672-1.219-.151 0-.03-.091.185-.334.213-.244.578-.275.578-.275l-.029-.09c-.032-.093-.092-.518-.032-.702.061-.182.092-.608 0-.73-.092-.123-.364-.429-.275-.518.093-.092.245-.306.245-.457 0-.153-.03-.275-.306-.641-.273-.364-.244-1.096-.181-1.401.061-.304.121-1.431.121-1.431s-.306 0-.306-.092c0-.091.52-1.005.52-1.4 0-.398 0-1.25.03-1.525.029-.273-.641-.76-.641-.943 0-.181.854-.548.854-.548v-.275c0-.275.244-1.553.304-2.103.062-.548-.06-.548-.182-.852-.122-.304 0-.304.212-.334.213-.031.305-.214.365-.701.063-.488.793-.914 1.159-1.097.365-.182 1.218-.456 1.218-.456s-.152-.518-.334-.915c-.184-.395-.762-1.159-.762-1.461 0-.305.395-.944.456-1.128.062-.183.122-.214.334-.183.216.03.186-.304.306-.304.123 0 .153-.151.244-.396.092-.243.305-.306.519-.367.212-.06.303-.333.303-.333s-.031-.244-.031-.426c0-.185.184-.732.489-1.372.305-.639.365-1.128.488-1.217.121-.093.213.484.213.607s-.458.976-.55 1.25c-.092.274-.121.974-.121.974s.335-.366.518-.519c.182-.152.09-.913.365-1.127.274-.212.61-1.552.822-2.527.214-.975.275-2.469.489-3.686.212-1.218.121-3.108.244-3.108.121 0 .547.883.576 1.006.033.121 0 .67-.09 1.126-.093.458-.333 2.469-.546 3.961-.215 1.492-.427 2.681-.549 2.925-.124.243-.457.791-.52 1.188-.062.395-.426.73-.426.73s1.005-.701 1.888-.913c.726-.176 1.484-.49 1.802-.599a2.879 2.879 0 0 0-.122-.549c-.099-.133-.208-.275-.308-.406-.305-.396-1.219-1.859-1.312-1.949-.09-.09.123-.124.306-.124.184 0 .427.367.762.915.088.146.218.346.362.561a6.746 6.746 0 0 1-.028-.958c.032-.457-.121-2.709.031-3.959.153-1.248.457-2.163.457-2.163s-.121-.397-.274-.914c-.152-.518-.609-1.553-.852-2.162-.245-.61-.153-1.34-.061-1.585.09-.243.122-.426-.153-.822-.273-.395-.427-1.462-.457-2.223-.031-.762-.365-2.163-.333-2.802.029-.641-.213-1.677-.213-2.499 0-.823-.123-3.686-.306-4.083-.184-.394-.121-1.826 0-2.862.122-1.035-.062-1.857-.03-2.041.03-.183.06-.671.06-.823 0-.152.184-.212.184-.212l-.092-.154c-.092-.152.061-.335 0-.458-.06-.12 0-.576.029-.852.032-.272.183-.396.701-.578.518-.183 1.98-.274 2.467-.212.488.06 1.067.729 1.067.943a.47.47 0 0 0 .304.458c.183.06.61.06.946.179.333.125.76.248 1.309.52.548.274.761.732.822.914.061.182.091.488.091.883 0 .398-.273.488-.273.488s-.029.091-.213.366c-.183.274-.396.184-.396.184s.06.182.089.455c.032.274.032.672-.089.913-.121.246.121.519.273 1.038.152.517.092.792.123 1.248.029.458.305 1.554.243 2.621-.061 1.065-.397 1.979-.426 2.101-.032.123.091 1.797.334 2.284.244.488.425 2.346.335 2.65-.091.305.123.884.062 1.22-.062.334.304 1.006.335 1.491.031.488.305 1.038.305 1.188 0 .153.212.793.396 1.158.182.366.152.853.305 1.402.151.548.183 1.37.334 2.194.152.821.792 2.374.792 2.374s.153-.212.092-.424c-.06-.216.09-.611.213-1.007.122-.397-.062-1.126-.031-1.614.031-.487.276-1.796.489-2.377.213-.578-.062-1.219-.213-1.493-.153-.273-.063-.791-.125-1.125-.059-.335.611-2.439.73-2.925.125-.487-.211-1.493-.059-1.89.155-.393.122-.913-.029-1.37-.153-.456-.06-1.279-.031-1.675.031-.397-.182-.578-.214-.853-.029-.275.122-.183.154-.426.031-.244-.426-2.498-.489-2.803-.06-.305.214-2.284.276-2.499.059-.211-.092-.608-.245-1.522a7.464 7.464 0 0 1-.06-1.98c.029-.366.243-1.005.243-1.341 0-.335.092-.821.181-1.187.094-.367-.181-.58-.089-.764.089-.181.029-.334-.062-.638-.092-.305.123-.427.123-.427s-.061-.153-.123-.487c-.06-.335-.03-.761.062-1.036.089-.273.731-.487 1.948-.761 1.221-.274 2.528-.092 2.712-.062.182.03.062.336.7.459.643.121 1.828-.094 1.92-.184.09-.092.365-.092 2.406.152 2.041.245 3.048.944 3.289 1.248.244.306.244.703.155 1.129a.544.544 0 0 1-.458.456s-.062.183-.457.518c-.398.335-1.189.12-2.164.244-.976.121-1.888.7-1.888.7s-.397.443-.441.533c-.046.092.029.229.12.337.092.106.169.242.169.578 0 .334.259 1.903.335 2.391.078.488-.076 1.355.03 1.889.107.533.229 1.126.168 1.827-.061.701-.061 1.798 0 2.208.061.412.168 1.114.061 1.523-.108.412-.046 1.463-.472 2.986-.427 1.523-1.036 2.53-1.113 2.757-.076.228.063 1.142.123 1.401.061.26.289.778.274 1.279-.016.503-.258 2.255-.35 3.032-.092.775.229 1.995.229 2.588 0 .594.241 1.524.212 1.906-.029.38.029 2.36.045 3.152.016.792-.228 1.69-.196 1.963.03.276-.061.733-.153.87-.093.137-.137.351-.029.518.105.169-.155.365-.064.502.093.138.107.336.048.579-.062.243.182.716.32 1.281.137.561.106 1.339-.017 1.78-.121.444-.319 1.036-.395 1.693-.076.653-.291.928-.488 1.278-.121.215-.27.297-.404.386.044.109.097.232.161.375.243.549.243 1.006.182 1.128-.061.12-.424.092-.424.092v.547s.15 0 .272.121c.121.123.061.672-.063.885-.119.212-.119.67-.027 1.125.039.21-.035.462-.134.695.027.156.046.293.042.356-.015.184-.138.366-.199.473-.061.108.061.033.213.183.154.154 0 .305-.183.487-.181.184-.122.778-.303 1.022-.184.243-.213.609-.352.989a2.645 2.645 0 0 0-.139 1.098c.034.289.046 1.232-.044 1.553-.09.32.136.487.107.639-.029.153.154.411.289 1.204.139.791.169 1.767.169 1.767s.059-.32.182-.548c.122-.228.32-.534.715-.732.398-.199.565-.442.748-.532.182-.093.579-.245.806-.472.231-.23.763-.445 1.737-.778.975-.336 1.461-.457 2.025-.503.565-.045 1.22.349 1.523.564.306.213.198.547.365.746.169.198.367.746.321 1.173-.045.427.198 1.387.137 1.631-.06.242-.06.516-.06.747 0 .226-.017 1.125-.077 1.4-.06.274-.365.837-.442 1.081-.075.243-.168.38-.274.55-.107.165-.092.379-.121.546-.031.167-.138.883-.275 1.22-.135.334-.352.396-.442.472-.09.075.031.258.062.563.028.304-.062.533-.244.67-.181.137-.168.534-.35.609-.182.077-.182.746-.123 1.065.061.32.016.383.016.383s.655.608.914.897c.259.29.365.488.334.671-.03.183-.06.852-.06 1.066 0 .214-.168.548-.168.548s.092.015.168.015c.076 0 .26-.167.351-.167.09 0 .274.075.379.075a.36.36 0 0 1 .201.077l.258.047c.258.044.563 0 .563 0h.305c.198 0 .318.152.365.181.045.031.228.153.304.183.079.031.412.504.442 1.493.031.99-.641 1.859-.701 1.859" style="fill-rule:nonzero" transform="matrix(.45838 0 0 -.45838 13.587 4.601)"/><path d="M.354-.701c.042 0 .079.009.111.026a.188.188 0 0 1 .075.073.232.232 0 0 1 .026.11.211.211 0 0 1-.027.108.182.182 0 0 1-.076.072.25.25 0 0 1-.115.026h-.16c-.003 0-.005.002-.005.005v.269a.011.011 0 0 1-.003.008A.012.012 0 0 1 .171 0H.079a.01.01 0 0 1-.008-.004.01.01 0 0 1-.004-.008v-.677c0-.003.001-.006.004-.009a.011.011 0 0 1 .008-.003h.275ZM.337-.38c.034 0 .061-.01.082-.03A.103.103 0 0 0 .45-.489.11.11 0 0 0 .419-.57a.11.11 0 0 0-.082-.031H.188c-.003 0-.005.002-.005.005v.211c0 .003.002.005.005.005h.149Z" style="fill-rule:nonzero" transform="matrix(15.02942 0 0 15.02942 17.57 28.53)"/><path d="M.493-.313a.32.32 0 0 1 .004.056l-.001.031c0 .008-.004.012-.012.012H.171c-.003 0-.005.002-.005.005a.143.143 0 0 0 .009.045c.016.048.055.072.117.073A.128.128 0 0 0 .4-.147c.003-.004.006-.006.01-.006a.01.01 0 0 1 .007.003l.062.051c.006.005.007.01.003.016A.21.21 0 0 1 .4-.015a.272.272 0 0 1-.115.024.24.24 0 0 1-.132-.035.2.2 0 0 1-.08-.098.4.4 0 0 1-.023-.15c0-.039.004-.07.012-.094a.195.195 0 0 1 .076-.111.218.218 0 0 1 .133-.04c.131 0 .205.069.222.206ZM.271-.419a.098.098 0 0 0-.061.018.1.1 0 0 0-.035.052.158.158 0 0 0-.008.044C.166-.302.167-.3.171-.3h.203c.003 0 .005-.002.005-.005a.15.15 0 0 0-.006-.038.099.099 0 0 0-.035-.056.111.111 0 0 0-.067-.02Z" style="fill-rule:nonzero" transform="matrix(15.02942 0 0 15.02942 26.137 28.53)"/><path d="M.3-.517c.021 0 .04.004.056.013.005.003.007.008.006.015l-.017.09c-.001.008-.005.01-.014.007a.123.123 0 0 0-.035-.005l-.02.001a.097.097 0 0 0-.098.101v.283a.011.011 0 0 1-.003.008A.012.012 0 0 1 .166 0H.074a.01.01 0 0 1-.008-.004.01.01 0 0 1-.004-.008v-.487c0-.003.001-.006.004-.009a.011.011 0 0 1 .008-.003h.092l.009.003a.016.016 0 0 1 .003.009v.045c0 .003.001.004.002.004.001.001.002 0 .003-.002A.133.133 0 0 1 .3-.517Z" style="fill-rule:nonzero" transform="matrix(15.02942 0 0 15.02942 33.892 28.53)"/><path d="M.609-.519c.051 0 .092.016.121.046a.184.184 0 0 1 .043.13v.331a.011.011 0 0 1-.003.008A.012.012 0 0 1 .761 0H.67a.01.01 0 0 1-.008-.004.01.01 0 0 1-.004-.008v-.307a.105.105 0 0 0-.024-.073.087.087 0 0 0-.066-.027.089.089 0 0 0-.067.027.1.1 0 0 0-.026.072v.308a.011.011 0 0 1-.003.008A.012.012 0 0 1 .463 0H.372a.01.01 0 0 1-.008-.004.01.01 0 0 1-.004-.008v-.307a.101.101 0 0 0-.025-.073.087.087 0 0 0-.066-.027.087.087 0 0 0-.062.022.09.09 0 0 0-.029.06v.325a.011.011 0 0 1-.003.008A.012.012 0 0 1 .166 0H.074a.01.01 0 0 1-.008-.004.01.01 0 0 1-.004-.008v-.487c0-.003.001-.006.004-.009a.011.011 0 0 1 .008-.003h.092l.009.003a.016.016 0 0 1 .003.009v.033l.002.004c.001.001.003 0 .004-.002a.133.133 0 0 1 .055-.042.181.181 0 0 1 .072-.013c.033 0 .061.007.086.02a.133.133 0 0 1 .057.058c.002.003.004.003.007 0A.139.139 0 0 1 .522-.5a.192.192 0 0 1 .087-.019Z" style="fill-rule:nonzero" transform="matrix(15.02942 0 0 15.02942 39.167 28.53)"/><path d="M.257-.519c.042 0 .079.007.111.022a.179.179 0 0 1 .074.06.157.157 0 0 1 .026.088v.337a.011.011 0 0 1-.003.008A.012.012 0 0 1 .456 0H.364a.01.01 0 0 1-.008-.004.01.01 0 0 1-.004-.008v-.032L.35-.048a.008.008 0 0 0-.004.002C.313-.01.266.008.204.008A.194.194 0 0 1 .081-.03C.048-.055.032-.093.032-.143c0-.052.018-.093.055-.122A.238.238 0 0 1 .24-.308h.107c.003 0 .005-.002.005-.005v-.024a.082.082 0 0 0-.023-.061C.314-.412.291-.419.26-.419a.12.12 0 0 0-.061.013.06.06 0 0 0-.03.038c-.002.008-.007.011-.014.01L.058-.37.05-.374C.047-.375.046-.377.047-.38a.137.137 0 0 1 .066-.1.25.25 0 0 1 .144-.039Zm-.024.435A.138.138 0 0 0 .317-.11a.08.08 0 0 0 .035-.066v-.047c0-.003-.002-.005-.005-.005H.263a.152.152 0 0 0-.083.02.063.063 0 0 0-.031.057c0 .021.008.038.024.049a.093.093 0 0 0 .06.018Z" style="fill-rule:nonzero" transform="matrix(15.02942 0 0 15.02942 51.251 28.53)"/><path d="M.307-.519c.054 0 .097.016.13.048a.178.178 0 0 1 .048.131v.328a.011.011 0 0 1-.003.008A.012.012 0 0 1 .473 0H.381a.01.01 0 0 1-.008-.004.01.01 0 0 1-.004-.008v-.304a.109.109 0 0 0-.026-.075.091.091 0 0 0-.069-.028.088.088 0 0 0-.069.028.102.102 0 0 0-.027.074v.305a.011.011 0 0 1-.003.008A.012.012 0 0 1 .166 0H.074a.01.01 0 0 1-.008-.004.01.01 0 0 1-.004-.008v-.487c0-.003.001-.006.004-.009a.011.011 0 0 1 .008-.003h.092l.009.003a.016.016 0 0 1 .003.009v.032l.002.004c.001.001.002 0 .003-.002.027-.036.069-.054.124-.054Z" style="fill-rule:nonzero" transform="matrix(15.02942 0 0 15.02942 58.72 28.53)"/><path d="M.493-.313a.32.32 0 0 1 .004.056l-.001.031c0 .008-.004.012-.012.012H.171c-.003 0-.005.002-.005.005a.143.143 0 0 0 .009.045c.016.048.055.072.117.073A.128.128 0 0 0 .4-.147c.003-.004.006-.006.01-.006a.01.01 0 0 1 .007.003l.062.051c.006.005.007.01.003.016A.21.21 0 0 1 .4-.015a.272.272 0 0 1-.115.024.24.24 0 0 1-.132-.035.2.2 0 0 1-.08-.098.4.4 0 0 1-.023-.15c0-.039.004-.07.012-.094a.195.195 0 0 1 .076-.111.218.218 0 0 1 .133-.04c.131 0 .205.069.222.206ZM.271-.419a.098.098 0 0 0-.061.018.1.1 0 0 0-.035.052.158.158 0 0 0-.008.044C.166-.302.167-.3.171-.3h.203c.003 0 .005-.002.005-.005a.15.15 0 0 0-.006-.038.099.099 0 0 0-.035-.056.111.111 0 0 0-.067-.02Z" style="fill-rule:nonzero" transform="matrix(15.02942 0 0 15.02942 66.52 28.53)"/><path d="M.307-.519c.054 0 .097.016.13.048a.178.178 0 0 1 .048.131v.328a.011.011 0 0 1-.003.008A.012.012 0 0 1 .473 0H.381a.01.01 0 0 1-.008-.004.01.01 0 0 1-.004-.008v-.304a.109.109 0 0 0-.026-.075.091.091 0 0 0-.069-.028.088.088 0 0 0-.069.028.102.102 0 0 0-.027.074v.305a.011.011 0 0 1-.003.008A.012.012 0 0 1 .166 0H.074a.01.01 0 0 1-.008-.004.01.01 0 0 1-.004-.008v-.487c0-.003.001-.006.004-.009a.011.011 0 0 1 .008-.003h.092l.009.003a.016.016 0 0 1 .003.009v.032l.002.004c.001.001.002 0 .003-.002.027-.036.069-.054.124-.054Z" style="fill-rule:nonzero" transform="matrix(15.02942 0 0 15.02942 74.276 28.53)"/><path d="M.333-.429a.011.011 0 0 1-.003.008.012.012 0 0 1-.009.004H.219c-.003 0-.005.002-.005.005v.241c0 .025.006.044.017.055.011.011.028.017.052.017h.03l.009.003a.016.016 0 0 1 .003.009v.075c0 .007-.004.012-.012.013L.261.002a.208.208 0 0 1-.118-.027C.117-.043.104-.077.103-.127v-.285c0-.003-.002-.005-.005-.005H.041a.01.01 0 0 1-.008-.004.01.01 0 0 1-.004-.008v-.07c0-.003.001-.006.004-.009a.011.011 0 0 1 .008-.003h.057c.003 0 .005-.002.005-.005v-.117c0-.003.001-.006.004-.009a.011.011 0 0 1 .008-.003h.087l.009.003a.016.016 0 0 1 .003.009v.117c0 .003.002.005.005.005h.102l.009.003a.016.016 0 0 1 .003.009v.07Z" style="fill-rule:nonzero" transform="matrix(15.02942 0 0 15.02942 82.076 28.53)"/><path d="m.533-.7.009.003a.016.016 0 0 1 .003.009v.077a.011.011 0 0 1-.003.008.012.012 0 0 1-.009.004H.349c-.003 0-.005.002-.005.005v.582a.011.011 0 0 1-.003.008A.012.012 0 0 1 .332 0H.24a.01.01 0 0 1-.008-.004.01.01 0 0 1-.004-.008v-.582c0-.003-.002-.005-.005-.005H.046a.01.01 0 0 1-.008-.004.01.01 0 0 1-.004-.008v-.077c0-.003.001-.006.004-.009A.011.011 0 0 1 .046-.7h.487Z" style="fill-rule:nonzero" transform="matrix(15.02942 0 0 15.02942 89.952 28.53)"/><path d="M.279.008a.223.223 0 0 1-.135-.04.211.211 0 0 1-.08-.111.388.388 0 0 1-.001-.228.203.203 0 0 1 .08-.109.237.237 0 0 1 .137-.039c.051 0 .095.013.132.039a.206.206 0 0 1 .078.108.369.369 0 0 1 .001.228.211.211 0 0 1-.079.111.221.221 0 0 1-.133.041Zm0-.1a.1.1 0 0 0 .064-.021.124.124 0 0 0 .038-.059.284.284 0 0 0 .01-.084.267.267 0 0 0-.01-.084.11.11 0 0 0-.038-.059.11.11 0 0 0-.066-.02.106.106 0 0 0-.064.02.118.118 0 0 0-.039.059.293.293 0 0 0-.01.084c0 .033.003.061.01.084a.104.104 0 0 0 .105.08Z" style="fill-rule:nonzero" transform="matrix(15.02942 0 0 15.02942 98.278 28.53)"/><path d="M.364-.499c0-.003.001-.006.004-.009a.011.011 0 0 1 .008-.003h.091l.009.003a.016.016 0 0 1 .003.009v.487a.011.011 0 0 1-.003.008A.012.012 0 0 1 .467 0H.376a.01.01 0 0 1-.008-.004.01.01 0 0 1-.004-.008v-.032L.362-.048c-.001-.001-.003 0-.004.002C.331-.011.29.007.235.007a.189.189 0 0 1-.127-.044C.073-.066.056-.108.056-.162v-.337c0-.003.001-.006.004-.009a.011.011 0 0 1 .008-.003H.16l.009.003a.016.016 0 0 1 .003.009v.304c0 .031.008.056.025.075.016.019.039.028.068.028.03 0 .054-.009.072-.028a.105.105 0 0 0 .027-.075v-.304Z" style="fill-rule:nonzero" transform="matrix(15.02942 0 0 15.02942 106.258 28.53)"/><path d="M.3-.517c.021 0 .04.004.056.013.005.003.007.008.006.015l-.017.09c-.001.008-.005.01-.014.007a.123.123 0 0 0-.035-.005l-.02.001a.097.097 0 0 0-.098.101v.283a.011.011 0 0 1-.003.008A.012.012 0 0 1 .166 0H.074a.01.01 0 0 1-.008-.004.01.01 0 0 1-.004-.008v-.487c0-.003.001-.006.004-.009a.011.011 0 0 1 .008-.003h.092l.009.003a.016.016 0 0 1 .003.009v.045c0 .003.001.004.002.004.001.001.002 0 .003-.002A.133.133 0 0 1 .3-.517Z" style="fill-rule:nonzero" transform="matrix(15.02942 0 0 15.02942 114.014 28.53)"/><path d="M.128-.581a.07.07 0 0 1-.051-.02.07.07 0 0 1-.02-.051.07.07 0 0 1 .02-.051.07.07 0 0 1 .051-.02.07.07 0 0 1 .051.02.07.07 0 0 1 .02.051.07.07 0 0 1-.02.051.07.07 0 0 1-.051.02ZM.08 0a.01.01 0 0 1-.008-.004.01.01 0 0 1-.004-.008V-.5c0-.003.001-.006.004-.009A.011.011 0 0 1 .08-.512h.092l.009.003A.016.016 0 0 1 .184-.5v.488a.011.011 0 0 1-.003.008A.012.012 0 0 1 .172 0H.08Z" style="fill-rule:nonzero" transform="matrix(15.02942 0 0 15.02942 119.289 28.53)"/><path d="M.252.006a.285.285 0 0 1-.11-.019.163.163 0 0 1-.074-.051.112.112 0 0 1-.026-.072v-.009c0-.003.001-.006.004-.009a.011.011 0 0 1 .008-.003h.088l.009.003a.016.016 0 0 1 .003.009v.002c0 .017.009.031.028.043a.115.115 0 0 0 .069.019.116.116 0 0 0 .065-.017c.017-.011.025-.024.025-.041a.04.04 0 0 0-.02-.035.426.426 0 0 0-.067-.024L.216-.21A.585.585 0 0 1 .13-.242a.168.168 0 0 1-.059-.047.113.113 0 0 1-.024-.075c0-.047.018-.084.055-.112a.24.24 0 0 1 .145-.041c.041 0 .076.006.107.019a.164.164 0 0 1 .071.054.13.13 0 0 1 .025.079.011.011 0 0 1-.003.008.012.012 0 0 1-.009.004H.353a.01.01 0 0 1-.008-.004.01.01 0 0 1-.004-.008c0-.017-.008-.032-.025-.044a.13.13 0 0 0-.07-.017.128.128 0 0 0-.063.014c-.017.01-.025.024-.025.041 0 .016.008.028.024.036a.341.341 0 0 0 .078.028l.022.006a.796.796 0 0 1 .089.032.185.185 0 0 1 .061.046c.017.02.025.046.025.077a.13.13 0 0 1-.056.111.248.248 0 0 1-.149.041Z" style="fill-rule:nonzero" transform="matrix(15.02942 0 0 15.02942 122.746 28.53)"/><path d="M.333-.429a.011.011 0 0 1-.003.008.012.012 0 0 1-.009.004H.219c-.003 0-.005.002-.005.005v.241c0 .025.006.044.017.055.011.011.028.017.052.017h.03l.009.003a.016.016 0 0 1 .003.009v.075c0 .007-.004.012-.012.013L.261.002a.208.208 0 0 1-.118-.027C.117-.043.104-.077.103-.127v-.285c0-.003-.002-.005-.005-.005H.041a.01.01 0 0 1-.008-.004.01.01 0 0 1-.004-.008v-.07c0-.003.001-.006.004-.009a.011.011 0 0 1 .008-.003h.057c.003 0 .005-.002.005-.005v-.117c0-.003.001-.006.004-.009a.011.011 0 0 1 .008-.003h.087l.009.003a.016.016 0 0 1 .003.009v.117c0 .003.002.005.005.005h.102l.009.003a.016.016 0 0 1 .003.009v.07Z" style="fill-rule:nonzero" transform="matrix(15.02942 0 0 15.02942 129.78 28.53)"/></svg>