<svg viewBox="0 0 22 52" xmlns="http://www.w3.org/2000/svg" fill-rule="evenodd" clip-rule="evenodd" stroke-linejoin="round" stroke-miterlimit="2"><path d="M11.455 1.003l.047.004.047.01.093.022.046.013.046.014.046.014.044.014.046.015.043.016.044.016.044.016.042.017.042.018.042.018.042.018.04.019.04.018.04.018.076.038.038.019.072.038.069.036.066.036.063.035.03.017.056.032.027.015.027.014.024.014.024.013.023.013.021.012.021.01.039.02.04.018.021.01.042.018.045.018.023.01.022.01.023.009.045.018.023.008.044.018.021.008.021.009.022.008.04.016.02.008.017.008.034.016.03.015.015.007.024.014.01.007.01.006.017.018.003.006.002.006v.005l-.003.005-.003.005.004.01.005.01.008.02.003.01.004.01.003.01.004.01.01.034.002.011.003.01.003.011.002.011.003.011.004.023.003.01.002.01.002.01.003.012.004.02.003.01.002.01.003.01.003.008.002.01.003.007.003.01.003.008.004.007.003.008.004.007.003.006.008.012.005.005.004.005.01.005.008.006.008.006.008.007.009.008.007.008.006.01.007.008.006.01.005.01.006.012.005.01.005.013.004.012.005.012.012.04.004.013.003.014.004.015.003.014.003.015.003.014.004.015.01.045.002.016.006.03.004.016.003.015.004.015.003.015.008.03.005.014.005.016.004.014.009.014.008.014.007.014.006.014.006.013.008.028.003.014.003.014.002.014.001.013v.04l-.001.012-.002.013-.002.012-.003.013-.003.013-.003.01-.004.013-.012.033-.005.011-.01.02-.006.01-.005.01-.006.008-.006.008-.006.009-.005.008-.006.008-.005.007-.006.006-.005.007-.005.005-.005.006-.067.067V3.357l.002.007v.016l.003.009v.009l.003.01v.011l.004.011.002.011.006.024.003.013.008.027.004.014.01.028.006.014.006.015.007.014.014.03.01.016.007.015.01.015.01.015.01.015.012.014.01.015.014.014.013.016.013.014.027.027.011.013.011.012.02.024.017.022.014.02.006.01.005.009.004.009.008.016.006.014.002.007.001.007.001.002-.002.01-.001.004-.001.005v.004l-.001.004v.004l-.001.004v.01l-.001.003v.01l.002-.002h0l.001-.002.003-.006.001-.003.001-.002v-.003l.001-.004.001-.003V3.97l-.002-.005-.001-.004.001-.004.002-.01.002-.004.001-.005.004-.008.002-.005.002-.004.003-.003.002-.004.003-.003.003-.004.003-.002.003-.003.004-.002.003-.002.004-.002.004-.001h.01l.004-.001h.01l.007-.001.005-.001.018-.003.006-.002.006-.001.006-.002.006-.002.006-.002h.007l.006-.003h.006l.006-.003h.006l.006-.003.018-.003h.01l.006-.002h.019l.004.001.003.001.004.002.003.001.007.007v.004l.002.004V3.957h.44l-.002-.002v-.002l-.003-.001V3.95l-.004-.003v-.002l-.003-.002-.001-.002-.002-.002-.001-.002-.002-.002-.001-.002-.002-.003-.002-.004-.001-.003-.002-.004-.001-.003v-.004l-.001-.002v-.004l.002-.002v-.001l.002-.002.002-.001.002-.002.002-.001.006-.002h.012l.006-.001h.015l.01-.001.011-.001.014-.001.014-.002.015-.001.016-.002.017-.001.018-.003.038-.004.064-.006.022-.003.046-.004.024-.003.024-.002.023-.002.024-.003.024-.002.023-.002.025-.002.023-.002.024-.002.022-.002.023-.002.022-.002h.022l.02-.003h.021l.038-.003h.035l.016-.002h.028l.026.002.011.002.012.002.01.002.02.006.01.003.009.004.016.008.007.004.02.015.007.006.007.006.006.006.006.005.005.006.012.012.005.006.006.007.006.006.005.006.012.012.007.007.006.006.007.006.006.006.007.005.008.006.007.006.016.01.027.016.01.004.027.012.01.004.019.006.009.004.009.003.008.003.009.003.008.003.008.004.01.003.007.003.007.003.008.003.007.004.007.003.007.004.007.003.019.012.006.005.005.005.005.004.004.006.005.005.004.006.006.013.006.014.002.007.002.016v.331h-.062v.315h.125l.015-.015.004-.003.008-.008.01-.008.01-.01.012-.01.007-.006.006-.006.007-.005.007-.006.008-.006.007-.006.008-.006.008-.007.016-.012.01-.006.008-.006.009-.007.027-.019.009-.005.018-.012.01-.005.018-.01.01-.005.01-.004.01-.004.01-.003.03-.006h.043l.011.001.01.002.033.006.034.01.01.002.01.004.01.003.012.004.01.004.01.003.01.004.01.004.01.003.008.004.01.003.008.005.016.006.008.002.008.003.006.002.007.002.012.002h.025l.006-.001h.005l.006-.002.012-.002.006-.002.008-.002.006-.001.007-.002.006-.002.014-.004.007-.004.014-.004.007-.003.014-.004.007-.003.021-.006.007-.003.006-.002.014-.004h.007l.006-.003.007-.002.012-.002h.005l.006-.002h.005l.006-.002h.323l.002-.002.005-.005h.002l.008-.009.013-.008.003-.003.003-.002.004-.002.003-.003.012-.006.004-.003.016-.008.005-.002.004-.001.005-.002.004-.001.005-.002.004-.001.005-.001h.004l.005-.001h.448v-.001l.001-.001v-.008l.001-.002V4.57l.002-.002v-.006l.002-.003.003-.007V4.55l.003-.002v-.002l.003-.003.01-.01.003-.002.002-.002h.003l.003-.003h.004l.003-.002.008-.002H17.966l.004-.005.01-.008.004-.003.005-.003.005-.002.004-.002.005-.002.008-.002.005-.001h.02l.013.003.003.001.004.001.003.002.006.002.003.002.003.001.003.002.002.002.002.001.003.002.002.001.004.004.002.001.002.002V4.52h0v-.007l.002-.002v-.004l.002-.004V4.5l.003-.006V4.49l.002-.002.002-.002.001-.003.004-.004.001-.002.002-.002.003-.002.002-.002.003-.002.002-.002.003-.001.003-.002.004-.001.003-.001.008-.002h.004l.004-.001h.534l.008.002h.01l.024.004h.007l.008.003h.007l.007.003h.007l.006.003h.007l.006.003h.007l.006.003.012.002.006.002.005.001h.006l.005.001h.006l.005.001h.01l.02-.004.016-.006.004-.003.01-.006.009-.01.005-.003.004-.005.01-.008.004-.003.005-.004.004-.003.005-.003.004-.003.005-.003.004-.003.004-.003.005-.002.012-.006h.005l.003-.003.008-.002.003-.002h.007l.006-.003h.005l.002-.002h.016v-.002h.002l.003-.002h.003l.006-.004h.003l.008-.005.015-.006.006-.002.005-.002.007-.002.006-.003.007-.002.006-.002.009-.003.014-.004.008-.003.016-.004.009-.002.008-.002.009-.002.008-.002.01-.001.008-.002.01-.001.008-.002.01-.001.01-.001h.009l.009-.001h.053l.014.003.006.002h.007l.005.003h.006l.01.005.012.006.003.002.005.003.003.002.009.01.002.002v.002l.003.002.004.008v.005l.002.002v.005h.063l-.005-.005V4.39h-.003v-.003l-.003-.002v-.002l-.003-.002v-.002l-.003-.002-.001-.002-.002-.002-.001-.003-.002-.002-.001-.002-.001-.003-.002-.004v-.003l-.001-.002v-.006l.001-.002v-.002l.006-.006.003-.001.002-.001h.004l.003-.001h.072v-.001l.002-.001V4.33l.003-.002.003-.002.002-.003.003-.002.01-.011.005-.003.005-.004.005-.005.01-.008.005-.006.006-.004.005-.005.006-.005.006-.004.012-.01.006-.004.006-.005.006-.004.007-.004.019-.012.024-.012.006-.002.005-.002.006-.001.01-.002h.507l.004-.004.002-.001.003-.003.003-.002.002-.002.012-.008.008-.004.004-.003.004-.002.005-.002.005-.003.015-.006.006-.003.012-.004.007-.002.007-.002.007-.002.007-.001.008-.003h.007l.008-.003.016-.002H20.602l.002-.002h0l.003-.002h.003l.002-.002.003-.002h.004l.003-.003.008-.004.01-.004.004-.002.006-.002.005-.003.005-.002.012-.004.006-.003.012-.004.006-.003.012-.004.007-.002.025-.008.006-.001.006-.002.012-.002.005-.001.006-.001h.005l.005-.001h.014l.01.001h.008l.032.004.008.002.008.001.02.006.007.002.007.002.005.002.006.002.006.003.01.004.005.003.004.002.005.002.004.002.004.003.003.002.004.002.006.004.002.002.003.002.002.002.002.001.003.003.002.001.001.001v.001l.001.001.008.004.002.002.003.002.007.006.003.002.005.004.002.002.003.002.002.002.015.01.003.003.009.006.004.002h.003l.004.003.003.002h.004l.004.003h.004l.004.003.016.004H21.104l.004.002.007.003.007.004.009.007.01.008.02.021.013.014.012.015.013.017.014.019.014.02.015.021.015.023.017.025.015.027.016.028.017.029.016.031.016.032.017.034.016.035.017.036.016.038.016.039.015.04.015.041.015.044.014.044.014.045.013.047.014.047.01.048.012.05.01.052.01.052.016.106.006.056.005.056v.042l-.001.04-.002.041-.002.038-.003.039-.003.037-.004.036-.005.036-.01.066-.006.032-.006.032-.006.03-.007.029-.007.028-.007.027-.009.027-.016.048-.008.023-.008.022-.008.02-.009.02-.008.019-.017.034-.008.015-.01.014-.007.013-.008.012-.007.011-.008.01-.015.017-.007.006-.007.005-.006.004-.006.003-.005.002h-.005l-.005.005-.01.01-.005.004-.006.005-.005.004-.012.01-.012.008-.006.005-.007.004-.025.016-.007.004-.012.008-.006.003-.005.004-.012.007-.02.012-.008.004-.004.003h-.004l-.006.005h-.003l-.008.005-.004.005-.005.005-.005.004-.004.005-.005.004-.01.01-.006.004-.004.005-.01.008-.005.005-.006.004-.015.012-.006.004-.005.004-.006.003-.006.004-.006.003-.006.004-.012.006-.007.003-.006.004-.007.002-.007.003-.022.006-.008.002h-.008l-.008.003-.016.002h-.018l-.009.002h-.637v.002h-.002l-.003.003h-.002v.003l-.003.002h-.003l-.004.005-.003.002-.003.003-.009.006-.003.003-.004.002-.003.002-.004.003-.004.002-.003.002-.004.002-.005.003-.012.006-.005.001-.008.004-.005.001-.004.001-.01.002-.005.001-.005.001h-.014l-.005.001h-.005l-.006.001-.005.001-.012.002-.006.002-.006.001-.007.002-.006.002-.007.002-.006.002-.028.008-.008.003-.007.002-.014.005-.02.006-.008.003-.006.002-.014.005-.006.002-.007.002h-.006l-.007.003h-.006l-.006.003h-.005l-.006.002H19.9l-.004-.001-.005-.001-.005-.002-.004-.002-.01-.006-.004-.004-.005-.003-.005-.004-.004-.004-.01-.008-.004-.004-.005-.004-.005-.005-.004-.005-.005-.004-.01-.01-.004-.004-.005-.005-.005-.004-.004-.005-.01-.008-.005-.004-.01-.008-.004-.003-.01-.006-.004-.003-.01-.004-.004-.001-.01-.002h-.13.001l.001.003.002.002.002.003.004.008.003.004.003.005.004.006.003.006.004.007.004.006.004.008.005.007.004.01.005.007.004.01.006.008.004.01.005.009.005.01.004.01.005.01.004.01.005.01.004.011.004.01.004.011.003.01.004.011.006.02.002.012.006.03.002.02v.03l.001.011v.013l.001.013.002.014.002.03.002.015.001.017.002.016.002.017.002.018.002.018.002.018.003.018.002.019.002.018.003.02.004.036.003.02.002.019.006.054.003.018.002.017.001.018.002.017.002.016.002.015.002.03.001.014.001.013.002.025v.02l.009.01.003.005.002.006.002.005v.006l.002.007-.001.006v.007l-.001.006-.002.008-.002.007-.003.008-.003.007-.004.008-.005.01-.004.008-.005.009-.006.009-.005.009-.006.01-.007.009-.006.01-.007.01-.008.011-.007.01-.016.022-.008.012-.008.012-.018.024-.008.012-.019.026-.01.013-.018.026-.009.014-.01.014-.564.565h0v.002h.002v.003l.004.003v.003l.002.002.002.003.001.003.002.003.001.004.004.008.002.01.002.005.003.018.002.014v.042l-.003.03-.004.022-.003.011-.002.012-.003.013-.004.012-.008.029-.005.014-.004.015-.012.048-.003.018-.003.017-.003.019-.002.018-.006.057-.003.058v.058l.002.038v.018l.003.02.002.017.002.018.006.034.008.032.004.015.01.029.006.013.006.012.006.01.014.021.016.016.01.006.008.005.004.005.005.006.004.006.004.007.005.008.003.009.004.008.003.009.004.01.003.009.003.01.003.01.003.011.003.011.004.012.006.022.003.012.004.013.003.01.004.013.003.012.004.01.004.013.004.011.005.011.004.011.005.011.005.01.006.01.005.01.006.01.007.009.006.009.016.015.008.007.008.006.009.006.009.005.004.005.01.01.004.006.005.005.005.006.004.007.005.006.004.007.004.006.005.009.004.007.004.008.004.007.005.008.004.009.003.008.008.018.003.01.004.01.003.008.006.02.007.023.003.01.002.01.002.013.003.01.002.013v.012l.003.012v.013l.003.013v.027l.002.013v.028l-.004.014-.01.026-.004.012-.005.012-.005.012-.005.011-.004.012-.004.01-.004.01-.004.01-.004.01-.008.018-.006.016-.004.008-.002.008-.006.014-.004.014v.006l-.003.008-.002.012v.005l-.001.006v.005l.001.006v.005l.002.005.001.005.004.01.003.004.003.005.008.01.014.014.005.004.005.005.037.03.007.006.007.006.006.005.028.024.007.007.007.006.014.014.007.008.007.007.007.008.006.008.022.027.006.01.007.01.006.01.006.01.006.01.006.013.006.011.006.012.015.04.005.014.018.038.018.04.008.02.017.043.007.02.008.023.007.021.007.022.006.021.007.023.018.066.005.021.006.022.005.021.004.022.005.02.004.022.012.06.006.039.006.036.002.017.003.016.002.016.001.016.002.015.002.028.002.024v.058l.002.006v.035l.002.008v.015l.002.007.003.024v.01l.002.007.002.008v.01l.003.008.002.008.004.019.003.009.002.009.009.027.003.01.004.01.003.008.004.01.004.01.005.008.004.01.005.004.005.006.004.006.005.005.005.006.004.006.01.012.004.006.01.014.004.007.01.014.004.008.006.007.005.008.004.008.01.016.004.008.005.009.005.009.004.008.01.018.004.009.005.009.005.008.004.01.01.018.004.01.01.017.004.01.01.019.005.01.004.009.002.02.001.011.002.012.003.012.008.026.005.014.005.015.005.015.012.03.007.016.006.016.008.017.007.016.008.018.007.017.008.018.008.017.01.018.007.017.008.018.017.036.008.018.01.018.008.017.008.018.016.034.007.018.008.017.007.016.007.017.006.015.006.016.006.015.005.015.005.014.005.01.004.013.004.013.004.014.004.016.003.017.004.02.003.018.003.02.003.022.003.022.002.023.002.024.003.023v.026l.005.05v.025l.003.026v.026l.002.026v.026l.002.025v.05l.002.026v.07l.002.022v.256l.002.011v.046l.002.01v.025l.002.011.002.024.002.011.002.024.002.012.002.012.002.01.002.013.004.022.015.055.003.01.004.01.004.012.004.009.004.01.005.01.004.014.004.016.003.018.002.018.002.02.002.043V14.198l-.002.025v.027l-.007.081-.003.028-.003.03-.003.028-.003.03-.004.028-.003.03-.008.059-.004.03-.003.03-.004.028-.004.029-.003.028-.004.028-.003.029-.003.026-.003.027-.003.025-.002.025-.004.049-.001.022-.002.042v.02l.008.038.003.019.002.019.002.02v.06l-.001.04-.002.02-.002.019-.002.02-.004.02-.003.02-.004.02-.005.019-.005.02-.005.019-.006.018-.007.02-.006.017-.014.037-.014.034-.008.017-.016.032-.009.016-.008.016-.018.028-.027.04-.01.01-.01.011-.009.011-.009.01-.009.01-.009.009-.014.02-.007.01-.006.01-.006.012-.005.01-.005.011-.004.011-.005.012-.004.011-.003.011-.004.013-.004.01-.003.013-.003.01-.004.013-.003.012-.003.011-.009.024-.004.011-.004.012-.004.011-.005.013-.005.01-.006.013-.012.022-.007.011-.016.022-.01.01-.008.011-.01.01-.011.01-.012.01-.013.01-.014.01-.015.01-.015.009-.016.01-.018.01-.017.01-.02.011-.018.01-.02.01-.022.011-.02.01-.023.012-.023.01-.023.01-.024.01-.024.012-.024.01-.05.02-.026.01-.026.01-.078.026-.053.017-.027.008-.026.007-.027.007-.026.006-.028.007-.078.015-.025.004-.027.003-.05.006-.073.003-.046-.01-.024-.004-.023-.005-.145-.03-.026-.005-.025-.006-.025-.005-.025-.007-.052-.012-.028-.006-.027-.007-.027-.006-.057-.014-.029-.008-.029-.007-.03-.008-.03-.01-.032-.007-.064-.018-.033-.01-.069-.02-.035-.01-.035-.01-.038-.013-.037-.01-.038-.013-.04-.013-.04-.013-.041-.013-.041-.014-.047-.014-.045-.014-.044-.014-.044-.013-.082-.026-.04-.012-.038-.013-.038-.012-.037-.012-.035-.012-.034-.012-.033-.012-.033-.012-.03-.01-.031-.012-.03-.01-.027-.012-.028-.011-.026-.01-.026-.011-.024-.01-.047-.02-.042-.02-.02-.01-.02-.01-.017-.01-.018-.01-.017-.01-.016-.009-.015-.01-.014-.01-.013-.01-.013-.008-.012-.01-.011-.01-.01-.009-.01-.01-.01-.014-.02-.026-.023-.024-.023-.023-.013-.011-.012-.01-.04-.03-.013-.01-.014-.008-.014-.009-.013-.008-.028-.016-.056-.028-.029-.012-.014-.007-.013-.005-.014-.006-.013-.006-.013-.006-.013-.006-.026-.01-.025-.01-.01-.005-.012-.004-.022-.01-.01-.004-.018-.01-.01-.005-.008-.005-.01-.006-.008-.005-.017-.012-.009-.007-.008-.006-.008-.007-.008-.006-.008-.007-.009-.008-.008-.008-.008-.007-.01-.008-.007-.008-.01-.007-.008-.008-.01-.009-.01-.008-.01-.008-.01-.01-.01-.007-.01-.01-.012-.007-.011-.01-.024-.018-.04-.027-.014-.01-.03-.018-.016-.009-.016-.01-.017-.01-.018-.008-.018-.01-.02-.01-.018-.01-.051-.03-.016-.01-.016-.01-.046-.034-.028-.022-.013-.012-.013-.011-.012-.011-.024-.025-.012-.01-.011-.013-.01-.012-.012-.011-.01-.012-.009-.012-.01-.011-.009-.012-.008-.011-.01-.013-.007-.01-.007-.012-.008-.01-.021-.034-.006-.011-.013-.02-.005-.011-.005-.01-.01-.02-.005-.009-.005-.01-.004-.01-.01-.02-.004-.01-.005-.01-.004-.011-.005-.01-.004-.011-.004-.01-.005-.011-.004-.01-.004-.012-.016-.04-.003-.01-.004-.01-.003-.008-.004-.01-.003-.008-.01-.024-.001-.007-.003-.008-.003-.007-.002-.006-.002-.005-.002-.006v-.004l-.003-.004v-.004l-.002-.003v-.002l-.002-.003v.01l-.002.006v.01l-.002.01v.012l-.003.015-.002.016-.002.017-.002.019-.004.042-.003.023-.006.05-.003.028-.003.028-.003.03-.004.03-.003.03-.004.032-.008.067-.008.068-.004.036-.004.036-.004.037-.005.036-.004.038-.005.037-.004.038-.005.038-.004.038-.005.038-.004.038-.005.039-.006.037-.004.038-.01.037-.009.036-.008.035-.009.033-.016.065-.008.03-.008.029-.007.028-.007.027-.007.027-.007.025-.012.048-.006.022-.006.022-.005.02-.007.02-.005.019-.005.018-.004.017-.004.016-.005.016-.003.016-.004.014-.003.013-.004.013-.002.012-.003.011-.003.01-.002.01-.004.018-.002.016v.008l-.003.012v.015l-.002.01-.004.012-.002.005-.002.007-.003.006-.012.028-.008.016-.003.008-.008.017-.004.009-.003.009-.004.009-.003.01-.004.01-.003.009-.003.011-.002.01-.003.011-.005.022v.011l-.002.013v.048l.001.013.005.026.003.013.008.028v1.045l.002.016v.032l.003.032.002.016v.016l.005.032.003.017.002.017.003.016.004.017.003.016.005.016.004.017.01.032.012.033.007.017.007.015.007.016.008.016.01.016.008.015.01.015.034.046.013.015.026.028.005.02.004.017.008.039.004.018.004.019.003.018.004.02.01.054.003.018.003.018.003.017.003.018.006.034.004.018.003.017.004.016.004.017.004.015.003.016.005.016.008.03.005.015.005.015.005.014.005.013.018.04.014.023.007.012.008.01.008.01.018.02.01.015.016.03.007.015.007.016.006.017.01.034.005.016.004.018.008.034.006.037.003.017.003.018.002.018.003.018.002.017.003.018.002.017.002.019.003.017.002.017.003.016.003.017.006.032.012.046.01.028.005.013.007.013.014.024.008.011.008.01.009.01.009.01.009.01.009.009.008.009.01.009.007.01.007.009.008.01.014.017.006.01.008.008.006.01.005.008.006.01.005.008.004.009.005.008.004.009.003.008.004.008.003.008.002.008.003.008v.007l.003.008.002.014v.014l-.001.006v.008l-.008.024-.003.005-.012.015-.01.018-.005.007-.006.007-.005.007-.012.011-.012.01-.006.004-.012.006-.005.003-.006.003-.006.002-.01.004-.006.001-.005.002-.004.001-.005.001-.012.004-.01.003-.003.002-.002.002h0l-.001.003v.004l.002.003.004.006.007.007.004.005.005.005.004.005.01.01.004.006.005.006.004.006.005.006.004.007.005.006.008.014.005.007.004.007.008.017.004.007.003.008.008.016.003.008.003.009.005.008.003.009.003.008.002.01.003.008.002.01.003.008.006.028v.009l.003.009v.01l.003.018v.217l.009.028.005.013.003.013.008.026.003.013.003.012.003.013.003.012.002.012.003.012.002.012.004.022.001.011.004.022.001.011.001.01.001.011.001.01.001.012.002.02v.01l.001.01v.009l.001.01v.03l.001.008v.067l-.005.023-.012.07-.004.022-.006.044-.006.042-.004.043-.006.06-.003.057v.019l-.001.018v.069l.003.032v.016l.007.045.002.013.002.014.006.026.006.025.012.033.004.01.005.009.01.015.008.014.008.015.008.016.008.015.007.018.012.032.006.017.01.034.012.052.006.034.006.051.001.016.001.017.001.016v.046l-.001.015-.002.028-.002.013-.006.037-.006.02-.004.01-.003.008-.004.008-.004.007-.004.006-.005.005-.01.004-.008.005-.01.004-.008.004-.009.003-.008.004-.008.003-.014.006-.008.003-.006.002-.007.003-.007.002-.012.004-.005.002-.006.001-.005.003-.015.003-.013.003h-.007l-.003.002h-.01l-.002.002h-.008v.314H15.498l.007.002h.007l.014.002h.008l.007.001.008.001.009.001.008.002.016.002.01.002.007.002.01.002.024.006.016.006.008.002.007.004.014.006.024.016.004.005v.09l-.002.014v.013l-.003.03v.017l-.003.016v.017l-.007.054-.003.02-.002.019-.006.04-.016.084-.01.045-.006.023-.005.022-.007.023-.006.023-.015.047-.016.046-.009.024-.009.024-.005.009-.004.009-.01.018-.004.008-.005.008-.004.008-.005.008-.004.007-.005.008-.008.014-.005.007-.004.007-.004.006-.004.007-.008.013-.003.006-.004.006-.003.006-.004.005-.004.006-.003.005-.003.006-.002.005-.006.01-.008.02v.005l-.003.005v.005l-.002.004v.01l-.002.004v.005l.01.01.005.004.006.006.005.005.007.004.018.015.007.005.006.005.007.005.006.005.007.005.007.006.014.01.014.012.007.005.021.018.007.007.007.006.007.007.007.006.014.015.006.008.006.007.007.008.006.007.006.008.005.008.006.009.005.008.006.01.005.008.004.01.01.013.018.029.01.015.019.028.01.014.018.03.009.014.009.015.009.017.009.015.01.016.007.015.01.016.007.017.01.017.007.017.01.018.016.036.007.018.016.038.007.02.008.02.014.043.006.022.014.044.018.073.005.025.006.026.005.026.005.028.026.14.006.029.006.027.018.085.006.027.007.027.006.028.021.082.007.026.006.027.021.079.007.025.008.026.014.05.028.097.006.024.007.023.006.023.012.044.018.064.01.04.015.057.004.02.004.022.004.022.003.023.005.023.006.049.003.025.004.052.004.055.002.028.003.084v.177l-.001.03-.002.058-.006.088-.002.028-.002.03-.003.027-.003.028-.003.027-.005.026-.003.028-.008.05-.004.024-.01.048-.005.024-.012.046-.006.024-.021.07-.008.022-.007.023-.016.044-.007.023-.016.044-.008.021-.008.021-.008.021-.02.06-.008.02-.006.019-.012.036-.005.018-.004.018-.005.017-.003.016-.004.016-.004.03-.002.014v.04l.002.01.003.013.003.01.004.01.005.013.008.028.008.026.003.012.003.014.006.024.004.024.006.033.001.011.002.02v.01l.001.01v.037l-.002.009-.002.016-.002.008-.002.007-.002.008-.004.014-.003.006-.003.007-.006.012-.004.007-.004.005-.004.006-.004.005-.005.004v.005l.002.01.002.006.001.005.003.006.002.006.003.007.003.006.01.021.007.014.003.007.008.017.003.008.008.016.006.016.004.009.002.008.006.018.002.008.002.01.002.008.002.018v.02l-.002.018-.002.009-.004.01-.006.018-.005.01-.008.018-.005.01-.003.01-.004.008-.003.01-.004.01-.002.009-.006.018-.006.027-.002.018v.008l-.002.01v.04l.001.017.001.007.001.008.001.007.006.02.003.007.003.007.002.006.004.006.003.006.004.006.003.005.005.005.008.01.001.005v.012l.001.008.002.016.002.009.001.009.001.01.002.01.005.022.006.036.002.013.003.014.002.013.002.014.003.014.004.028.003.015.002.014.01.076.002.016.002.015v.015l.003.015.003.046V28.653l.002.014v.045l.002.017v.019l.003.019.002.02.006.042.003.023.003.025.008.05.008.054.004.029.005.028.004.03.005.03.004.03.005.032.005.032.004.033.005.032.004.035.006.034.004.034.012.106.004.036.006.073.006.074.004.075.002.074V31.787l-.002.036-.002.02-.002.022-.003.022-.003.023-.003.024-.003.026-.008.052-.008.056-.004.03-.006.029-.004.03-.005.031-.004.031-.005.032-.005.032-.004.032-.005.032-.004.033-.005.033-.004.033-.004.032-.008.067-.004.032-.012.13-.002.03-.002.03-.001.032-.002.058v.03l-.001.028-.001.03-.001.032-.002.032-.003.035-.003.035-.004.035-.004.037-.005.039-.004.038-.006.04-.005.04-.006.04-.006.042-.018.127-.024.173-.005.044-.006.044-.01.087-.004.043-.005.043-.003.043-.004.042-.003.041-.002.042-.002.04-.001.04-.001.04v.038l.003.074.003.036.003.034.004.034.005.034.005.037.005.038.006.04.005.043.006.043.012.093.006.048.006.05.006.05.006.051.006.052.007.054.007.053.006.054.024.217.006.054.005.053.006.053.01.105.01.1.004.05.005.047.004.046.003.044.004.043.003.04.002.04.003.038.001.035.002.032.001.03.001.027v.049l-.002.046-.002.023v.022l-.004.023-.002.022-.003.021-.004.022-.003.021-.004.021-.005.022-.004.02-.015.06-.005.02-.006.02-.005.019-.006.018-.006.019-.024.072-.007.018-.007.018-.006.017-.006.016-.006.017-.018.048-.006.016-.006.016-.005.015-.006.014-.005.015-.01.028v.011l-.001.011-.002.029-.002.016-.002.017-.003.018-.002.02-.003.02-.003.021-.004.023-.003.023-.004.023-.003.024-.004.025-.004.025-.003.026-.004.025-.004.026-.003.025-.004.026-.004.027-.009.075-.002.025-.002.025-.004.046v.043l-.002.02.001.02v.019l.002.017.001.016.003.014.003.013.004.012.004.01.006.015.007.017.007.018.008.018.01.021.01.022.012.023.025.05.014.028.015.03.032.062.017.033.035.07.02.038.017.039.02.04.02.042.02.043.02.044.021.046.021.047.042.099.023.051.02.053.022.055.022.055.021.058.021.058.022.06.02.062.022.062.02.065.02.065.02.068.02.068.019.07.023.07.02.069.021.067.02.067.016.065.017.064.016.062.014.063.013.06.024.117.01.057.01.055.008.054.008.053.007.052.007.05.006.049.005.048.005.047.006.045.004.044.003.043.004.04.003.041.002.038.003.038.003.036.002.034.002.034.003.032.002.03.003.03.002.027.003.027.003.025.003.024.004.022.004.021.004.02.005.019.004.02.003.02.004.021.006.067.002.023.001.024.001.023v.125l-.003.025v.025l-.005.053-.002.025-.002.026-.003.026-.003.026-.003.026-.003.025-.004.025-.003.025-.004.025-.016.097-.005.023-.004.023-.005.022-.004.022-.005.02-.005.021-.004.02-.006.02-.004.019-.005.02-.004.023-.004.023-.003.024-.004.026-.006.055-.002.03-.003.03-.002.03-.004.064v.032l-.003.035v.069l-.002.035v.145l.001.038v.038l.001.037.002.038.001.037.002.038.004.075.003.037.002.037.003.036.003.038.004.035.003.036.004.036.004.034.005.033.004.034v.098l-.002.031-.002.065v.031l-.003.031-.002.03-.002.032-.006.09-.003.03-.003.03-.006.058-.003.028-.003.03-.004.028-.003.028-.004.027-.004.028-.012.082-.004.026-.004.027-.004.027-.005.025-.004.026-.005.025-.004.025-.005.026-.004.025-.005.024-.004.025-.005.023-.005.025-.004.024-.005.023-.01.075-.002.027-.002.054v.085l.002.058.001.03.002.03.006.09.003.031.002.03.005.062.004.06.003.03.002.031v.03l.003.03.003.088V45.67l-.002.081-.004.053-.003.025-.008.048-.005.024-.006.027-.005.03-.006.03-.005.033-.006.034-.006.037-.006.037-.006.04-.006.04-.012.082-.006.044-.007.043-.018.133-.006.045-.006.044-.006.046-.012.088-.01.087-.007.042-.004.042-.005.04-.005.04-.004.038-.004.037-.003.034-.004.034-.003.032-.002.029-.003.028-.002.025v.023l-.002.022V47.338l-.002.017v.034l-.002.015v.017l-.003.014v.014l-.005.026-.004.024-.003.012-.002.01-.003.011-.003.01-.006.019-.004.009-.003.008-.004.008-.003.008-.016.028-.008.012-.005.006-.004.005-.005.006-.009.01-.01.01-.004.006-.005.005-.004.005-.005.004-.005.005-.004.005-.005.004-.008.01-.003.004-.004.005-.003.005-.003.004-.006.01-.002.004-.003.005-.004.01-.002.004-.002.005-.001.005-.002.004-.002.01-.001.004-.002.01-.001.004-.001.006v.005l-.001.004v.005l-.001.005v.009l-.001.005v.042l.004.012.003.007.004.007.004.008.005.008.012.019.014.02.024.03.01.011.008.01.019.022.009.01.009.011.01.01.009.012.018.02.009.009.01.01.007.008.008.009.015.015.007.008.017.017.005.005.004.003.003.003.002.003.002.001v.001l.004.002.005.003.007.005.009.007.01.006.014.008.014.009.016.009.017.01.02.012.02.012.023.012.024.013.025.014.026.014.029.015.028.015.03.015.031.015.032.015.034.016.034.015.035.015.037.015.074.03.077.029.039.013.04.013.04.012.042.012.041.011.041.01.043.01.041.008.042.008.043.006.042.005.047.005.091.006.044.003.045.002h.043l.042.003H18.392l.038-.001h.037l.036-.001h.035l.035-.001h.131l.063.002.058.004.029.002.027.003.027.004.026.004.026.005.025.006.024.007.023.007.023.01.022.008.021.01.02.011.02.013.02.014.014.014.013.014.026.026.012.013.011.013.023.024.01.012.01.012.009.012.009.01.009.01.008.012.008.01.008.009.007.01.006.01.007.007.006.01.005.007.006.007.005.008.004.008.005.006.005.006.003.006.004.005.006.01.004.008.004.006v.003l.002.002.002.002h.002v.002H19.43l.01.003.006.002.006.001.014.004.007.003.007.002.008.004.007.003.008.004.01.005.008.004.016.012.009.006.008.007.009.008.008.008.016.019.008.01.008.01.008.013.007.012.007.013.007.014.006.015.012.033.007.017.004.019.005.018.008.038.004.018.004.02.003.018.006.038.002.018.003.018v.02l.003.017.002.037v.09l-.001.018-.001.018-.004.034-.002.018-.003.016-.003.017-.004.017-.004.017-.004.017-.01.032-.006.016-.006.015-.007.016-.014.03-.008.016-.008.014-.009.015-.009.014-.015.014-.016.016-.017.016-.02.017-.02.018-.023.019-.024.019-.025.019-.027.02-.03.021-.03.021-.032.022-.034.022-.037.02-.037.023-.04.023-.04.022-.044.023-.045.023-.047.022-.05.022-.051.022-.054.022-.055.022-.057.02-.06.022-.062.02-.064.02-.066.02-.069.018-.071.019-.073.017-.075.017-.079.016-.08.015-.083.014-.085.013-.087.012-.091.011-.093.01-.088.01-.083.009-.08.008-.077.008-.074.007-.07.007-.066.006-.063.006-.06.006-.058.005-.055.005-.052.004-.048.004-.047.004-.043.003-.041.003-.039.002-.036.002-.033.002-.032.001-.03.001-.027.001h-.091l-.019-.002h-.017l-.016-.003-.014-.002-.013-.002-.011-.002-.011-.003-.018-.006-.014-.008-.013-.008-.005-.005v-.004l-.005-.005-.007-.006-.009-.005-.01-.005-.015-.006-.016-.006-.018-.005-.02-.006-.023-.006-.024-.006-.025-.006-.027-.007-.028-.005-.03-.006-.032-.005-.031-.006-.033-.005-.034-.005-.036-.005-.035-.004-.036-.004-.112-.012-.037-.003-.038-.002-.038-.002-.075-.004-.036-.001h-.072l-.036.001-.034.001-.066.004-.032.003-.03.004-.029.004-.027.005-.026.005-.025.006-.044.012-.02.007-.018.007-.018.008-.016.007-.016.009-.014.008-.013.008-.012.008-.012.009-.02.016-.017.017-.008.01-.014.015-.012.016-.007.007-.006.008-.005.008-.005.006-.005.007-.005.006-.016.016-.012.008-.007.004-.006.003-.008.002-.007.002H14.567l-.013.002-.016.001-.017.001-.019.002-.022.002-.023.002-.025.002-.028.003-.029.003-.031.002-.032.003-.035.002-.036.003-.037.003-.038.002-.04.002-.085.004-.045.001-.045.001h-.046l-.048.001h-.098l-.05-.003-.102-.004-.053-.004-.053-.004-.11-.01-.054-.006-.11-.016-.057-.01-.055-.01-.113-.023-.056-.014-.056-.01-.054-.009-.054-.009-.051-.01-.05-.009-.049-.01-.048-.009-.045-.01-.046-.01-.043-.01-.041-.008-.042-.01-.039-.01-.075-.02-.035-.01-.066-.02-.032-.01-.03-.012-.028-.011-.028-.01-.026-.011-.049-.022-.022-.011-.021-.013-.02-.01-.018-.013-.035-.024-.014-.012-.014-.013-.012-.012-.011-.013-.01-.013-.01-.013-.007-.015-.006-.013-.006-.014-.004-.014-.005-.015-.005-.014-.004-.015-.005-.015-.005-.015-.005-.016-.004-.016-.004-.015-.02-.08-.006-.033-.003-.017-.006-.032-.002-.017-.003-.016-.002-.016v-.018l-.003-.016-.002-.032v-.017l-.001-.016v-.015l.003-.049.001-.015.004-.03.006-.03.004-.015.008-.028v-.015l.002-.026.002-.013.001-.012.003-.011.002-.011.003-.011.003-.01.004-.01.003-.01.008-.018.004-.008.006-.008.004-.008.005-.007.004-.006.005-.007.004-.006.005-.005.005-.006.004-.005.005-.004.004-.005.005-.004.004-.003.004-.004.004-.003.003-.003.004-.002.006-.004.002-.002.006-.003.001-.001h.001v-.001h-.002l-.004-.002-.002-.002-.002-.001-.006-.004-.006-.006-.004-.003-.007-.008-.003-.004-.004-.004-.008-.01-.003-.005-.004-.006-.003-.006-.004-.006-.006-.014-.002-.008-.003-.007-.002-.01-.002-.007-.001-.01-.002-.02v-.032l.002-.01.004-.025.003-.013.004-.014.004-.013.01-.028.004-.013.005-.013.005-.012.004-.012.004-.01.005-.012.004-.011.016-.04.003-.01.004-.008.006-.019.006-.016.002-.009.003-.008.001-.008.004-.016.001-.007.001-.008v-.008l.001-.008v-.016l-.002-.007-.002-.017-.002-.009-.003-.008-.002-.008-.003-.009-.012-.027-.008-.01-.002-.005-.002-.006v-.025l.002-.006.002-.008.002-.008.003-.008.008-.016.003-.009.005-.009.004-.009.005-.01.004-.01.005-.01.005-.011.004-.011.006-.011.008-.025.008-.026.003-.013.006-.028.002-.014.002-.03v-.05l-.002-.017-.002-.018-.008-.036-.005-.014-.004-.015-.005-.016-.006-.016-.004-.016-.005-.016-.004-.016-.005-.017-.004-.017-.005-.018-.004-.018-.004-.018-.005-.018-.004-.018-.004-.02-.004-.017-.004-.02-.003-.018-.008-.038-.003-.018-.003-.02-.004-.018-.003-.018-.003-.02-.002-.018-.003-.018-.002-.018-.003-.018-.002-.018-.004-.034-.001-.018-.002-.017-.002-.032-.001-.015v-.03l-.001-.014v-.03l-.002-.016-.001-.017-.004-.034-.006-.036-.003-.02-.003-.02-.004-.019-.003-.021-.005-.02-.005-.021-.008-.043-.01-.044-.004-.022-.01-.044-.004-.023-.005-.023-.004-.022-.005-.023-.008-.044-.004-.024-.008-.044-.003-.021-.003-.022-.003-.021-.003-.023-.002-.02-.002-.02-.002-.041-.001-.02V46.797l.002-.024v-.078l.002-.027.002-.056.003-.091v-.032l.003-.033v-.033l.003-.033.002-.034.004-.07.003-.037.002-.036.003-.038.006-.076.003-.04.004-.039.003-.04.004-.04.004-.042.005-.042.004-.041.005-.043.005-.04.005-.04.005-.038.006-.037.006-.036.006-.035.006-.035.006-.033.006-.031.005-.031.006-.03.006-.03.006-.028.005-.027.006-.026.005-.026.01-.048.01-.044.004-.021.008-.04.006-.037.003-.017.002-.017.002-.016.002-.03.001-.015v-.026l-.002-.012-.002-.011-.002-.012-.003-.01-.008-.02-.005-.011-.006-.016-.005-.019-.006-.022-.007-.025-.006-.028-.007-.032-.008-.034-.007-.036-.008-.04-.007-.04-.008-.042-.008-.044-.008-.047-.008-.046-.008-.048-.008-.05-.007-.05-.028-.2-.012-.101-.006-.049-.005-.048-.005-.047-.004-.047-.004-.044-.003-.043-.003-.042-.002-.038-.001-.037-.001-.035v-.061l.003-.026.002-.022.004-.02.004-.017.005-.016.006-.02.006-.025.007-.028.007-.031.008-.036.008-.038.01-.041.008-.045.01-.046.01-.048.01-.05.01-.052.01-.055.012-.054.01-.055.01-.058.012-.056.01-.059.011-.057.01-.057.011-.058.01-.056.01-.056.01-.055.009-.054.009-.052.009-.05.008-.048.007-.046.007-.044.007-.042.006-.038.005-.034.004-.032.004-.029.003-.024.002-.021.002-.016v-.044l-.003-.013-.002-.006v-.005l-.003-.005-.001-.005-.006-.012-.002-.003-.002-.004-.003-.003-.002-.003-.002-.004-.003-.003-.002-.004-.002-.003-.003-.004-.006-.012-.002-.005-.003-.005-.002-.006-.001-.006-.002-.006-.002-.007-.002-.008-.001-.008-.002-.019-.001-.01-.001-.01-.001-.013v-.046l.002-.01v-.008l.003-.01.003-.01.002-.01.003-.009.006-.02.012-.03.004-.011.004-.01.005-.011.004-.011.01-.022.004-.013.01-.024.004-.012.005-.013.004-.012.004-.014.005-.013.004-.014.003-.014.004-.015.003-.015.004-.015.002-.016.004-.016.002-.016.004-.034v-.036l.002-.019L12 40.9l-.004-.02-.009-.042-.004-.024-.003-.023-.006-.048-.003-.025-.002-.027-.003-.025-.002-.027v-.027l-.003-.027-.002-.055-.002-.056v-.113l.002-.056.001-.028.001-.028.002-.027.001-.026.002-.027.003-.027.002-.025.003-.025.006-.048.003-.023.004-.024.009-.042.004-.02.005-.02.008-.038.005-.019.003-.02.004-.019.003-.02.004-.02.002-.02.003-.022.003-.02.002-.02.004-.042v-.021l.002-.02.003-.064v-.085l-.005-.105-.002-.02-.002-.022-.002-.02-.003-.021-.003-.02-.002-.02-.004-.02-.003-.02-.004-.02-.003-.02-.005-.02-.008-.037-.005-.02-.003-.02-.002-.022-.003-.023v-.099l.003-.027.004-.056.003-.029.004-.029.003-.03.004-.03.005-.031.004-.03.004-.033.01-.062.004-.033.005-.032.005-.031.004-.032.004-.032.004-.032.004-.031.003-.031.003-.03.003-.032.002-.03.002-.058.001-.029v-.055l-.003-.026-.003-.026-.003-.025-.004-.024-.005-.025-.007-.03-.008-.03-.01-.036-.01-.037-.01-.04-.013-.043-.013-.044-.014-.047-.014-.049-.015-.05-.016-.051-.015-.053-.016-.054-.017-.056-.016-.055-.035-.113-.016-.056-.017-.057-.016-.056-.016-.055-.015-.056-.016-.054-.015-.054-.014-.052-.013-.051-.012-.05-.012-.047-.01-.047-.009-.043-.01-.041-.006-.04-.005-.035-.005-.033-.003-.03-.001-.027v-.025l.002-.019.004-.016V36.034l.002-.018V35.96l.002-.018v-.019l.002-.018.002-.038v-.019l.002-.019.002-.019v-.018l.003-.02.006-.054.003-.018.002-.018.012-.068.004-.016.003-.017.008-.03.005-.015.004-.014.005-.01.005-.011.006-.011.012-.026.007-.015.008-.015.014-.032.007-.018.008-.017.014-.038.008-.02.007-.02.007-.022.007-.022.006-.022.006-.023.007-.024.015-.072.005-.025.003-.025.004-.027.002-.026.003-.026.001-.026.001-.027v-.055l-.003-.028-.003-.027-.003-.028-.005-.029-.005-.027-.007-.028-.016-.057-.01-.029-.009-.03-.01-.031-.02-.067-.011-.035-.01-.036-.011-.036-.01-.038-.01-.038-.012-.04-.01-.039-.01-.039-.01-.04-.012-.042-.01-.04-.02-.082-.01-.042-.01-.041-.008-.041-.01-.04-.009-.042-.008-.04-.016-.079-.007-.04-.007-.037-.007-.038-.006-.036-.005-.036-.01-.069-.004-.032-.003-.031-.003-.03-.003-.03-.001-.027-.001-.026-.001-.024-.008-.049-.003-.024-.004-.05-.001-.025-.002-.053v-.053l.002-.027v-.027l.002-.027.002-.027v-.027l.003-.028.002-.028.003-.027.004-.054.003-.026.004-.055.006-.078.002-.026.002-.05.001-.024v-.072l-.001-.023-.001-.022-.002-.021-.006-.042-.003-.02-.005-.02-.004-.018-.005-.019-.006-.02-.005-.017-.006-.02-.005-.018-.006-.019-.006-.018-.006-.018-.024-.073-.005-.018-.006-.017-.005-.018-.006-.017-.005-.017-.005-.016-.005-.017-.004-.017-.005-.016-.004-.016-.003-.015-.004-.015-.003-.015-.002-.015-.003-.014-.001-.014-.002-.015-.001-.013v-.037l.002-.012v-.011l.007-.022.003-.01.005-.01v-.01l-.001-.009v-.009l-.001-.01-.003-.027-.002-.009-.001-.009-.004-.018-.002-.008-.002-.01-.008-.032-.003-.007-.002-.008-.002-.007-.003-.007-.002-.006-.002-.007-.003-.006-.002-.006-.008-.02-.005-.008v-.004l-.003-.003v-.003l-.003-.004v-.003l-.002-.001v.002l-.003.005-.004.009-.005.01-.006.016-.008.017-.009.02-.01.023-.012.026-.012.027-.013.03-.013.032-.015.034-.016.036-.016.037-.016.04-.034.082-.017.043-.017.045-.037.09-.017.048-.018.047-.034.095-.017.048-.032.097-.016.047-.028.095-.013.046-.012.046-.012.044-.01.044-.01.043-.007.04-.006.041-.006.038-.005.038-.004.038-.01.075-.004.038-.01.074-.005.038-.005.036-.005.037-.004.037-.01.072-.004.036-.005.037-.005.035-.004.035-.005.035-.005.035-.004.034-.005.034-.005.033-.004.034-.005.033-.005.032-.004.031-.005.033-.005.03-.004.031-.005.03-.005.03-.004.028-.01.056-.005.027-.01.053-.004.025-.01.048-.009.023-.016.047-.007.023-.018.066-.01.045-.008.042-.003.021-.004.021-.003.022-.003.02-.002.02-.003.021-.002.02-.003.02-.004.04-.003.02-.002.02-.003.02-.004.02-.002.018-.003.02-.004.02-.003.019-.004.019-.005.02-.004.018-.005.02-.006.018-.012.038-.008.019-.007.018-.018.038-.01.014-.008.017-.01.016-.018.034-.01.02-.009.017-.027.06-.009.022-.008.02-.009.022-.016.042-.008.023-.008.02-.007.023-.008.021-.014.042-.006.022-.008.02-.006.02-.006.019-.005.02-.006.017-.004.018-.005.018-.004.016-.008.03-.006.026-.004.022-.002.01-.001.007v.007l-.001.005v.006l-.001.006-.002.007-.002.008-.003.008-.003.01-.004.01-.004.011-.01.024-.005.014-.012.028-.006.016-.007.016-.006.016-.008.017-.02.054-.015.039-.014.04-.006.021-.007.021-.006.021-.006.023-.006.02-.005.023-.005.023-.005.022-.012.07-.002.023-.003.023-.001.023-.001.024-.001.024v.019l-.001.02-.003.02-.002.021-.004.021-.005.023-.005.023-.006.022-.006.024-.007.023-.006.024-.008.025-.007.024-.008.025-.008.024-.008.025-.01.026-.015.049-.008.024-.008.025-.024.073-.008.024-.006.023-.007.023-.006.022-.01.045-.004.021-.003.021-.003.02v.02l-.002.018v.018l.001.017.001.016.003.016.005.014v.038l-.002.02-.002.019-.006.06-.012.08-.004.02-.003.021-.004.021-.004.02-.003.02-.008.04-.003.021-.004.02-.003.02-.004.02-.006.039-.002.02-.003.019-.002.018-.002.02-.003.054V37.814l.002.016.002.016.002.015.003.017.008.028.005.012.003.014.003.02.003.02v.024l.002.029v.097l-.001.039-.002.039-.002.041-.003.044-.003.044-.004.046-.004.048-.004.048-.005.048-.005.05-.012.101-.007.052-.007.05-.007.052-.007.05-.008.05-.008.049-.008.05-.008.046-.008.046-.009.045-.008.043-.01.042-.008.04-.01.037-.008.037-.01.033-.01.03-.009.028-.01.025-.009.025-.009.027-.009.03-.008.031-.008.034-.016.072-.008.04-.007.039-.007.041-.007.042-.007.044-.012.088-.019.136-.01.091-.005.044-.004.045-.005.044-.004.043-.004.042-.003.04-.004.041-.003.038-.003.037-.002.035-.003.033-.002.031-.002.03-.002.027-.001.024-.002.022-.001.02v.016l-.001.013v.022l.001.007.002.009.002.011.003.013.003.014.004.016.004.018.005.02.006.02.005.022.007.024.006.025.007.026.007.028.007.029.009.03.008.031.008.033.016.068.008.035.009.038.008.037.009.038.008.04.008.04.008.041.01.041.007.043.007.043.008.043.015.089.014.09.006.047.005.046.006.047.005.047.004.046.003.048.003.048.002.095v.096l-.001.047-.004.095-.003.046-.004.047-.004.047-.008.09-.005.046-.005.044-.006.044-.005.044-.013.084-.006.042-.006.04-.012.078-.012.075-.005.035-.006.036-.005.033-.004.032-.005.031-.004.03-.004.029-.003.027-.003.025-.002.025-.002.022-.001.022v.164l-.001.018v.034l-.001.017v.017l-.001.019v.017l-.003.051-.001.018-.001.017-.001.019-.001.017-.002.018-.001.018-.002.02-.002.017-.004.038-.003.02-.002.019-.01.06-.002.021-.004.022-.003.02-.009.045-.005.023-.004.023-.009.024-.01.023-.018.044-.009.021-.01.021-.01.022-.007.02-.018.038-.016.038-.008.018-.009.017-.007.018-.008.017-.007.017-.006.016-.007.015-.006.016-.005.015-.006.014-.005.016-.004.014-.004.013-.004.014-.003.013-.003.012-.002.013-.002.012-.001.012v.011l-.001.012V45l.002.01.002.01.002.01.003.01.004.011.004.009.005.014.016.057.018.084.01.07.001.015.002.014.002.028.002.014.001.014v.014l.003.043v.014l.001.015v.028l.001.014v.165l-.002.009-.002.009-.002.018-.002.009v.009l-.003.009-.002.008-.002.01-.004.015-.003.008-.002.008-.002.007-.003.008-.004.015-.003.006-.002.007-.004.012-.002.005-.003.006-.002.005v.004l-.007.012-.002.006-.003.006-.001.001v.001h.002l.002-.002h.004l.01-.004.003-.001.005-.001.004-.001h.005l.005-.001h.024l.022.003.007.002.008.002.024.01.008.003.008.005.01.005.008.006.008.007.01.007.017.017.01.009.01.01.009.01.009.013.01.013.009.013.009.014.009.013.016.026.007.013.014.022.006.01.006.01.01.021.006.01.016.031.006.014.003.006.004.013.006.015.003.012.003.009V46.249l.002.002v.002h0l.005.002.006.002.008.004.005.002.01.006.018.012.007.004.006.005.021.018.015.014.014.017.007.009.006.009.007.01.006.01.012.022.005.012.01.026.008.028.004.016.002.016.003.016.001.017.002.036V46.707l-.002.013V46.761l-.002.014v.026l-.002.014v.013l-.002.012v.013l-.003.013v.013l-.003.013-.01.06-.003.011-.002.011-.003.012-.003.01-.004.012-.003.01-.016.04-.005.01-.015.03-.005.011-.006.011-.006.012-.015.025-.014.026-.008.013-.016.028-.009.014-.01.014-.01.015-.01.015-.032.045-.012.015-.014.016-.013.015-.013.016-.014.015-.014.017-.031.03-.016.016-.017.016-.018.015-.018.016-.018.015-.019.016-.04.03-.021.015-.023.014-.022.015-.023.014-.028.014-.055.026-.078.037-.05.022-.025.01-.024.011-.023.01-.023.01-.023.008-.023.01-.044.015-.042.017-.06.02-.02.008-.019.006-.02.007-.035.012-.019.005-.017.006-.017.005-.017.006-.016.005-.017.005-.016.005-.015.005-.017.005-.015.004-.015.005-.014.005-.015.005-.014.005-.014.005-.014.004-.015.004-.014.004-.016.004-.015.003-.016.004-.03.006-.016.003-.015.003-.016.003-.016.003-.016.002-.015.003-.016.002-.015.002-.016.003-.015.002-.015.003-.03.004-.016.003-.015.002-.014.002-.015.003-.014.003-.014.002-.053.012-.012.003-.012.004-.012.003-.033.012-.01.004-.01.005h-.01l-.008.001-.008.001-.01.001-.008.002-.024.01-.007.003-.014.008-.007.005-.012.01-.012.012-.005.006-.006.006-.005.007-.004.007-.005.007-.004.007-.004.008-.004.007-.004.008-.003.01-.007.016-.003.009-.002.008-.003.009-.002.009v.009l-.003.009v.009l-.002.01-.002.018v.02l-.002.02-.003.012-.004.012-.005.013-.006.014-.007.014-.008.015-.009.016-.01.015-.01.017-.012.017-.012.017-.013.017-.015.018-.015.017-.015.018-.016.017-.034.037-.036.034-.039.034-.02.017-.02.016-.021.015-.021.017-.022.014-.022.014-.022.014-.023.012-.022.012-.046.022-.047.018-.023.007-.024.006-.023.007-.025.004-.027.004-.028.003-.03.004-.032.002-.034.002-.035.002H6.8l-.077.003h-.08l-.085-.002-.087-.004-.088-.004-.045-.003-.044-.004-.045-.003-.045-.004-.044-.006-.044-.004-.044-.005-.043-.006-.042-.005-.043-.006-.04-.007-.04-.006-.077-.014-.036-.008-.035-.007-.033-.008-.033-.01-.03-.007-.028-.01-.026-.008-.026-.01-.023-.008-.044-.019-.021-.009-.02-.008-.02-.009-.02-.008-.018-.008-.051-.024-.015-.007-.03-.016-.015-.008-.013-.008-.012-.007-.024-.017-.011-.009-.02-.016-.017-.017-.008-.009-.007-.009-.007-.01-.008-.01-.005-.01-.006-.01-.004-.01-.008-.022-.003-.01-.003-.013-.002-.012-.002-.013-.002-.026v-.034l-.002-.023v-.025l-.003-.013v-.013l-.002-.014-.002-.014v-.015l-.003-.015v-.014l-.003-.017v-.015l-.003-.015-.001-.015-.002-.016-.006-.09v-.015l-.001-.014v-.013l.001-.013v-.013l.002-.024.001-.011.002-.012.002-.01.002-.009.006-.016.004-.007.004-.006.012-.015.006-.01.001-.006.002-.006.001-.006v-.018l-.002-.014-.002-.007V47.8l-.009-.028-.003-.007-.004-.014-.003-.007-.004-.014-.002-.006-.002-.007v-.007l-.003-.007V47.69l-.002-.006v-.006l.001-.007v-.006l.004-.012.002-.005.003-.005.008-.01.063-.062v-.001h-.002l-.001-.001-.004-.002-.003-.002-.003-.001-.006-.004-.005-.002-.004-.003-.004-.002-.004-.003-.004-.002-.004-.003-.005-.004-.005-.004-.004-.003-.005-.003-.005-.004-.004-.004-.005-.003-.004-.004-.005-.004-.008-.008-.004-.005-.008-.008-.003-.005-.003-.004-.003-.005-.003-.004-.002-.005-.002-.004-.002-.01-.001-.004v-.015l-.001-.01v-.01l-.002-.023-.002-.024-.002-.012-.001-.012-.008-.052-.004-.029-.002-.013-.002-.014-.003-.014-.002-.014-.006-.028L5 47.152l-.003-.015-.002-.014-.002-.013-.002-.014-.006-.04v-.012l-.003-.013v-.012l-.003-.012-.002-.023V46.943l-.006-.01-.003-.012-.003-.013-.003-.014-.002-.015v-.018l-.002-.018v-.061l.001-.023.001-.025.001-.025.002-.026.002-.027.002-.028.004-.06.002-.032.003-.032.002-.033.004-.071.003-.035.001-.038.004-.076.001-.04.002-.08V45.961l-.002-.045-.002-.044-.002-.045-.003-.047-.008-.092-.005-.048-.005-.048-.004-.05-.005-.05-.004-.05-.005-.05-.004-.052-.004-.052-.004-.052-.008-.104-.003-.053-.004-.052-.006-.105-.002-.051-.003-.052-.002-.051-.001-.05-.002-.05-.001-.05V44.388l.003-.043.002-.042.002-.04.003-.04.004-.036.004-.037.004-.034.005-.032.006-.03.007-.029.007-.027.007-.024.01-.022.008-.02.01-.022.008-.027.01-.031.008-.036.008-.042.008-.044.008-.048.008-.054.007-.055.007-.06.007-.061.007-.064.006-.068.006-.07.006-.071.006-.073.006-.074.005-.076.005-.076.005-.078.004-.077.005-.079.004-.078.004-.078.003-.077.004-.076.004-.076.003-.074.002-.073.003-.07.002-.07.002-.066.002-.065v-.061l.002-.059.002-.055v-.184l.002-.038v-.076l.005-.079.002-.04.003-.04.002-.04.003-.04.004-.04.003-.042.004-.04.004-.041.005-.04.004-.042.004-.04.005-.04.004-.042.005-.04.005-.04.004-.04.01-.078.004-.04.005-.038.008-.077.004-.037.008-.072.006-.07.004-.035.002-.033.003-.034v-.032l.003-.031.002-.06v-.029l-.004-.029-.003-.031-.002-.033-.001-.034v-.073l.003-.039.002-.04.004-.04.004-.043.005-.043.005-.044.006-.044.006-.047.007-.045.014-.095.008-.047.016-.097.008-.047.01-.049.023-.145.017-.094.008-.047.007-.046.007-.045.006-.045.012-.086.005-.042.004-.041.004-.04.003-.038.002-.036.001-.035.001-.034v-.068l.001-.034.002-.07.001-.037.004-.073.004-.074.003-.037.003-.039.004-.037.003-.037.004-.038.005-.038.004-.037.005-.037.006-.037.005-.037.006-.036.007-.035.007-.037.008-.034.007-.034.008-.034.008-.034.009-.032.018-.062.02-.059.011-.028.011-.026.012-.026.025-.049.013-.022.013-.02.014-.02.018-.037.008-.018.008-.017.007-.017.007-.016.006-.016.012-.03.01-.03.008-.029.005-.013.006-.026.002-.013.004-.024v-.012l.002-.012V36.6l-.001-.01-.001-.011-.006-.03-.002-.01-.006-.02-.004-.009-.004-.01-.008-.018-.004-.01-.005-.009v-.046l-.003-.03v-.017l-.002-.017v-.018l-.003-.02-.002-.04v-.02l-.002-.023-.002-.046v-.152l.002-.082.006-.084.003-.03.003-.028.008-.058.005-.028.005-.03.007-.029.007-.03.007-.027.007-.03.018-.056.028-.058.015-.03.014-.032.03-.064.016-.034.03-.068.015-.035.016-.036.03-.07.03-.073.016-.037.014-.036.015-.037.014-.036.014-.037.028-.073.013-.036.027-.07.012-.036.024-.068.022-.067.02-.064.018-.06.008-.03.008-.028.007-.027.006-.026.006-.026.006-.024.009-.024.009-.023.009-.022.008-.023.009-.023.008-.022.008-.021.014-.042.008-.02.006-.02.007-.02.007-.02.006-.018.006-.02.005-.016.006-.017.006-.018.005-.016.01-.03.004-.015.008-.026.003-.013.004-.011.006-.023.003-.009.002-.009.004-.016.002-.006v-.006l.003-.005v-.004l.002-.003v-.004l-.001-.004-.001-.005-.003-.007-.003-.01-.003-.011-.01-.027-.004-.018-.005-.018-.007-.02-.006-.022-.007-.024-.008-.025-.008-.028-.008-.028-.008-.03-.009-.031-.009-.034-.009-.035-.01-.035-.009-.037-.01-.04-.01-.04-.01-.041-.011-.043-.01-.043-.011-.045-.01-.046-.012-.047-.01-.048-.01-.05-.021-.1-.011-.053-.02-.107-.01-.054-.01-.055-.01-.057-.003-.057-.004-.06-.004-.062-.004-.064-.003-.065-.002-.067-.002-.068-.002-.07v-.07l-.002-.072v-.51l.001-.072.001-.073.002-.14.001-.07.002-.068.001-.065.002-.066.001-.062.002-.062.002-.058.002-.056.002-.055v-.051l.002-.05.002-.045v-.043l.002-.04v-.069l.002-.028v-.61l-.004.008-.005.01-.006.01-.004.009-.01.018-.004.01-.01.018-.004.009-.01.018-.004.01-.005.008-.005.008-.004.01-.005.008-.005.008-.004.009-.005.009-.01.016-.004.008-.005.007-.005.008-.004.007-.005.008-.005.007-.004.007-.005.007-.005.006-.005.007-.01.012-.004.006-.005.006-.005.005-.004.006-.01.01-.013.023-.028.046-.013.022-.013.023-.013.022-.012.022-.014.02-.012.022-.024.04-.012.02-.011.02-.012.018-.022.036-.022.034-.01.016-.012.016-.01.015-.01.014-.01.014-.01.013-.021.024-.01.011-.03.03-.01.008-.009.007-.01.007-.009.005-.01.005-.009.004-.01.003-.009.003h-.009l-.01.002h-.037l-.01-.001h-.044l-.008-.001h-.009l-.008-.001H5.48l-.008-.001h-.007l-.014-.002-.018-.003-.005-.002-.005-.001-.004-.002-.005-.002-.004-.001-.003-.003-.003-.002-.002-.002-.002-.003v-.002l-.002-.003v-.003l.001-.005.001-.003.001-.004.01-.012.005-.005.005-.006.008-.009.009-.012.01-.014.013-.017.014-.02.015-.02.017-.025.018-.025.02-.027.02-.028.022-.03.046-.065.024-.033.027-.034.026-.036.026-.036.027-.036.028-.036.03-.037.028-.036.058-.073.03-.035.03-.035.03-.034.03-.034.03-.032.058-.06.029-.028.028-.027.028-.024.029-.023.027-.02.026-.02.025-.014.025-.015.025-.01.005-.005.004-.005.005-.006.005-.005.004-.006.005-.005.005-.006.004-.006.005-.007.005-.006.004-.006.01-.014.004-.006.01-.014.004-.007.01-.015.01-.014.004-.007.004-.007.01-.014.004-.007.005-.006.006-.007.004-.007.005-.006.005-.007.004-.006.01-.012.004-.006.005-.005.005-.006.004-.005.01-.01v-.021l.003-.012.002-.006.001-.006.002-.006.001-.007.008-.028.002-.008.003-.007.004-.016.003-.008.004-.017.002-.009.003-.008.002-.009.002-.008.002-.009.003-.009.002-.009.001-.01.006-.026.002-.018.001-.01.003-.028v-.019l-.014-.005-.016-.005-.016-.006-.017-.006-.018-.007-.02-.007-.02-.007-.02-.008-.02-.008-.023-.008-.046-.018-.049-.019-.025-.01-.052-.02-.055-.02-.028-.011-.028-.01-.059-.022-.03-.01-.09-.034-.063-.022-.032-.01-.031-.01-.065-.023-.033-.01-.032-.011-.033-.01-.066-.02-.032-.01-.034-.01-.037-.01-.038-.01-.04-.013-.038-.013-.078-.028-.079-.032-.04-.018-.037-.017-.04-.018-.076-.036-.075-.038-.036-.02-.07-.038-.035-.019-.033-.02-.033-.017-.032-.02-.03-.018-.03-.017-.027-.017-.026-.016-.026-.016-.024-.015-.022-.014-.021-.013-.02-.013-.016-.011-.017-.01-.014-.01-.01-.008-.01-.007-.009-.005-.005-.004-.004-.003h-.001l.012.012.003.004.005.005.01.012.006.006.012.017.007.008.008.009.008.009.007.01.024.033.008.012.009.012.008.013.01.013.015.029.01.015.023.045.008.016.008.017.008.016.014.035.018.054.005.018.005.02.005.014.005.015.012.032.014.034.014.036.008.019.008.019.01.019.008.019.063.141.01.02.01.02.008.02.01.019.01.02.008.018.01.019.018.036.008.018.008.017.008.017.008.016.008.015.014.028.006.013.007.013.005.011.006.011.005.01.004.01.005.014.006.015.005.017.006.02.006.021.007.024.006.026.006.028.007.03.007.03.014.069.007.037.008.038.007.04.008.043.008.043.008.045.008.046.008.048.008.05.01.05.007.051.019.107.009.056.009.056.009.058.009.058.018.119.018.123.01.063.01.063.017.129.01.065.01.066.009.066.01.068.018.139.01.071.009.072.018.145.01.073.008.073.037.294.009.073.008.072.009.072.008.07.009.07.008.07.008.067.008.066.008.065.008.063.007.062.008.06.007.058.007.055.007.053.007.052.008.05.006.045.006.044.006.04.006.037.006.035.005.03.006.03.005.023.004.021.005.024.004.023.004.024.008.046.003.023.004.024.003.022.003.023.002.022.003.022.002.022.003.023.002.02.001.022.002.02.002.021.001.02.002.02.001.019.002.036.002.034v.017l.001.015.001.017v.028l.001.013v.046l.001.01v.035l-.005.01-.006.01-.006.014-.007.013-.008.015-.008.016-.008.017-.009.017-.01.02-.02.038-.01.02-.01.021-.011.021-.013.021-.022.043-.012.022-.01.021-.025.042-.011.02-.012.022-.012.019-.023.038-.01.018-.012.017-.01.017-.01.015-.01.014-.009.013-.01.012-.008.01-.008.009-.007.008-.007.006-.006.004-.006.003-.005.001-.004-.002-.004-.007-.005-.01-.003-.014-.003-.017-.003-.021-.002-.024-.002-.029-.002-.03v-.034l-.003-.037v-.04l-.002-.041v-.044l-.002-.048v-.048l-.002-.05v-.053l-.002-.054v-.056l-.002-.057-.002-.059v-.059l-.003-.06-.002-.062-.002-.062-.003-.063-.009-.19-.004-.064-.005-.063-.01-.125-.006-.063-.007-.061-.007-.06-.007-.06-.01-.058-.008-.058-.01-.052-.018-.107-.008-.054-.009-.056-.016-.113-.016-.115-.007-.058-.008-.058-.007-.059-.008-.06-.007-.058-.021-.178-.007-.058-.015-.12-.02-.175-.008-.057-.008-.057-.007-.057-.014-.11-.008-.056-.007-.054-.008-.053-.008-.052-.008-.052-.008-.05-.016-.097-.01-.047-.009-.046-.009-.044-.009-.043-.009-.042-.02-.09-.01-.044-.011-.046-.01-.046-.011-.046-.033-.143-.013-.047-.01-.047-.013-.047-.012-.047-.024-.093-.013-.046-.012-.045-.026-.089-.013-.043-.014-.043-.026-.08-.013-.04-.014-.037-.013-.036-.014-.035-.013-.034-.014-.032-.014-.029-.015-.028-.014-.026-.013-.026-.014-.022-.014-.02-.014-.018-.014-.015-.014-.013-.014-.011-.015-.01-.013-.012-.01-.013-.023-.028-.009-.016-.009-.017-.016-.036-.007-.02-.012-.04-.006-.022-.005-.021-.004-.022-.005-.022-.008-.045-.005-.023-.003-.022-.004-.022-.003-.022-.003-.022-.004-.022-.003-.02-.004-.021-.003-.02-.008-.039-.004-.017-.005-.017-.005-.016-.005-.015-.012-.026-.006-.011-.007-.01-.008-.008-.008-.007-.01-.007-.01-.005-.01-.006-.009-.006-.01-.007-.01-.007-.01-.008-.01-.009-.012-.008-.01-.009-.011-.01-.01-.01-.011-.01-.031-.031-.01-.012-.01-.01-.01-.01-.01-.01-.01-.012-.009-.01-.009-.011-.009-.01-.008-.01-.008-.01-.008-.01-.007-.007-.007-.01-.007-.007-.006-.008-.005-.008-.01-.012-.009-.01-.003-.003-.004-.006h0V27.688l.001.012v.014l.001.014v.015l.001.015.001.016.001.017.001.017.001.018.001.017.001.018.002.02.002.017.001.02.003.018.004.038.003.018.002.02.009.054.003.017.008.034.003.016.005.016.004.015.004.014.005.015.006.016.006.017.007.018.008.018.016.04.018.043.01.022.01.022.02.046.01.024.01.024.023.048.01.024.011.023.01.025.011.023.01.023.03.066.01.022.009.02.008.02.008.019.008.018.007.017.006.016.006.015.005.015.005.012.004.012.003.01.002.008.001.007.001.006v.019l-.002.008v.01l-.002.01-.002.01v.011l-.003.013-.004.026-.002.014-.003.013-.002.014-.003.015-.006.028-.003.016-.004.014-.003.014-.004.014-.003.014-.008.026-.008.024-.004.011-.004.01-.005.01-.004.009-.004.008-.005.006-.005.006-.01.008-.004.002h-.005l-.004-.001-.005-.002-.005-.004-.004-.005-.005-.006-.005-.007-.005-.008-.014-.029-.005-.01-.005-.013-.005-.013-.006-.014-.005-.014-.006-.015-.005-.016-.006-.016-.006-.018-.007-.018-.006-.018-.008-.019-.02-.06-.025-.067-.008-.023-.009-.023-.01-.024-.01-.025-.008-.024-.011-.025-.01-.026-.023-.053-.012-.026-.024-.054-.013-.028-.013-.028-.042-.084-.053-.11-.024-.051-.012-.026-.012-.026-.011-.025-.011-.024-.01-.024-.011-.025-.01-.024-.01-.023-.028-.066-.016-.043-.008-.02-.014-.04-.006-.018-.006-.02-.006-.017-.006-.018-.005-.016-.008-.032-.004-.015-.006-.028-.003-.013-.004-.025-.001-.01v-.01l-.001-.01v-.253h-.001v-.003h-.002l-.001-.004-.001-.002-.002-.003-.002-.004-.003-.003-.003-.004-.002-.005-.003-.004-.003-.005-.004-.005-.003-.005-.004-.005-.004-.006-.005-.005-.004-.006-.015-.018-.012-.013-.006-.007-.012-.012-.028-.024-.025-.018-.008-.005-.008-.006-.027-.015-.01-.005-.009-.004-.009-.005-.01-.005-.01-.004-.008-.005-.01-.005-.064-.036-.008-.005-.009-.006-.009-.005-.008-.006-.008-.005-.01-.006-.023-.018-.007-.006-.008-.007-.008-.006-.008-.007-.014-.014-.006-.007-.007-.008-.007-.008-.018-.024-.005-.008-.006-.009-.015-.027-.004-.014-.005-.013-.004-.013-.008-.025-.003-.012-.004-.01-.003-.012-.006-.02-.003-.009-.002-.01-.004-.008-.003-.008-.002-.008-.003-.007-.004-.014-.003-.007-.002-.007-.003-.005-.002-.006-.002-.005-.003-.004-.002-.005-.003-.004-.002-.003-.003-.004-.008-.008-.004-.002-.006-.004-.008-.002h-.003l-.005-.002h-.017l-.005-.003-.003-.002-.008-.006-.003-.004-.004-.005-.003-.004-.003-.005-.004-.006-.003-.005-.003-.007-.006-.012-.007-.014-.004-.008-.003-.007-.004-.007-.003-.007-.004-.007-.004-.006-.008-.014-.004-.006-.005-.007-.005-.006-.005-.005-.005-.006-.012-.01-.006-.004-.007-.004-.014-.006-.008-.002-.01-.002-.007-.001h-.059l-.006-.001h-.013l-.005-.001-.006-.001h-.005l-.005-.001-.004-.001-.005-.002-.004-.001-.004-.002-.004-.001-.004-.002-.003-.003-.004-.002-.01-.01-.004-.003-.006-.008-.003-.005-.003-.004-.003-.006-.003-.005-.004-.006-.003-.006-.004-.006-.003-.007-.012-.024-.005-.008-.004-.01v-.01l-.002-.01-.002-.012-.003-.013-.004-.013-.004-.014-.005-.015-.006-.015-.006-.016-.007-.016-.007-.017-.008-.018-.016-.036-.037-.076-.009-.02-.01-.02-.018-.04-.01-.021-.01-.02-.007-.02-.01-.02-.007-.02-.01-.02-.02-.057-.007-.02-.006-.018-.005-.017-.005-.018-.003-.016-.003-.017-.003-.015v-.045l.001-.016.003-.016.004-.017.004-.018.006-.018.007-.02.007-.02.009-.02.009-.022.01-.02.01-.023.01-.023.025-.047.012-.024.013-.023.013-.025.029-.048.028-.05.015-.025.014-.025.015-.025.015-.025.014-.025.015-.024.029-.048.028-.047.013-.023.013-.022.024-.044.012-.021.011-.02.01-.02.01-.02.01-.018.009-.02.009-.02.016-.038.009-.02.007-.019.008-.02.014-.038.007-.02.007-.02.006-.019.007-.018.006-.02.005-.017.006-.017.005-.018.006-.018.005-.016.004-.017.005-.015.008-.03.003-.014.004-.013.006-.025.002-.01.003-.012.004-.018.002-.008v-.007l.003-.005V24.357l.002-.003v-.002h0l-.003-.001-.005-.001-.006-.002-.007-.002-.01-.002-.01-.003-.012-.003-.029-.008-.016-.004-.017-.005-.018-.004-.02-.006-.018-.005-.043-.013-.022-.007-.023-.006-.046-.014-.025-.008-.025-.007-.024-.008-.075-.024-.026-.01-.024-.007-.025-.01-.073-.027-.046-.018-.044-.018-.021-.01-.02-.009-.02-.009-.014-.01-.016-.01-.016-.011-.017-.01-.017-.012-.039-.025-.019-.013-.04-.026-.042-.028-.043-.03-.02-.016-.023-.017-.021-.016-.022-.017-.043-.034-.042-.036-.02-.018-.02-.02-.039-.038-.036-.04-.017-.02-.016-.021-.03-.043-.013-.021-.013-.022-.023-.044-.009-.024-.008-.022-.007-.023-.005-.024-.005-.023-.004-.022-.005-.023-.005-.02-.005-.021-.004-.02-.005-.018-.01-.037-.005-.017-.01-.032-.01-.03-.005-.013-.006-.014-.005-.012-.007-.012-.005-.013-.006-.01-.006-.01-.012-.019-.007-.009-.006-.008-.007-.007-.006-.007L1.176 23l-.007-.005-.008-.005-.007-.004-.008-.004-.016-.006-.01-.002-.008-.001-.009-.002h-.009l-.009-.001h-.052l-.008-.001h-.007l-.007-.001h-.007l-.007-.001-.006-.002-.006-.001-.005-.002-.007-.001-.005-.004-.004-.002-.005-.003-.008-.006-.006-.008-.002-.004-.003-.005-.002-.005-.002-.012v-.038l.002-.01.001-.01.003-.01.002-.011.003-.012.012-.039.005-.014.01-.026.007-.011.005-.012.006-.011.005-.01.012-.02.006-.01.006-.01.005-.009.006-.009.006-.008.005-.009.006-.01.025-.044.008-.02.004-.012.003-.01.006-.024.002-.012.002-.013.002-.028.001-.015v-.034l-.002-.018-.002-.018-.002-.02-.003-.02-.004-.022-.004-.024-.005-.024-.005-.026-.005-.027-.006-.028-.005-.03-.006-.032-.006-.032-.006-.033-.012-.069-.018-.109-.006-.037-.007-.037-.012-.077-.006-.037-.007-.038-.006-.038-.006-.038-.005-.036-.006-.037-.005-.037-.01-.07-.005-.034-.004-.034-.005-.032-.004-.031-.003-.03-.004-.029-.003-.027-.002-.026-.003-.024-.001-.023-.002-.02-.001-.02-.001-.017v-.203l-.004-.002-.004-.001-.006-.003-.007-.003-.01-.003-.01-.004-.024-.01-.014-.006-.014-.006-.048-.02-.018-.009-.017-.008-.02-.008-.018-.009-.019-.009-.018-.01-.02-.01-.017-.008-.02-.01-.036-.02-.017-.012-.017-.01-.016-.01-.015-.01-.014-.012-.014-.01-.013-.01-.022-.021-.009-.011-.007-.01-.006-.01-.005-.01-.002-.01v-.019l.001-.01.008-.022.006-.011.006-.012.008-.012.01-.012.009-.013.01-.013.022-.027.012-.014.013-.014.013-.015.013-.014.07-.076.014-.015.014-.016.014-.015.013-.016.013-.015.013-.016.012-.015.011-.017.012-.015.01-.016.01-.015.008-.015.008-.016.012-.03.004-.015.004-.015.002-.014v-.97l-.002-.016-.006-.036-.005-.02-.012-.042-.007-.023-.016-.046-.01-.024-.02-.05-.01-.027-.01-.025-.012-.026-.012-.027-.011-.026-.012-.026-.011-.026-.012-.026-.012-.026-.011-.025-.012-.024-.012-.024-.01-.023-.01-.023-.01-.022-.01-.02-.009-.021-.01-.02-.007-.016-.007-.016-.006-.016-.006-.014-.004-.013-.004-.01-.003-.009-.001-.008-.001-.005V18.193l.005-.008.003-.004.007-.007.004-.003.005-.003.005-.002.006-.003.005-.002.006-.002.007-.002.006-.002.014-.004.006-.001.007-.002.036-.005h.007l.006-.001h.006l.006-.001H.61l.006-.001h.021l.003-.001h.005v-.043l-.001-.014v-.074l-.001-.024v-.023l-.001-.025v-.025l-.002-.054-.001-.029-.003-.087-.002-.03-.001-.03-.002-.03-.001-.03-.004-.059-.003-.029-.004-.056-.006-.053L.61 17.4l-.003-.024L.6 17.33l-.003-.02-.005-.019-.004-.017-.004-.015-.001-.01v-.023l-.001-.013L.58 17.2l-.001-.015-.001-.017v-.017l-.001-.017-.004-.057v-.153l.001-.025.002-.023.004-.048.003-.024.003-.023.003-.025.004-.024.01-.048.012-.047.007-.023.008-.023.018-.044.01-.021.011-.022.012-.02.026-.039.015-.014.013-.014.024-.026.011-.013.02-.027.018-.024.008-.012.008-.011.007-.012.006-.011.008-.011.005-.01.006-.011.004-.01.005-.01.004-.01.004-.01.009-.027.002-.008.002-.01.004-.015v-.007l.002-.008.002-.014v-.02l.002-.006v-.03l-.001-.006v-.005l-.001-.005-.003-.018-.006-.018-.004-.014-.003-.006-.002-.007-.012-.029-.004-.007-.003-.007-.004-.007-.003-.007-.004-.007-.005-.006-.016-.028-.005-.006-.004-.007-.004-.006-.005-.006-.004-.006L.8 15.85l-.004-.006-.005-.007-.005-.005-.004-.005-.01-.01.001-.005v-.005l.001-.006.002-.006.004-.014.006-.014.003-.008.004-.008.004-.01.004-.007.004-.01.015-.027.006-.009.005-.009.006-.01.005-.009.007-.009.006-.01.006-.009.007-.01.024-.035.007-.008.024-.033.006-.007.005-.007.006-.006.005-.007.005-.005.005-.006.01-.01.004-.005.013-.021.003-.008.009-.027.002-.01.008-.045.003-.036v-.078l-.003-.039-.008-.052-.002-.013-.012-.048-.009-.022-.008-.02-.005-.01-.004-.01-.004-.01-.004-.01-.003-.01-.003-.013-.002-.01-.004-.025v-.012l-.002-.013v-.078l.004-.065.001-.012.002-.013.001-.012.002-.013.001-.012.002-.01.001-.012.002-.01.003-.022.001-.01.002-.008.001-.01.002-.015v-.007l.001-.006v-.074H.957l-.002-.001-.003-.001-.008-.002-.006-.002-.006-.001-.006-.002-.008-.003-.008-.002-.008-.003-.018-.006-.01-.003-.01-.004-.034-.012-.012-.005-.012-.004-.012-.005-.012-.006-.012-.006-.012-.006-.013-.006-.012-.006-.013-.006-.013-.007-.013-.007-.024-.014-.012-.008-.011-.008-.012-.008-.011-.008-.01-.01-.011-.008-.01-.01-.01-.008-.01-.01-.009-.009-.008-.009-.009-.008-.008-.009-.008-.008-.008-.007-.007-.008-.021-.021-.006-.007-.006-.006-.006-.007-.005-.006-.005-.005-.005-.006-.012-.015-.003-.004-.003-.006-.004-.004-.002-.004-.002-.003v-.004l-.003-.006v-.007l.002-.004h.002l.002-.003.007-.002h.017l.005-.002.012-.006.007-.004.007-.005.007-.006.008-.007.008-.008.008-.01.01-.01.008-.01.018-.024.02-.029.02-.032.01-.017.01-.018.023-.04.01-.022.011-.022.022-.046.011-.025.023-.053.01-.028.022-.058.01-.03.021-.065.011-.033.01-.035.01-.035.01-.036.01-.037.008-.038.01-.036.009-.035.008-.034.009-.034.008-.033.016-.062.008-.03.007-.029.008-.028.007-.027.008-.026.014-.05.014-.047.007-.022.008-.022.014-.04.014-.036.008-.017.007-.017.014-.03.007-.015.008-.013.007-.012.008-.012.008-.01.008-.011.016-.018.008-.007.01-.008.018-.012.009-.005.01-.006.01-.005.013-.005.013-.005.014-.006.03-.012.052-.018.018-.007.02-.006.057-.021.02-.006.1-.035.02-.008.02-.007.019-.007.018-.007.02-.007.016-.007.018-.006.017-.007.016-.006.015-.007.028-.012.012-.006.011-.006.011-.005.01-.006.007-.005.007-.005.01-.01.004-.005.009-.013.008-.014.003-.007.004-.008.003-.008.004-.009.003-.009.004-.009.004-.01.003-.01.008-.02.008-.022.004-.013.005-.01.015-.037.006-.013.006-.012.006-.013.021-.04.008-.014.01-.013.008-.014.01-.013.02-.028.01-.014.025-.028.013-.015.028-.028.027-.028.036-.042.01-.013.012-.014.01-.015.01-.013.01-.013.008-.014.01-.013.016-.026.008-.012.007-.013.006-.012.007-.013.006-.012.005-.01.006-.012.005-.012.004-.01.005-.011.004-.01.003-.01.004-.01.006-.018.002-.008.002-.01.002-.007.002-.008.002-.014.002-.012v-.019l.002-.018.002-.008.001-.01.004-.015.003-.007.002-.008.003-.008.002-.007.003-.006.003-.007.002-.006.003-.006.002-.005.002-.006.004-.01.002-.01.001-.004v-.011l-.003-.004-.004-.006-.003-.003-.004-.002-.005-.002-.012-.004-.007-.002-.018-.002-.01-.001h-.011l-.013-.001h-.023l-.01-.001-.01-.002-.012-.002-.01-.003-.012-.004-.024-.008-.012-.005-.026-.013-.012-.006-.013-.007-.014-.008-.013-.007-.013-.009-.013-.008-.014-.009-.012-.009-.026-.018-.013-.01-.012-.01-.013-.01-.013-.01-.01-.01-.013-.012-.022-.02-.01-.01-.01-.01-.01-.012-.01-.01-.007-.011-.01-.01-.013-.02-.013-.02-.005-.01-.004-.014-.004-.013-.003-.013-.002-.013-.002-.012v-.011l-.002-.012v-.022l.001-.01.004-.02.002-.01.003-.01.006-.018.004-.008.004-.01.005-.007.005-.008.004-.01.005-.007.005-.007.006-.008.005-.009.012-.016.005-.008.006-.007.018-.024.005-.008.006-.008.006-.01.005-.007.006-.01.015-.026v-.314l-.004.002-.004.001-.003.002-.005.002-.005.003-.012.006-.007.003-.024.012-.01.004-.01.005-.008.005-.01.004-.01.005-.01.004-.012.005-.01.005-.01.004-.012.005-.01.004-.011.005-.011.004-.04.016-.01.003-.01.003-.008.003-.009.003-.008.002-.007.002-.007.001-.012.002h-.005l-.004-.005-.004-.006-.004-.008-.003-.008-.003-.01-.002-.01-.002-.011-.001-.013-.001-.012-.002-.029v-.047l.003-.034.002-.018v-.019l.003-.018.003-.018.002-.019.006-.038.003-.02.006-.039.02-.095.008-.037.005-.018.004-.017.005-.016.004-.017.01-.03.004-.016.006-.014.004-.014.003-.015.004-.014.002-.015.003-.015.002-.015.002-.016v-.016l.003-.016v-.015l.002-.016v-.077l.002-.017v-.134l.002-.013v-.027l.003-.013v-.013l.005-.024.003-.012.002-.011.004-.011.003-.012.004-.01.005-.009.005-.015.005-.016.007-.018.014-.04.008-.023.01-.023.007-.024.01-.025.01-.026.01-.027.01-.029.023-.058.022-.06.012-.032.011-.031.024-.063.011-.032.013-.031.01-.032.013-.032.033-.094.011-.03.01-.03.01-.03.02-.056.01-.027.016-.053.007-.024.007-.023.007-.022.005-.022.005-.019.006-.019.012-.036.008-.018.009-.017.01-.018.01-.017.01-.017.01-.016.025-.032.026-.03.042-.043.014-.013.03-.026.015-.011.016-.012.016-.011.03-.02.016-.01.015-.01.03-.016.015-.007.015-.007.028-.012.013-.005.026-.008.012-.003.012-.002.011-.002h.03l.01-.002.023-.004.012-.003.013-.003.026-.008.028-.01.016-.006.014-.005.015-.006.015-.007.016-.006.03-.014.016-.008.015-.006.076-.035.014-.007.014-.006.013-.007.013-.006.013-.005.013-.006.012-.005.01-.004.012-.005.01-.004.009-.003.008-.003.008-.002.007-.002.006-.001h.005l.005-.001.005-.005.006-.007.006-.01.007-.013.016-.03.008-.019.009-.02.009-.021.02-.049.01-.026.011-.026.024-.056.012-.03.027-.058.028-.059.015-.029.015-.028.016-.028.016-.027.016-.027.017-.025.019-.024.018-.023.018-.021.019-.02.02-.018.02-.015.02-.013.022-.01.02-.01.023-.005.022-.003h.022l.024.003.023.004.022.003.022.002.02.001h.038l.019-.003.017-.002.017-.003.016-.003.016-.004.015-.005.028-.01.014-.006.014-.005.012-.006.013-.006.012-.006.023-.012.011-.005.012-.006.011-.006.033-.012.01-.003.012-.003.01-.002h.035l.012.001.012.003.012.004.013.004.013.006.014.009.014.008.02.018.01.007.022.014.012.006.011.005.012.005.013.004.012.004.014.003.012.003.039.006.013.001.014.001.013.001h.077l.012-.002h.011l.012-.002.022-.002.01-.002.02-.002.019-.002h.008l.007-.002h.086l.001-.002h0l.002-.005.002-.002.001-.002.002-.003.003-.003.002-.003.004-.003.003-.004.007-.007.004-.003.004-.004.01-.008.005-.003.006-.004.006-.003.006-.004.014-.006.008-.002.007-.003.01-.002.007-.003h.01l.02-.003h.02l.023.002.012.003.013.002.012.003.028.008.014.005.015.005.017.005.016.006.017.005.034.012.02.006.017.006.058.018.02.006.02.007.1.03.02.006.04.013.02.005.02.005.018.006.019.004.036.01.034.008.018.003.016.004.015.003.014.002.014.003.013.002.013.001.022.002h.02l.01.001h.01l.03.003.01.001.011.002.011.001.033.006.01.002.045.008.01.003.01.002.012.002.01.003.011.002.01.002.01.003.01.002.01.002.01.002.018.004.008.002.009.001.008.002.007.001.008.002.007.001.012.002h.012l.004.001.005-.006.01-.014.012-.02.005-.01.006-.014.008-.013.006-.014.014-.03.007-.017.014-.034.007-.018.024-.054.016-.039.008-.018.008-.019.01-.02.007-.017.01-.018.009-.017.017-.035.018-.032.009-.015.01-.014.009-.013.018-.024.02-.02.008-.008.01-.007.01-.005h.028l.014-.003.042-.009.014-.005.014-.004.015-.006.015-.006.014-.007.015-.007.014-.008.015-.008.014-.01.045-.03.016-.01.03-.025.016-.012.015-.013.016-.013.015-.014.033-.028.017-.015.016-.016.017-.016.016-.016.017-.016.017-.017.018-.017.018-.017.018-.017.092-.093.02-.018.023-.02.022-.018.024-.019.05-.036.028-.018.056-.034.03-.017.093-.049.033-.015.033-.014.035-.014.07-.026.036-.012.075-.023.037-.01.039-.009.039-.008.078-.014.081-.01.04-.003.083-.004h.041l.043.001.04.002.086.008.042.006.084.016-.005-.009-.004-.009-.004-.01-.008-.018-.003-.01-.004-.01-.003-.01-.004-.008-.003-.01-.003-.01-.006-.018-.004-.01-.006-.018-.003-.01-.003-.01-.004-.008-.003-.01-.004-.01-.003-.008-.004-.01-.008-.019-.005-.01-.004-.009-.005-.009-.005-.01-.012-.018-.006-.01-.007-.01-.007-.008-.007-.01-.007-.01-.008-.008-.008-.01-.018-.019-.014-.02-.026-.04-.024-.044-.012-.024-.012-.024-.02-.048-.01-.025-.009-.026-.008-.026-.009-.026-.007-.026-.008-.026-.006-.026-.007-.027-.005-.026-.006-.026-.005-.026-.004-.026-.008-.05-.003-.025L7.97 4.6l-.004-.047-.002-.044v-.061l.002-.017.002-.018.004-.032.003-.013.004-.013.004-.011.004-.01.005-.011.004-.011.008-.027.004-.015.004-.016.003-.017.003-.018.006-.038.003-.021.003-.02.003-.023.002-.022.003-.022.002-.023.002-.022.003-.025.002-.023.005-.047.002-.023.003-.023.004-.047.006-.044.002-.021.003-.021.006-.04.006-.037.004-.017.003-.016.004-.015.005-.015.004-.013.004-.01.01-.02.006-.01.014-.025.009-.013.009-.014.009-.015.011-.016.01-.015.012-.016.011-.017.025-.034.013-.018.012-.018.013-.019.013-.019.013-.018.013-.019.013-.018.013-.02.012-.018.013-.019.013-.019.012-.018.01-.018.012-.017.01-.018.011-.017.009-.016.01-.018.007-.015.007-.015.006-.015.006-.013.005-.013.004-.013.004-.022.001-.01.019-.037.007-.015.009-.017.009-.02.01-.02.01-.02.013-.023.012-.024.013-.025.013-.026.015-.026.014-.029.016-.028.016-.03.016-.03.051-.093.073-.129.019-.033.038-.065.02-.032.02-.032.02-.031.019-.032.02-.03.02-.031.02-.03.02-.028.019-.029.019-.027.02-.026.019-.025.018-.024.02-.024.04-.046.02-.022.045-.044.022-.022.023-.022.025-.02.023-.021.025-.02.024-.02.05-.038.05-.036.027-.017.025-.016.053-.032.025-.015.026-.015.025-.014.026-.013.05-.024.026-.011.05-.02.024-.008.024-.01.024-.006.023-.006.022-.006.022-.005.022-.005.022-.003.04-.004h.038l.02-.003.023-.003.046-.01.025-.007.026-.007.055-.018.029-.01.03-.01.03-.011.065-.024.033-.012.034-.014.036-.013.036-.012.036-.013.037-.013.077-.026.04-.012.04-.012.04-.011.041-.012.041-.01.043-.01.043-.01.087-.016.088-.012.046-.004.045-.003.046-.002.046-.001.046.001.047.002zm5.005 6.154v.014l-.001.007v.02l-.002.023-.001.014-.001.016-.002.016-.004.034-.003.02-.002.018-.004.02-.003.02-.004.022-.005.02-.006.023-.012.044-.006.024-.007.022-.016.044-.009.021-.01.02-.01.02-.01.019-.01.018-.01.017-.011.017-.023.03-.01.014-.013.013-.022.025-.011.01-.011.009-.01.009-.011.007-.01.006-.01.005-.01.004-.007.003-.01.002-.008.001h-.016l-.02.001-.023.001-.026.002-.028.002-.03.003-.034.002-.033.004-.073.006-.036.004-.038.004-.038.004-.037.003-.037.004-.036.003-.036.004-.034.003-.032.003-.03.002-.03.003-.025.001-.023.002-.02.001h-.215l-.013.001-.015.001-.018.003-.021.002-.022.003-.025.003-.026.003-.027.003-.027.004-.028.003-.085.012-.027.003-.025.004-.026.003-.022.003-.02.003-.019.003-.016.002-.013.002h-.01l-.005.002h-.065v.01l.001.003.001.004v.004l.002.005.002.01.002.006.003.006.002.006.003.006.003.007.012.022.006.007.006.007.006.008.007.007.007.008v.026l-.001.006v.011l-.001.005-.002.012-.001.007-.004.014-.002.009-.003.009-.002.01-.004.01-.004.012-.004.013-.005.014-.005.015-.006.017-.006.018-.006.02-.007.023-.009.022-.01.021-.011.021-.013.02-.014.02-.015.02-.015.018-.017.017-.034.032-.017.015-.017.014-.017.013-.016.013-.016.01-.016.012-.015.009-.013.008-.012.008-.01.006-.009.005-.008.004-.005.003-.004.002h-.001.062l.008.007.007.007.017.012.008.005.016.008.009.004.01.003.009.003.01.003.022.004.012.002.012.002H14.557l.014.002h.088l.021.002h.023l.022.007.02.006.02.007.02.005.017.006.017.005.017.005.03.01.028.01.014.006.013.005.012.006.027.014.012.007.012.008.026.018.013.01.013.013.014.012.014.013.015.014.016.015.016.013.016.012.016.011.017.011.017.01.018.009.017.008.019.007.017.007.051.018.017.005.016.005.046.015.014.006.012.005.013.005.011.006.01.006.01.007.007.007.007.001.007.002.006.002.006.004.005.005.005.005.004.007.004.007.006.016.003.009.004.018v.01l.003.01.002.02v.048l.002.009v.024l.002.007.003.008.004.007.005.007.005.008.015.015.008.007.01.008.01.007.01.008.011.007.012.009.013.007.013.008.013.007.014.008.014.007.014.008.014.007.015.008.03.014.016.008.014.007.012.008.01.007.011.008.008.008.014.017.01.016.004.009.004.008.004.01.004.009.012.03.005.011.013.022.007.013.018.026.01.013.014.014.014.015.021.015.02.015.016.015.016.015.013.015.012.015.01.014.01.015.008.014.007.014.007.013.006.014.005.013.006.013.005.013.006.012.005.012.006.01.007.012.008.01.019.02.01.008.014.01.014.007.014.007.012.008.011.008.01.008.008.007.014.016.005.008.005.009.004.008.013.027.012.03.005.011.006.012.006.012.007.012.009.012.009.013.011.014.013.014.014.015.021.008.022.01.02.01.018.01.017.013.016.013.016.014.014.015.013.015.013.015.01.016.02.035.017.034.007.017.006.018.005.017.004.018.004.017.003.018.004.032v.016l.001.015v.015l.002.028.002.013.003.014.006.024.008.024.015.033.006.012.005.011.008.011.006.012.007.012.006.012.007.012.007.013.008.012.007.013.007.014.008.014.007.015.126.251v-.15l-.001-.007v-.01l-.003-.015-.001-.006-.002-.005-.002-.006-.002-.005-.003-.007-.002-.007-.004-.007-.003-.009-.004-.009-.005-.009-.017-.034-.006-.013-.007-.014-.008-.015-.005-.015-.003-.015-.002-.016v-.014l.001-.028.003-.014.003-.013.006-.013.004-.012.006-.012.005-.011.006-.012.006-.01.006-.009.006-.008.005-.008.006-.007.004-.006.011-.011.001-.002.001-.001h-.062l-.009-.007-.006-.006-.006-.007-.006-.005-.005-.006-.012-.015-.006-.01-.003-.006-.002-.005-.002-.007v-.005l-.003-.007-.002-.014V10.535l-.002-.012v-.068l-.002-.012-.002-.01-.003-.012-.006-.018-.004-.008-.004-.007-.005-.007-.015-.018-.006-.005-.007-.006-.006-.005-.007-.005-.006-.005-.015-.01-.008-.006-.014-.012-.008-.007-.007-.007-.007-.008-.006-.008-.005-.009-.006-.02-.002-.01-.002-.022v-.012l.002-.025.001-.013.002-.013.002-.014.003-.013.002-.014.003-.014.002-.014.003-.015.002-.016.002-.014.001-.015.002-.015v-.015l.001-.015v-.014l-.003-.015-.002-.013-.004-.014-.005-.013-.005-.012-.006-.012-.007-.012-.008-.012-.008-.011-.01-.012-.017-.022-.01-.011-.01-.012-.01-.012-.01-.012-.01-.01-.01-.014-.01-.012-.027-.04-.008-.014-.008-.014-.014-.03-.006-.016-.005-.015-.005-.014-.005-.015-.004-.014-.003-.015-.004-.029v-.013l-.002-.014V9.48l.001-.013.001-.012.004-.024.003-.011.004-.011.005-.01.01-.02.006-.01.014-.016h.008l.008-.002.009-.003.009-.004.01-.005.01-.006.01-.008.011-.008.011-.01.011-.01.023-.023.01-.013.012-.015.022-.03.022-.034.01-.018.02-.038.01-.022.008-.02.017-.044.015-.022.015-.021.015-.02.014-.018.015-.018.014-.016.014-.015.028-.027.013-.012.012-.012.012-.01.01-.01.011-.009.02-.014.008-.006.008-.005.006-.005.006-.003.005-.003.004-.002.003-.002.002-.001v-.022l.001-.012v-.013l.001-.016v-.018l.001-.018.002-.02V8.65l.003-.021.004-.047.003-.023.002-.023.004-.024.003-.023.005-.022.004-.023.005-.02.006-.02.006-.02.006-.017.007-.016.008-.015.01-.015.007-.016.01-.015.01-.014.01-.015.01-.014.01-.015.023-.028.01-.013.012-.015.012-.013.011-.013.033-.036.01-.011.021-.021.01-.01.035-.036.006-.007.005-.009.003-.008.002-.01v-.019l-.001-.01-.006-.02-.004-.01-.01-.02-.018-.027-.006-.008-.006-.007-.01-.014-.006-.005-.004-.005-.004-.003-.002-.003-.002-.002h-.063l-.007-.001-.006-.002-.004-.002-.004-.004-.003-.004-.002-.006-.001-.005-.001-.007V7.804l.002-.008.002-.007.002-.008.004-.015.003-.007.002-.007.002-.006.003-.006.004-.01.002-.003v-.003h.002v-.01l-.002-.014-.002-.008-.002-.007-.01-.021-.002-.006-.004-.007-.004-.007-.003-.006-.004-.005-.004-.006-.003-.005-.004-.004-.003-.005-.003-.003-.004-.004-.009-.009h0-.502v-.063h.063l.063-.125-.063-.252h-.188zm.918.095l-.003.064.026.03.037.01.051.043.038.01h.062l-.062-.126-.126-.126-.01.03-.013.065zm.565-.65l-.126.022-.115.021-.05.01.02.012.043.035.042.059.02.083.092.056.08.07.058.068.021.056.038.047.025.04.026.028.037.011.038-.046.025-.04.025-.029.037-.01.046-.04.033-.04.01-.062-.026-.11-.056-.047-.061-.046-.05-.048-.02-.047-.064-.062h-.063l-.085.01zm-9.774-.81l-.08.019-.083.026-.089.034-.09.042-.09.048-.088.056-.084.065-.08.071-.564.565.126.314H8.05l.053.017.046.012.04.008.034.004.03-.002.027-.008.024-.013.021-.02.02-.027.018-.034.02-.023.025-.027.027-.032.03-.033.031-.034.035-.032.035-.028.036-.022.038-.014.037-.006.032-.001.023-.005.014-.008.007-.009.002-.009v-.009L8.75 6.67l-.005-.007-.004-.005v-.002l-.008-.007-.007-.008-.008-.011-.009-.013L8.7 6.6l-.008-.016-.007-.019-.005-.018-.002-.018v-.108l-.001-.025-.003-.027-.003-.028-.006-.028-.008-.028-.01-.026-.015-.023-.017-.021v-.063l-.062.063v.062h-.015l-.011-.004-.013-.003-.016-.006-.016-.008-.018-.01-.018-.014-.02-.017-.012-.022-.004-.029.003-.033.009-.036.013-.037.015-.038.014-.035.013-.033.01-.028.003-.022v-.02l-.002-.018-.003-.018-.007-.016-.012-.015-.017-.013-.024-.011-.031-.008-.042-.005-.05-.002-.062.004-.071.01zm8.18.863l.013.043.035.02.001.047.006.047.02.048.036.046.046.02.04.043.029.043.01.02.01-.001.022-.007.021-.018.01-.037v-.063h-.063l-.063-.125h-.062l-.063-.188-.035.019-.012.043z" fill="red" fill-rule="nonzero" stroke="#fff" stroke-width="1.0004475"/></svg>