<svg xmlns="http://www.w3.org/2000/svg" width="24" height="24"><defs><clipPath id="a"><path fill="none" d="M0 0h24v24H0z"/></clipPath></defs><g clip-path="url(#a)"><path data-name="Path 2" d="M3 10.5A7.427 7.427 0 0 1 10.5 3a7.427 7.427 0 0 1 7.5 7.5 7.427 7.427 0 0 1-7.5 7.5A7.427 7.427 0 0 1 3 10.5Zm18.45 13.05a1.485 1.485 0 0 0 2.1-2.1L18.9 16.8a10.27 10.27 0 0 0 2.1-6.3A10.435 10.435 0 0 0 10.5 0 10.435 10.435 0 0 0 0 10.5 10.435 10.435 0 0 0 10.5 21a10.27 10.27 0 0 0 6.3-2.1Z" fill="currentColor"/></g></svg>